<svg width="269" height="770" viewBox="0 0 269 770" fill="none" xmlns="http://www.w3.org/2000/svg">
<path d="M154.806 770C154.806 770 153.646 757.99 151.613 736.977C151.103 731.725 150.542 725.909 149.929 719.576C149.363 713.233 148.87 706.354 148.276 699.012C147.153 684.323 145.679 667.772 144.723 649.648C144.178 640.593 143.609 631.162 143.022 621.403C142.557 611.628 142.182 601.517 141.74 591.126C141.525 585.929 141.308 580.662 141.088 575.331C140.924 569.997 140.84 564.591 140.709 559.132C140.589 553.668 140.468 548.149 140.346 542.575C140.25 537.002 140.033 531.376 140.072 525.699C140.049 514.346 140.026 502.803 140 491.118C140.136 479.436 140.409 467.612 140.608 455.696C140.662 449.733 140.968 443.762 141.188 437.766C141.424 431.77 141.658 425.759 141.895 419.736C142.03 416.726 142.093 413.706 142.288 410.693L142.835 401.654C143.2 395.625 143.567 389.586 143.932 383.548C144.241 377.506 144.793 371.492 145.281 365.475C145.78 359.461 146.276 353.45 146.771 347.454C146.994 344.45 147.307 341.464 147.63 338.484C147.943 335.505 148.254 332.525 148.568 329.551C149.197 323.604 149.824 317.675 150.446 311.77C151.202 305.89 151.952 300.034 152.701 294.205C153.466 288.382 154.132 282.565 155.063 276.849C156.825 265.389 158.432 254.032 160.499 242.994C161.5 237.469 162.399 231.959 163.456 226.552C164.546 221.158 165.622 215.815 166.691 210.53C167.24 207.89 167.715 205.241 168.321 202.657C168.91 200.066 169.498 197.49 170.08 194.929C171.268 189.814 172.351 184.727 173.582 179.776C176.112 169.898 178.454 160.236 181.146 151.084C183.642 141.838 186.463 133.109 189.059 124.674C194.537 107.95 200.088 92.9203 205.453 79.8988C210.899 66.9351 216.108 55.9669 220.688 47.1857C225.249 38.3893 229.251 31.8497 232.06 27.494C234.878 23.1414 236.56 21 236.56 21L237 21.5862C237 21.5862 235.353 23.6972 232.558 28.0377C229.77 32.3812 225.796 38.9056 221.265 47.6959C216.718 56.465 211.544 67.4241 206.136 80.3787C200.81 93.3881 195.3 108.405 189.868 125.111C187.295 133.54 184.496 142.26 182.023 151.497C179.354 160.643 177.036 170.296 174.531 180.164C173.313 185.112 172.241 190.194 171.067 195.3C170.489 197.861 169.909 200.433 169.324 203.021C168.726 205.603 168.258 208.252 167.713 210.885C166.658 216.167 165.594 221.504 164.518 226.892C163.472 232.293 162.586 237.797 161.599 243.319C159.557 254.341 157.975 265.686 156.24 277.134C155.321 282.845 154.668 288.655 153.917 294.472C153.183 300.292 152.444 306.142 151.702 312.016C151.089 317.915 150.476 323.838 149.861 329.776C149.555 332.747 149.249 335.72 148.942 338.697C148.626 341.674 148.32 344.656 148.102 347.657C147.621 353.647 147.136 359.649 146.655 365.657C146.175 371.662 145.639 377.67 145.342 383.709C144.989 389.738 144.636 395.764 144.283 401.787L143.754 410.818C143.567 413.825 143.508 416.841 143.38 419.848C143.155 425.865 142.933 431.867 142.711 437.854C142.503 443.841 142.21 449.806 142.168 455.76C141.993 467.663 141.743 479.47 141.633 491.133C141.679 502.803 141.729 514.33 141.775 525.669C141.745 531.337 141.974 536.953 142.082 542.521C142.215 548.085 142.346 553.598 142.477 559.053C142.617 564.506 142.713 569.903 142.889 575.231C143.118 580.555 143.347 585.813 143.572 591.001C144.035 601.377 144.428 611.477 144.912 621.233C145.52 630.98 146.105 640.399 146.669 649.441C147.66 667.541 149.164 684.053 150.315 698.712C150.923 706.038 151.428 712.899 152.006 719.235C152.633 725.565 153.206 731.379 153.725 736.631C155.8 757.638 156.986 769.638 156.986 769.638L154.806 770Z" fill="#6D8869"/>
<path d="M198.64 93.0627C197.754 87.8536 200.011 82.717 200.733 77.4565C201.694 70.4636 199.905 63.3346 197.882 56.8224C195.969 50.664 193.813 44.6415 191.237 39C192.042 48.7955 189.32 58.6727 190.165 68.4622C190.988 78.0007 195.063 86.2241 199.01 94L198.64 93.0627Z" fill="#6D8869"/>
<path d="M175.16 97.9796C172.517 89.7955 175.148 74.8509 175.647 66C176.852 72.7275 178.76 79.2418 181.306 85.3085C183.56 90.6815 186.309 95.7061 188.331 101.232C190.353 106.761 191.628 113.008 190.682 119C190.682 119 179.989 112.945 175.16 97.9796Z" fill="#6D8869"/>
<path d="M173.682 116.322C171.637 113.428 169.489 110.66 167.705 107.432C164.568 101.758 162.814 94.8116 161.111 88C160.621 91.9085 160.281 95.8568 160.092 99.8144C159.938 103.052 159.895 106.384 160.638 109.446C161.195 111.752 162.174 113.796 163.227 115.709C168.93 126.074 177.158 133.523 181.702 145C182.174 141.557 182.084 137.965 181.443 134.58C181.443 134.58 177.169 121.258 173.682 116.322Z" fill="#6D8869"/>
<path d="M175.719 172C171.246 165.352 163.518 163.485 158.588 157.355C155.909 154.025 154.234 149.642 152.988 145.19C148.929 130.686 149.009 114.44 153.208 100C152.755 105.822 154.842 111.499 157.436 116.373C160.028 121.248 163.184 125.682 165.307 130.895C168.25 138.119 169.044 146.42 171.624 153.853C173.543 159.382 176.51 164.86 175.925 170.836L175.719 172Z" fill="#6D8869"/>
<path d="M212.904 54.9158C213.832 44.4813 207.914 34.339 201 29C201.537 31.7578 202.077 34.5126 202.617 37.2673C203.164 40.0738 203.715 42.8863 204.543 45.571C205.227 47.7809 206.092 49.8904 206.774 52.1033C208.419 57.4545 208.93 63.2653 209.403 69C209.403 69 212.273 62.0234 212.904 54.9158Z" fill="#6D8869"/>
<path d="M221.909 18C221.675 20.1744 221.219 22.3064 220.558 24.3109C220.131 25.6048 219.62 26.8477 219.246 28.1699C217.406 34.6648 217.48 42.2157 220.302 48C220.302 48 227.417 34.7554 221.909 18Z" fill="#6D8869"/>
<path d="M231.998 22.4164C232.054 17.1155 230.8 11.9581 229.123 7C227.026 15.626 228.442 33.1209 228.798 32.9994C228.798 32.9994 231.962 25.8287 231.998 22.4164Z" fill="#6D8869"/>
<path d="M234.067 25.6168L234 26C236.522 23.5934 239.674 22.7319 242.546 21.1501C248.045 18.1181 252.561 12.1799 255 5C246.574 9.55256 239.163 16.294 234.067 25.6168Z" fill="#6D8869"/>
<path d="M255.79 4.23356C256.272 2.86251 256.684 1.45133 257 0C250.941 3.33189 242.371 2.12759 238.745 9.18046C236.122 14.2787 234.362 23.0947 234 25C239.304 15.6096 247.019 8.81916 255.79 4.23356Z" fill="#596E57"/>
<path d="M231.213 35.261C232.081 34.3828 232.924 33.421 233.758 32.32C237.739 27.0534 243.644 25.0619 249 25C245.819 25.8226 243.28 28.8224 241.009 31.8407C239.034 34.4663 237.041 37.4196 234.532 39.0618C231.981 40.7348 228.747 39.6339 226 39.7607C227.873 38.2794 229.583 36.9125 231.213 35.261Z" fill="#6D8869"/>
<path d="M205 81C211.992 72.5585 223.39 73.3082 232.002 67.5522C241.619 61.1242 246.413 47.688 254 38C248.403 41.4467 242.803 44.8991 237.206 48.3457C229.647 53.0045 221.976 57.758 215.789 64.8323C211.807 69.3819 208.544 74.7845 205.461 80.2819L205 81Z" fill="#6D8869"/>
<path d="M214.603 89.4532C220.72 87.6969 226.931 86.5908 233.186 85.9725C236.456 85.6473 239.728 85.3251 243 85C236.99 94.3477 227.537 100.04 217.975 100.075C210.848 100.101 203.087 97.3436 197 102C197 102 208.524 91.1979 214.603 89.4532Z" fill="#6D8869"/>
<path d="M186.329 136.963C183.798 143.327 196.535 132.88 201.775 131.408C215.572 127.53 228.276 116.922 237 102C231.867 104.255 226.318 103.604 220.943 104.303C220.943 104.303 197.337 109.291 186.329 136.963Z" fill="#6D8869"/>
<path d="M176 172C184.856 162.677 197.581 164.6 208.466 160.443C220.01 156.034 229.235 144.843 238 134C230.932 134.995 223.864 135.99 216.796 136.982C212.725 137.556 208.457 137.556 204.721 139.764C186.421 150.573 176 172 176 172Z" fill="#6D8869"/>
<path d="M171 192C172.275 190.214 187.395 180.672 193.236 176.988C196.942 174.654 200.656 172.314 204.534 170.498C213.898 166.118 224.162 164.9 234 167.006C229.765 174.971 222.856 179.574 215.891 183.287C189.93 197.129 179.444 188.484 171 192Z" fill="#6D8869"/>
<path d="M188.943 227.919C194.041 227.424 198.84 224.845 203.468 222.154C214.32 215.84 224.856 208.706 235 200.805C228.687 201.653 222.28 202.499 216.013 201.231C212.208 200.46 208.409 198.427 204.599 199.155C177.618 204.296 167.352 219.943 165 223.465C166.677 224.1 181.337 228.66 188.943 227.919Z" fill="#6D8869"/>
<path d="M157.094 185.558C151.597 183.107 147.073 178.176 142.812 173.225C139.859 169.793 136.911 166.135 135.325 161.519C133.223 155.395 133.813 148.261 135.756 142.058C137.698 135.854 140.884 130.39 144.039 125C144.971 134.706 146.008 144.461 148.48 153.74C150.953 163.015 154.973 171.879 161.022 178.147C163.124 180.33 165.463 182.191 167.294 184.716C169.127 187.243 170.425 190.674 169.871 194C169.871 194 165.701 189.399 157.094 185.558Z" fill="#6D8869"/>
<path d="M161.556 232C157.826 223.794 150.612 219.715 144.51 214.456C139.908 210.488 135.763 205.617 132.26 200.057C130.179 196.753 128.303 193.161 127.216 189.128C125.234 181.77 126.036 173.68 127.078 166C128.976 171.269 130.916 176.62 133.886 180.965C136.354 184.572 139.441 187.353 142.542 189.997C147.368 194.115 152.374 198.074 156.249 203.637C160.125 209.202 162.776 216.772 161.795 224.183L161.556 232Z" fill="#6D8869"/>
<path d="M172.377 245.805C176.79 243.424 181.229 241.117 185.668 238.81C190.305 236.399 194.969 233.976 199.862 232.64C203.753 231.575 207.736 231.21 211.703 230.849C218.469 230.233 225.234 229.616 232 229C224.178 241.363 212.479 249.6 200.128 251.437C186.336 253.489 171.432 248.085 159 256L172.377 245.805Z" fill="#6D8869"/>
<path d="M146.515 241.423C144.026 240.262 141.456 239.46 138.848 238.904C132.174 237.479 125.502 236.054 118.83 234.632C113.291 233.45 107.295 231.952 103.573 226.508C101.033 222.789 99.9779 217.797 99 213C101.676 217.162 105.885 219.201 110.034 219.903C114.18 220.602 118.385 220.134 122.566 220.198C130.997 220.322 139.601 222.747 146.597 228.847C153.592 234.948 158.763 245.078 159 256C159 256 155.935 245.822 146.515 241.423Z" fill="#6D8869"/>
<path d="M155 274C151.594 269.764 146.486 268.612 141.735 268.826C136.984 269.042 132.285 270.414 127.532 270.352C123.111 270.292 118.75 268.995 114.543 267.258C111.229 265.89 107.969 264.236 104.97 261.971C102.473 260.083 100.182 257.788 97.897 255.502C95.0457 252.647 92.1573 249.74 90.0095 246.012C87.8617 242.283 86.5127 237.557 87.1652 233C87.6202 237.598 89.9374 241.668 92.8909 244.358C95.8444 247.051 99.3853 248.496 102.943 249.393C109.33 251.005 115.89 250.96 122.396 251.346C128.899 251.735 135.512 252.593 141.5 255.867C147.486 259.142 152.836 265.174 154.777 273.121L155 274Z" fill="#6D8869"/>
<path d="M156.437 297.195C154.624 298.463 152.812 299.732 151 301C152.315 294.648 156.451 290.025 160.497 286.045C165.926 280.704 171.588 275.762 177.446 271.246C182.869 267.067 188.611 263.188 194.867 262.112C204.229 260.501 214.15 265.262 223 261C214.588 275.244 202.258 285.539 188.758 289.593C188.758 289.593 160.255 294.523 156.437 297.195Z" fill="#6D8869"/>
<path d="M59.6049 762.606C49.6181 759.754 40.0833 754.973 30.2885 751.264C20.4936 747.554 10.1157 744.998 0 747.063C15.615 742.369 31.3471 738.277 47.1096 734.387C67.9265 729.247 89.7201 724.495 110.143 731.594C125.131 736.8 138.254 748.048 153 754.191C153 754.191 89.4297 771.119 59.6049 762.606Z" fill="#6D8869"/>
<path d="M150.872 730.127C151.553 730.259 149.303 724.963 149.2 724.747C148.01 722.246 146.763 719.79 145.462 717.381C140.794 708.733 135.455 699.344 128.148 693.97C120.783 688.57 112.427 684.038 104.019 682.072C86.6508 678.009 68.7736 685.996 53.7209 697.62C38.6682 709.244 25.576 724.455 11 737C32.1667 725.104 55.3551 719.323 78.5316 718.57C100.891 717.844 122.598 722.24 144.321 728.429C146.5 729.049 148.665 729.696 150.872 730.127Z" fill="#6D8869"/>
<path d="M107.829 673.827C95.1509 673.491 82.5382 676.69 69.8556 676.684C49.8629 676.668 30.294 669.489 11 662.36C14.8798 660.692 18.7572 659.025 22.6346 657.357C33.1258 652.848 43.6613 648.323 54.5251 645.937C74.25 641.609 94.8179 644.574 113.437 654.427C122.004 658.961 130.134 664.904 138.057 671.242C141.359 673.881 144.882 677.02 146 682C146 682 123.9 674.251 107.829 673.827Z" fill="#6D8869"/>
<path d="M144 633.542C135.498 628.255 125.611 627.834 116.218 629.224C106.82 630.618 97.6177 633.711 88.2221 635.096C69.2404 637.898 50.1006 633.672 31.2793 629.461C27.5187 628.622 23.7605 627.78 20 626.941C42.4934 628.928 63.2519 610.104 85.7826 609.048C89.9408 608.852 94.1036 609.271 98.227 609.985C113.509 612.639 144 633.542 144 633.542Z" fill="#6D8869"/>
<path d="M105.925 568.926C96.4609 565.828 86.356 566.841 76.7666 569.335C67.1771 571.826 57.8916 575.757 48.3567 578.53C41.3415 580.573 34.1933 581.984 27 582.752C31.4053 582.893 35.8225 583.037 40.1874 583.748C56.8657 586.473 79.7398 595.429 97.4369 596.964C101.474 597.314 135.493 595.003 143 595.167C143 595.167 121.002 573.861 105.925 568.926Z" fill="#6D8869"/>
<path d="M141 571C123.409 565.696 105.762 560.375 87.7778 557.88C76.3012 556.29 64.5871 555.82 53.6065 551.351C44.8261 547.777 36.1482 541.607 27 543.141C34.7652 541.163 42.5303 539.188 50.2954 537.21C55.6391 535.85 61.0013 534.485 66.4451 534.112C71.833 533.741 77.2325 534.348 82.5925 535.133C90.7302 536.326 99.0215 538.018 106.193 542.978C109.183 545.043 111.911 547.64 114.685 550.134C122.743 557.381 141 571 141 571Z" fill="#6D8869"/>
<path d="M135.768 528.08C124.983 524.456 113.306 527.672 102.458 529.227C92.6942 530.63 82.5364 530.679 73.6322 524.545C69.659 521.808 66.0795 518.274 62.5328 514.69C60.0766 512.211 54.2531 508.014 51 509.662C57.448 506.397 64.2968 504.51 71.1992 504.093C92.6453 502.798 112.705 515.322 132.207 525.325C132.736 525.595 133.263 525.868 133.792 526.138C135.931 527.236 138.01 528.39 140 529.902C138.606 529.163 137.194 528.562 135.768 528.08Z" fill="#6D8869"/>
<path d="M117.576 501.169C114.631 500.366 111.783 499.091 108.942 497.819C104.437 495.801 99.9292 493.78 95.4241 491.762C90.1026 489.378 84.7575 486.986 79.2141 485.616C63.5941 481.758 47.5233 486.216 32 490.656C41.1304 485.877 50.3056 481.235 59.521 476.726C68.1298 472.518 76.9722 468.375 86.2017 468.024C96.4318 467.637 106.497 471.992 115.391 478.37C124.288 484.748 132.172 493.105 140 501.41C137.751 501.071 124.524 503.068 117.576 501.169Z" fill="#6D8869"/>
<path d="M140 463.616C140 463.616 131.17 441.476 112.211 435.014C100.116 430.892 87.5086 429.654 75.622 424.602C68.2629 421.476 61.497 416.402 54.7913 411.362C49.6474 407.493 44.3227 403.413 41 397C41.292 408.447 47.599 419.671 52.5576 428.613C57.5602 437.631 65.48 443.145 73.3975 446.688C80.5573 449.893 88.0231 451.688 95.2292 454.61C99.963 456.526 104.463 459.285 109.187 461.234C113.523 463.021 117.89 463.585 122.413 463.824C128.266 464.132 134.149 464.02 140 463.616Z" fill="#6D8869"/>
<path d="M140 419.183C133.973 414.708 127.947 410.234 121.92 405.759C118.621 403.307 115.285 400.836 111.647 399.446C106.498 397.476 101.034 397.775 95.6743 397.574C81.9794 397.067 67.9188 392.919 57 382C61.5958 395.21 69.0718 407.027 78.9487 413.471C82.5489 415.82 86.3992 417.424 90.2796 418.795C90.2796 418.795 123.826 425.74 140 419.183Z" fill="#6D8869"/>
<path d="M144 392.111C143.545 391.213 107.177 398.985 90.4088 392.184C73.641 385.385 58.5746 372.106 47 355C61.8461 362.59 78.4311 361.429 94.0412 365.756C103.9 368.488 113.307 373.395 122.655 378.28C122.655 378.28 141.582 391.274 144 392.111Z" fill="#6D8869"/>
<path d="M141.342 349.682C120.872 366.587 95.7995 373.364 72 368.422C88.5908 363.687 102.552 347.581 119.315 344.093C123.055 343.312 126.85 343.185 130.633 343.061C135.911 342.887 141.539 342.831 146 346.593L141.342 349.682Z" fill="#6D8869"/>
<path d="M147.637 324.465C134.166 331.704 118.764 331.347 104.723 326.256C90.6792 321.161 77.8312 311.606 65.8386 300.852C64.353 299.519 62.8219 298.086 62 296C78.6914 300.78 95.9434 302.282 112.98 300.432C116.778 300.019 120.616 299.444 124.383 300.196C128.818 301.079 132.906 303.752 136.843 306.543C142.39 310.481 148.253 315.454 150 323.34L147.637 324.465Z" fill="#6D8869"/>
<path d="M151 295.679C136.153 294.313 120.491 299.208 106.773 291.671C93.4659 284.359 85.199 267.011 79 250C89.0245 265.182 104.113 273.111 119.131 277.317C123.03 278.408 126.979 279.292 130.764 280.936C130.764 280.936 144.82 287.876 151 295.679Z" fill="#6D8869"/>
<path d="M150 321.624C153.743 319.773 166.351 312.55 170.227 311.249C177.374 308.843 184.896 308.36 192.189 309.836C200.834 311.585 209.266 316.051 218 315.406C184.341 341.804 150 321.624 150 321.624Z" fill="#6D8869"/>
<path d="M148.425 349.46C159.761 341.374 173.417 338.294 186.356 340.91C189.122 341.467 191.874 342.286 194.406 343.758C197.231 345.398 199.704 347.808 202.39 349.768C208.545 354.263 215.859 356.333 223 355.601C211.378 358.481 199.503 364.683 188.094 360.708C183.781 359.204 179.88 356.321 175.676 354.408C166.302 350.143 155.976 350.906 146 351.731L148.425 349.46Z" fill="#6D8869"/>
<path d="M147.599 389.891C154.39 394.805 162.425 396.861 170.173 395.67C175.979 394.775 181.518 392.136 187.141 390.071C196.821 386.511 207.023 384.62 217 386.391C207.856 384.082 199.63 377.685 190.585 374.795C174.882 369.776 158.114 375.851 144 385.98L147.599 389.891Z" fill="#6D8869"/>
<path d="M141 421.429C151.322 425.838 162.609 423.696 173.376 421.506C179.204 420.319 185.161 419.082 190.351 415.565C196.019 411.725 200.385 405.427 205.889 401.235C209.568 398.432 213.725 396.621 218 395.948C196.401 392.203 174.141 399.831 155.473 413.908L141 421.429Z" fill="#6D8869"/>
<path d="M140 462.383C142.52 460.171 145.04 457.956 147.561 455.741C150.767 452.921 154.009 450.078 157.606 448.226C163.209 445.336 169.357 444.991 175.316 443.823C189.367 441.064 202.842 433.464 214 422C208.463 436.075 200.804 449.483 189.934 456.519C178.351 464.019 164.774 463.345 151.856 462.505L140 462.383Z" fill="#6D8869"/>
<path d="M140.049 527.94L140 527.977C147.331 528.102 154.667 527.718 161.966 526.829C169.421 525.925 176.878 524.479 184.016 521.522C192.168 518.146 199.835 512.799 206.528 505.848C213.281 498.83 220.832 491.955 229 488C226.882 488.889 224.46 487.896 222.267 488.338C220.012 488.792 218.241 490.344 216.276 491.696C214.081 493.206 211.72 494.266 209.31 495.015C203.743 496.744 198.043 496.431 192.434 497.518C183.129 499.32 175.156 504.451 166.783 509.672C157.704 515.329 148.744 521.327 140.049 527.94Z" fill="#6D8869"/>
<path d="M140 565.052C142.257 568.113 164.911 572.153 190.599 557.648C194.793 555.279 198.911 552.58 203.316 551.005C213.631 547.314 224.568 550.229 235 553.306C222.925 546.872 210.706 540.389 197.817 537.955C189.386 536.364 180.629 536.636 172.401 539.719C166.309 542.001 160.81 546.359 155.814 551.419C151.035 556.255 146.714 563.119 140.512 564.635L140 565.052Z" fill="#6D8869"/>
<path d="M143 609C145.685 606.316 148.37 603.634 151.056 600.95C157.485 594.523 164.004 589.172 171.476 584.993C180.051 580.196 187.761 572.888 196.706 569.213C205.517 565.596 214.829 564.746 224 564C216.234 563.976 209.513 571.58 203.601 577.364C196.249 584.552 188.846 591.377 180.378 596.131C171.911 600.885 162.641 602.876 153.708 605.661C150.14 606.774 146.57 607.887 143 609Z" fill="#6D8869"/>
<path d="M145 640.3C154.866 629.441 164.984 618.384 177.034 612.46C193.024 604.598 211.652 606.158 226 594C215.013 602.877 207.339 617.495 196.696 627.076C172.357 648.989 145 640.3 145 640.3Z" fill="#6D8869"/>
<path d="M188.127 675.689C193.597 675 198.917 673.156 204.237 669.934C213.13 664.543 221.924 657.295 232 656.531C225.047 655.004 218.096 653.481 211.144 651.954C206.772 650.994 202.05 649.611 197.613 650.103C192.861 650.633 188.124 651.583 183.455 652.811C173.626 655.394 164.222 659.541 155.029 664.664C152.099 666.297 148.792 667.469 146 669.36C155.464 672.04 164.979 673.511 174.552 675.215C179.226 676.044 183.726 676.24 188.127 675.689Z" fill="#6D8869"/>
<path d="M151 727.959C151.043 727.966 156.628 722.197 158.042 720.911C173.158 707.172 188.037 691.711 205.779 684.211C216.17 679.821 227.134 678.395 238 677C234.415 678.42 231.001 680.58 227.922 683.376C224.354 686.617 221.27 690.671 218.047 694.478C210.338 703.579 201.519 710.96 192.097 716.655C175.092 726.935 154.283 728.277 151 727.959Z" fill="#6D8869"/>
<path d="M153 752.832C170.92 758.047 189.677 753.086 207.223 746.079C214.217 743.284 221.171 740.144 227.591 735.613C234.44 730.779 240.57 724.44 247.193 719.108C253.813 713.779 261.189 709.374 269 709.08C247.223 707.496 224.573 706.096 204.449 716.904C198.818 719.926 193.511 723.852 188.221 727.765C178.06 735.283 167.902 742.801 157.742 750.319L153 752.832Z" fill="#6D8869"/>
<path d="M140 496.152L170.215 474.959C174.251 473.047 178.362 471.431 182.503 469.975C187.874 468.087 193.308 466.459 198.827 465.628C203.419 464.934 208.046 464.791 212.664 464.65C219.776 464.434 226.888 464.219 234 464C220.574 465.325 208.936 476.178 196.727 483.746C179.138 494.653 159.285 498.993 140 496.152C140.453 496.249 140 496.152 140 496.152Z" fill="#6D8869"/>
<path d="M190.146 68.4622C190.877 78.0007 194.496 86.2241 198 94L197.672 93.0627C197.432 91.4725 197.454 89.8883 197.616 88.3071C192.677 76.6734 193.997 65.0307 195.923 53.0674C194.496 48.2211 192.919 43.4896 191.099 39C191.813 48.7955 189.396 58.6727 190.146 68.4622Z" fill="#6D8869"/>
<path d="M198.684 88C199.08 84.4237 200.264 80.8535 200.745 77.2232C201.663 70.2778 199.954 63.1974 198.02 56.7295C197.647 55.4803 197.255 54.2371 196.862 53C194.789 64.8819 193.368 76.4454 198.684 88Z" fill="#596E57"/>
<path d="M175.16 97.1746C179.992 112.713 190.691 119 190.691 119C190.941 117.344 191.027 115.673 190.993 113.998C188.357 108.002 185.587 102.183 182.326 96.7193C178.009 89.94 175.768 82.6244 174.694 75C173.97 82.8894 173.413 91.5616 175.16 97.1746Z" fill="#89AD91"/>
<path d="M191 114C190.904 109.572 189.852 105.141 188.395 101.099C186.409 95.5935 183.708 90.5879 181.495 85.2353C178.994 79.1916 177.12 72.702 175.936 66C175.77 68.995 175.364 72.6901 175 76.5826C176.054 83.8979 178.254 90.9171 182.492 97.4216C185.694 102.663 188.413 108.246 191 114Z" fill="#6D8869"/>
<path d="M160.465 94C160.31 95.8663 160.181 97.7357 160.091 99.6051C159.939 102.857 159.894 106.205 160.638 109.282C161.196 111.597 162.177 113.652 163.232 115.573C168.945 125.986 177.188 133.47 181.74 145C181.891 143.904 181.964 142.792 182 141.674C181.805 141.31 181.607 140.95 181.404 140.587C173.463 125.305 166.429 109.978 160.465 94Z" fill="#6D8869"/>
<path d="M181.371 139.932C181.579 140.289 181.781 140.643 181.98 141C182.061 138.643 181.897 136.264 181.45 133.982C181.45 133.982 177.08 120.831 173.515 115.959C171.424 113.102 169.227 110.369 167.403 107.183C164.195 101.581 162.402 94.7241 160.661 88C160.396 90.0427 160.18 92.0974 160 94.1551C166.087 109.855 173.267 124.916 181.371 139.932Z" fill="#6D8869"/>
<path d="M171.262 167.367C172.912 168.673 174.444 170.148 175.714 172L175.924 170.836C176.518 164.86 173.497 159.382 171.541 153.853C168.912 146.42 168.103 138.119 165.103 130.895C162.94 125.682 159.724 121.248 157.082 116.373C154.438 111.499 152.312 105.822 152.773 100C152.063 102.398 151.478 104.85 151 107.33C157.531 123.93 161.401 142.728 166.985 159.729C168.019 162.607 169.629 164.981 171.262 167.367Z" fill="#6D8869"/>
<path d="M152.933 144.837C154.159 149.286 155.807 153.666 158.443 156.994C161.944 161.414 166.871 163.624 171 167C169.424 164.615 167.869 162.243 166.871 159.367C161.479 142.377 157.743 123.589 151.437 107C149.116 119.456 149.601 132.748 152.933 144.837Z" fill="#5C7258"/>
<path d="M201 29C201.596 31.7578 202.195 34.5126 202.793 37.2673C203.4 40.0738 204.011 42.8863 204.93 45.571C205.688 47.7809 206.648 49.8904 207.404 52.1033C209.229 57.4545 209.796 63.2653 210.32 69C210.32 69 211.115 67.2558 212 64.6228C211.597 54.6906 210.33 44.944 207.969 35.6753C205.918 33.0392 203.521 30.7563 201 29Z" fill="#6D8869"/>
<path d="M211.178 66C211.874 63.1803 212.641 59.4089 212.916 55.6048C213.461 48.1042 211.302 40.7567 208 35C209.862 44.9259 210.861 55.3635 211.178 66Z" fill="#6D8869"/>
<path d="M221.909 18C221.675 20.1744 221.219 22.3064 220.558 24.3109C220.131 25.6048 219.62 26.8477 219.246 28.1699C217.406 34.6648 217.48 42.2157 220.302 48C220.302 48 227.417 34.7554 221.909 18Z" fill="#5C7258"/>
<path d="M231.998 22.4164C232.054 17.1155 230.8 11.9581 229.123 7C227.026 15.626 228.442 33.1209 228.798 32.9994C228.798 32.9994 231.962 25.8287 231.998 22.4164Z" fill="#6D8869"/>
<path d="M233.505 39.0647C236.192 37.4223 238.326 34.4683 240.441 31.8422C242.873 28.8232 245.594 25.8228 249 25C248.714 25.0062 248.421 25.0371 248.133 25.0495C241.089 29.1325 234.639 34.9415 228 39.937C229.918 40.0701 231.847 40.0793 233.505 39.0647Z" fill="#6D8869"/>
<path d="M249 25C243.677 25.2462 237.962 27.2844 234.041 32.327C233.176 33.4365 232.303 34.4058 231.404 35.2909C229.714 36.9551 227.941 38.3326 226 39.8255C227.118 39.7756 228.315 39.9159 229.516 40C235.94 34.9668 242.183 29.1138 249 25Z" fill="#89AD91"/>
<path d="M233 67C242.004 60.3828 246.702 47.4272 254 38C253.051 38.589 252.101 39.1809 251.152 39.7728C244.618 48.6455 237.647 56.843 233 67Z" fill="#6D8869"/>
<path d="M231.346 67.3004C231.604 67.1219 231.844 66.9171 232.093 66.7269C236.677 56.3834 243.554 48.0355 250 39C245.473 41.9143 240.948 44.8228 236.424 47.7342C229.049 52.4802 221.564 57.3227 215.527 64.5295C211.642 69.1643 208.458 74.6681 205.45 80.2685L205 81C211.822 72.4004 222.943 73.1641 231.346 67.3004Z" fill="#596E57"/>
<path d="M212.396 89.9247C206.093 93.1717 197 102 197 102C203.097 97.1687 210.873 100.03 218.012 100.003C227.037 99.9699 235.963 94.7169 242 86C232.294 89.9096 222.454 90.4518 212.396 89.9247Z" fill="#6D8869"/>
<path d="M241.91 86.1433C242.284 85.7713 242.649 85.3909 243 85C239.691 85.2354 236.379 85.4686 233.07 85.704C226.739 86.1517 220.452 86.9524 214.262 88.2238C213.569 88.3667 212.807 88.5937 212 88.8817C222.162 89.2495 232.104 88.8712 241.91 86.1433Z" fill="#5C7258"/>
<path d="M201.213 131.448C212.772 128.172 223.574 120.231 232 109C214.738 114.068 198.615 122.471 187 139C190.406 137.773 197.576 132.477 201.213 131.448Z" fill="#6D8869"/>
<path d="M187.848 138.752C199.229 122.681 215.027 114.511 231.941 109.583C233.741 107.203 235.437 104.672 237 102C231.867 104.255 226.318 103.604 220.942 104.303C220.942 104.303 197.336 109.291 186.328 136.966C185.519 139.003 186.275 139.314 187.848 138.752Z" fill="#89AD91"/>
<path d="M238 134C230.978 134.946 223.955 135.891 216.933 136.834C212.888 137.379 208.647 137.379 204.936 139.477C189.278 148.324 179.432 164.637 177 169C191.733 149.406 213.585 143.52 235.513 136.927C236.346 135.955 237.176 134.978 238 134Z" fill="#6D8869"/>
<path d="M209.286 160.085C220.002 155.972 228.766 146.121 237 136C214.372 143.153 191.823 149.539 176.62 170.798C176.214 171.563 176 172 176 172C185.08 162.389 198.127 164.371 209.286 160.085Z" fill="#5C7258"/>
<path d="M208 181.625L207.746 181C207.497 181.3 207.249 181.725 207 182L208 181.625Z" fill="#6D8869"/>
<path d="M207.537 181.885L206.423 181.933C206.701 181.898 206.976 181.842 207.255 181.803C199.308 179.347 192.163 179.571 185.21 181.358C178.859 185.738 171.853 190.716 171 192C179.55 188.182 190.168 197.569 216.456 182.538C219.739 180.66 223.007 178.567 226 176C220.01 178.908 213.765 180.913 207.255 181.803L207.537 181.885Z" fill="#596E57"/>
<path d="M207.341 181C213.644 180.26 219.689 178.592 225.488 176.174C228.811 173.723 231.782 170.754 234 166.909C224.356 165.006 214.295 166.106 205.116 170.062C201.314 171.702 197.674 173.815 194.04 175.923C192.107 177.047 189.136 178.773 186 180.63C192.731 179.144 199.648 178.957 207.341 181Z" fill="#6D8869"/>
<path d="M205.311 208.644C192.881 208.373 181.575 211.238 170.575 215.742C167.553 219.078 165.81 221.866 165 223.151C166.696 223.83 181.523 228.706 189.216 227.913C194.372 227.384 199.227 224.627 203.907 221.749C213.533 215.828 222.915 209.231 232 202C223.386 206.596 214.261 208.945 205.311 208.644Z" fill="#5C7258"/>
<path d="M204.616 209.564C213.536 209.837 222.63 207.707 231.214 203.54C232.481 202.62 233.744 201.692 235 200.75C228.636 201.572 222.179 202.392 215.862 201.163C212.027 200.415 208.198 198.445 204.358 199.15C186.427 202.436 175.824 210.146 170 216C180.962 211.916 192.229 209.318 204.616 209.564Z" fill="#6D8869"/>
<path d="M156.9 185.369L157.264 185.558C165.757 189.399 169.873 194 169.873 194C170.419 190.674 169.138 187.243 167.329 184.716C165.523 182.191 163.214 180.33 161.137 178.147C155.171 171.879 151.203 163.015 148.763 153.74C146.323 144.461 145.3 134.706 144.38 125C142.879 127.598 141.375 130.217 140 132.924C140.404 141.333 141.281 149.758 142.41 158.07C143.81 170.215 149.864 178.176 156.9 185.369Z" fill="#6D8869"/>
<path d="M135.283 161.443C136.818 166.195 139.672 169.962 142.531 173.496C146.561 178.479 150.842 183.419 156 186C149.097 178.594 143.159 170.396 141.785 157.892C140.678 149.333 139.817 140.659 139.421 132C137.974 134.996 136.673 138.099 135.7 141.405C133.819 147.792 133.248 155.138 135.283 161.443Z" fill="#5C7258"/>
<path d="M161.685 227L161.795 223.427C162.776 216.113 160.125 208.642 156.249 203.148C152.374 197.658 147.368 193.75 142.542 189.686C139.441 187.076 136.354 184.331 133.886 180.771C130.916 176.482 128.976 171.2 127.078 166C126.299 171.671 125.654 177.569 126.207 183.22C140.515 195.967 154.457 207.404 161.685 227Z" fill="#596E57"/>
<path d="M133.8 199.106C137.157 204.831 141.13 209.847 145.541 213.933C151.388 219.35 158.302 223.55 161.876 232L162 227.677C155.073 207.232 141.712 195.3 128 182C128.18 183.985 128.488 185.942 128.967 187.851C130.008 192.004 131.806 195.703 133.8 199.106Z" fill="#6D8869"/>
<path d="M232 229C225.234 229.616 218.469 230.233 211.703 230.849C207.736 231.21 203.753 231.575 199.862 232.64C194.969 233.979 190.305 236.399 185.668 238.81C181.229 241.117 176.79 243.424 172.377 245.805L159 256C162.115 254.017 165.381 252.87 168.747 252.232C187.344 238.864 210.884 239.629 231.556 229.665L232 229Z" fill="#5C7258"/>
<path d="M197.977 252.154C209.946 250.236 221.283 241.751 229 229C208.594 239.597 185.358 238.783 167 253C176.95 250.972 187.771 253.791 197.977 252.154Z" fill="#6D8869"/>
<path d="M120.842 223.998C115.052 224.247 110.118 222.078 105.58 218.569C103.041 217.439 100.707 215.652 99 213C99.9779 217.797 101.033 222.789 103.573 226.508C107.295 231.952 113.291 233.45 118.83 234.632C125.502 236.054 132.174 237.479 138.848 238.904C141.456 239.46 144.026 240.262 146.515 241.423C155.935 245.822 159 256 159 256C158.885 250.65 157.579 245.497 155.461 240.906C145.895 230.202 134.796 222.643 120.842 223.998Z" fill="#6D8869"/>
<path d="M120.298 224.347C134.285 223.013 145.411 230.458 155 241C152.788 236.293 149.692 232.19 146.114 229.123C139.102 223.115 130.477 220.727 122.026 220.604C117.835 220.541 113.62 221.002 109.464 220.314C107.957 220.062 106.446 219.634 105 219C109.549 222.456 114.495 224.593 120.298 224.347Z" fill="#89AD91"/>
<path d="M95 253C95.8565 253.893 96.7317 254.763 97.6023 255.627C99.8988 257.898 102.202 260.177 104.711 262.052C107.727 264.302 111.004 265.944 114.334 267.304C118.563 269.029 122.946 270.317 127.39 270.376C132.167 270.438 136.891 269.076 141.666 268.861C146.442 268.648 151.576 269.792 155 274L154.776 273.127C154.333 271.329 153.702 269.639 152.937 268.05C138.245 263.347 122.171 265.154 106.87 260.321C102.513 258.685 98.5919 256.155 95 253Z" fill="#6D8869"/>
<path d="M95.4407 252.852C99.0712 256.028 103.034 258.574 107.438 260.221C122.904 265.086 139.15 263.266 154 268C151.372 262.569 147.067 258.39 142.37 255.861C136.286 252.588 129.568 251.73 122.961 251.341C116.351 250.956 109.687 251 103.197 249.389C99.583 248.492 95.9856 247.047 92.985 244.355C89.9843 241.666 87.6301 237.597 87.1678 233C86.5049 237.556 87.8755 242.281 90.0575 246.008C91.5767 248.602 93.4615 250.792 95.4407 252.852Z" fill="#5C7258"/>
<path d="M151 301C152.791 299.723 154.582 298.446 156.374 297.169C160.148 294.479 188.319 289.515 188.319 289.515C201.576 285.462 213.686 275.199 222 261C197.788 273.629 171.693 279.536 151.253 299.92C151.162 300.275 151.075 300.636 151 301Z" fill="#6D8869"/>
<path d="M222.834 261.27L223 261C214.118 265.27 204.162 260.5 194.767 262.114C188.488 263.192 182.726 267.078 177.284 271.265C171.405 275.79 165.723 280.741 160.274 286.091C156.446 289.852 152.541 294.183 151 300C171.754 279.716 198.249 273.837 222.834 261.27Z" fill="#89AD91"/>
<path d="M19.3989 749.147C40.5031 745.441 62.7897 749.196 85.0245 750.85C106.694 752.352 128.444 756.927 150 754.093C136.709 747.328 124.515 736.903 110.766 731.836C90.2274 724.26 68.3107 729.331 47.376 734.816C31.5243 738.966 15.7033 743.333 0 748.342C6.43254 746.95 12.9687 747.532 19.3989 749.147Z" fill="#6D8869"/>
<path d="M84.91 748.297C62.9177 746.636 40.8741 742.866 20 746.587C23.6972 747.529 27.3572 748.821 30.9402 750.28C40.683 754.255 50.1672 759.378 60.101 762.435C89.7674 771.557 153 753.417 153 753.417C151.714 752.839 150.442 752.209 149.177 751.553C127.856 754.4 106.343 749.806 84.91 748.297Z" fill="#607B5C"/>
<path d="M18.9529 729.683C16.3379 732.187 13.6947 734.64 11 737C32.145 724.903 55.307 719.024 78.4573 718.258C100.791 717.519 122.474 721.99 144.172 728.284C146.112 728.848 148.042 729.422 150 729.851C146.585 726.671 143.203 723.63 139.514 721.462C101.753 699.807 57.9995 708.848 18.9529 729.683Z" fill="#89AD91"/>
<path d="M139.747 721.614C143.412 723.74 146.771 726.723 150.162 729.842C150.398 729.895 150.635 729.95 150.873 729.998C151.548 730.13 149.317 724.847 149.214 724.632C148.033 722.138 146.796 719.688 145.506 717.285C140.875 708.66 135.578 699.296 128.328 693.936C121.021 688.55 112.73 684.03 104.389 682.069C87.1578 678.017 69.4215 685.982 54.4874 697.576C42.316 707.026 31.4376 718.849 20 729.677C58.7829 709.243 102.241 700.376 139.747 721.614Z" fill="#768D71"/>
<path d="M21.0441 657.528C17.6952 658.999 14.3488 660.469 11 661.94C30.294 669.221 49.8629 676.554 69.8556 676.57C82.5382 676.577 95.1509 673.31 107.829 673.652C123.9 674.085 146 682 146 682C145.716 680.701 145.271 679.531 144.715 678.455C124.794 662.489 101.699 659.102 78.649 657.709C59.5483 655.286 40.047 660.059 21.0441 657.528Z" fill="#6D8869"/>
<path d="M79.2243 657.588C102.522 658.892 125.865 662.061 146 677C144.364 674.061 141.756 671.913 139.27 670.035C131.263 663.978 123.046 658.299 114.386 653.965C95.567 644.548 74.7779 641.715 54.841 645.852C43.8604 648.132 33.2117 652.456 22.6077 656.766C22.071 656.983 21.5367 657.204 21 657.419C40.2072 659.787 59.9182 655.32 79.2243 657.588Z" fill="#607B5C"/>
<path d="M42 632.356C57.3209 635.187 72.7836 637.201 88.1447 635.182C97.6966 633.927 107.052 631.126 116.607 629.867C119.378 629.499 122.191 629.278 125 629.257C97.7865 625.575 69.8282 631.024 42 632.356Z" fill="#6D8869"/>
<path d="M42.8329 632.405C70.2055 630.907 97.7061 624.777 124.474 628.919C131.235 628.859 137.965 630.176 144 634C144 634 113.509 612.706 98.227 610.003C94.1036 609.275 89.9408 608.852 85.7826 609.048C63.2519 610.123 42.4934 629.3 20 627.276C23.7605 628.131 27.5187 628.988 31.2793 629.843C35.1166 630.719 38.9701 631.589 42.8329 632.405Z" fill="#768D71"/>
<path d="M39.852 583.46C56.5847 586.245 79.5334 595.395 97.2883 596.963C101.339 597.321 135.469 594.959 143 595.127C143 595.127 142.493 594.628 141.594 593.778C106.961 584.567 71.995 582.563 37 583.073C37.953 583.183 38.9037 583.301 39.852 583.46Z" fill="#6D8869"/>
<path d="M32 583.439C33.8164 583.538 35.6327 583.673 37.4421 583.891C72.0903 583.362 106.71 585.441 141 595C137.443 591.458 127.545 581.925 117.552 575.077C89.2093 574.221 60.6801 580.726 32 583.439Z" fill="#607B5C"/>
<path d="M119 575.086C114.801 572.41 110.584 570.164 106.798 568.933C97.2294 565.824 87.0127 566.84 77.3171 569.343C67.6216 571.844 58.2334 575.788 48.593 578.571C41.5002 580.621 34.2729 582.037 27 582.807C28.6399 582.858 30.2799 582.915 31.9199 583C61.1123 580.432 90.151 574.276 119 575.086Z" fill="#5C6E5A"/>
<path d="M46.2999 547.993C52.2862 544.862 58.4471 542.1 65.3438 541.814C91.4333 539.515 113.665 553.492 135.458 569.334C137.305 569.888 139.154 570.446 141 571C141 571 122.743 557.381 114.685 550.134C111.911 547.64 109.183 545.043 106.193 542.978C99.0215 538.018 90.7302 536.326 82.5925 535.133C77.2325 534.348 71.833 533.741 66.4451 534.112C61.0013 534.485 55.6391 535.85 50.2954 537.21C42.5303 539.188 34.7652 541.163 27 543.141C33.6056 542.032 39.969 544.944 46.2999 547.993Z" fill="#6D8869"/>
<path d="M66.01 542.251C59.1256 542.539 52.9756 545.325 47 548.481C49.4312 549.664 51.8578 550.864 54.2936 551.867C65.2547 556.374 76.9479 556.848 88.4041 558.451C104.472 560.704 120.27 565.237 136 570C114.245 554.027 92.0532 539.933 66.01 542.251Z" fill="#89AD91"/>
<path d="M56 510.489C58.5697 511.577 61.1769 513.571 62.6246 514.996C66.1899 518.508 69.7881 521.972 73.7821 524.654C82.7328 530.665 92.9438 530.617 102.759 529.243C111.6 528.007 120.988 525.704 130 526.768C106.041 515.829 80.833 507.915 56 510.489Z" fill="#6D8869"/>
<path d="M55.9426 510.114C80.6465 507.478 105.723 515.584 129.558 526.788C131.653 527.043 133.727 527.484 135.768 528.171C137.194 528.654 138.606 529.258 140 530C138.01 528.482 135.931 527.324 133.792 526.221C133.263 525.95 132.736 525.676 132.207 525.405C112.705 515.365 92.6453 502.793 71.1992 504.093C64.2968 504.512 57.448 506.406 51 509.683C52.3469 508.999 54.1343 509.326 55.9426 510.114Z" fill="#6D8869"/>
<path d="M79.7673 485.768C85.2602 487.125 90.5567 489.496 95.8298 491.857C100.294 493.857 104.76 495.859 109.224 497.858C112.04 499.118 114.862 500.381 117.78 501.177C124.665 503.058 137.774 501.079 140 501.415C139.411 500.791 138.821 500.167 138.232 499.545C134.865 499.301 131.491 498.78 128.102 497.711C101.43 486.375 74.7607 475.038 45.3436 484.57C44.9811 484.69 44.621 484.823 44.2609 484.958C41.4057 486.413 38.5552 487.879 35.707 489.36C35.1341 489.725 34.5636 490.096 34 490.473C49.064 486.174 64.6307 482.032 79.7673 485.768Z" fill="#6D8869"/>
<path d="M128.867 498.12C132.256 499.216 135.632 499.75 139 500C131.817 492.21 124.526 484.51 116.376 478.527C107.56 472.052 97.5834 467.632 87.4433 468.024C78.295 468.38 69.5304 472.586 60.9973 476.858C55.6501 479.538 50.3192 482.277 45 485.053C45.3602 484.914 45.7204 484.778 46.083 484.655C75.5092 474.888 102.187 486.504 128.867 498.12Z" fill="#596E57"/>
<path d="M135.024 461.664C136.176 463.006 135.062 463.051 133.946 463.098C135.936 463.015 137.943 463.468 140 464C138.064 459.877 129.005 442.429 111.913 436.86C100.728 433.217 89.1136 431.865 78 428C90.1231 435.615 103.054 441.699 115.702 448.566C122.464 451.064 128.186 456.388 135.024 461.664Z" fill="#536351"/>
<path d="M106.263 453.05C113.312 455.024 119.82 460.275 126.667 463.975C131.112 464.06 135.565 463.924 140 463.616C140 463.616 139.87 463.29 139.611 462.711C137.604 462.168 135.646 461.706 133.704 461.79C134.794 461.742 135.88 461.697 134.756 460.327C128.086 454.942 122.504 449.51 115.907 446.96C103.568 439.952 90.9541 433.744 79.1277 425.973C77.9552 425.544 76.7851 425.098 75.6242 424.603C68.2628 421.476 61.497 416.403 54.7913 411.363C49.6474 407.494 44.3227 403.413 41 397C41.0927 400.607 41.7808 404.189 42.8374 407.687C58.8693 430.21 81.5977 445.264 106.263 453.05Z" fill="#596E57"/>
<path d="M42 409C44.3557 416.431 48.4871 423.464 51.9719 429.448C57.1039 438.259 65.2288 443.647 73.3512 447.109C80.6963 450.24 88.3553 451.995 95.748 454.85C100.604 456.722 105.221 459.417 110.067 461.322C114.515 463.068 118.996 463.62 123.636 463.853C125.088 463.923 126.545 463.971 128 464C120.976 460.385 114.299 455.254 107.068 453.325C81.7636 445.717 58.4469 431.008 42 409Z" fill="#6D8869"/>
<path d="M113.34 415.474C120.607 419.473 128.983 421.89 137.292 420.692C138.235 420.415 139.146 420.112 140 419.766C133.877 415.196 127.753 410.626 121.628 406.057C118.275 403.552 114.884 401.028 111.187 399.609C105.954 397.597 100.401 397.903 94.954 397.697C81.9984 397.217 68.7227 393.505 58 384C71.638 401.371 95.3517 405.576 113.34 415.474Z" fill="#5C7258"/>
<path d="M114.944 414.986C96.8763 405.293 73.0587 401.175 59.3609 384.163C58.5597 383.472 57.7704 382.758 57 382C61.6912 395.212 69.3223 407.031 79.4042 413.477C83.0791 415.826 87.0093 417.43 90.9702 418.801C90.9702 418.801 121.736 425.036 139 420.097C130.655 421.27 122.242 418.902 114.944 414.986Z" fill="#6D8869"/>
<path d="M64.7328 375.463C89.248 374.343 113.677 375.642 136.94 389.832C137.92 390.104 138.95 390.017 140 389.773C133.954 386.062 122.009 377.92 122.009 377.92C112.741 373.11 103.414 368.28 93.6394 365.59C78.1627 361.329 61.7193 362.473 47 355C52.2418 362.694 58.2155 369.59 64.7328 375.463Z" fill="#89AD91"/>
<path d="M137.644 390.268C113.919 375.509 89.0031 374.158 64 375.322C71.9055 382.583 80.6001 388.334 89.8089 392.116C106.764 399.081 143.54 391.122 144 392.041C143.507 391.871 142.325 391.184 140.765 390.206C139.694 390.461 138.644 390.551 137.644 390.268Z" fill="#6D8869"/>
<path d="M150 322.971C148.212 315.239 142.393 310.344 136.88 306.462C132.941 303.692 128.851 301.04 124.414 300.164C120.645 299.417 116.805 299.988 113.005 300.398C95.9601 302.233 78.6996 300.743 62 296C62.8223 298.069 64.3542 299.491 65.8405 300.814C69.8535 304.383 73.9649 307.812 78.1818 310.995C96.2813 312.377 114.93 311.782 132.363 320.063C137.385 321.679 143.753 323.233 150 322.971Z" fill="#6D8869"/>
<path d="M147.632 325.018L150 324.006L149.957 323.863C143.697 324.101 137.318 322.691 132.286 321.225C114.819 313.713 96.1345 314.253 78 313C86.4091 318.743 95.2434 323.578 104.613 326.63C118.689 331.212 134.128 331.534 147.632 325.018Z" fill="#89AD91"/>
<path d="M95.5997 276.491C94.3346 275.749 93.1409 274.909 92 274C96.5612 281.69 102.075 288.168 109.007 291.891C116.561 295.948 124.722 296.209 133 295.913C130.714 295.182 128.471 294.264 126.295 293.111C116.437 288.015 106.576 282.919 95.5997 276.491Z" fill="#6D8869"/>
<path d="M92.966 275.502C104.27 282.286 114.424 287.665 124.577 293.043C126.818 294.26 129.127 295.229 131.482 296C137.991 295.762 144.571 295.179 151 295.771C144.82 287.952 130.764 280.998 130.764 280.998C126.979 279.351 123.03 278.465 119.131 277.372C104.113 273.158 89.0221 265.213 79 250C81.8733 257.902 85.2014 265.863 89.259 272.873C90.4339 273.833 91.6632 274.718 92.966 275.502Z" fill="#596E57"/>
<path d="M208.368 321.19C211.565 319.535 214.785 317.538 218 315.126C209.266 315.743 200.834 311.472 192.189 309.799C184.896 308.388 177.374 308.85 170.227 311.15C166.351 312.395 153.743 319.303 150 321.072C150 321.072 151.499 321.91 154.149 323C172.063 320.547 190.089 322.205 208.368 321.19Z" fill="#6D8869"/>
<path d="M154 323.827C162.852 327.531 184.774 334.183 208 322C189.795 323.025 171.842 321.351 154 323.827Z" fill="#596E57"/>
<path d="M216.295 357C218.538 356.316 220.774 355.66 223 355.122C215.889 355.832 208.607 353.825 202.477 349.467C199.803 347.567 197.341 345.23 194.527 343.639C192.006 342.212 189.265 341.418 186.511 340.878C179.051 339.408 171.353 339.805 164 341.908C167.257 341.793 170.592 342.229 174.049 343.454C188.327 349.098 202.123 355.348 216.295 357Z" fill="#6D8869"/>
<path d="M146 351.242C156.08 350.378 166.516 349.578 175.986 354.047C180.234 356.051 184.176 359.071 188.534 360.647C197.843 364.008 207.458 360.422 217 357.326C202.62 355.54 188.62 348.788 174.131 342.689C170.623 341.366 167.239 340.895 163.934 341.019C158.511 342.674 153.273 345.299 148.451 348.864L146 351.242Z" fill="#6D8869"/>
<path d="M206.314 386.138C209.882 385.926 213.455 386.089 217 386.736C207.856 384.368 199.63 377.806 190.585 374.841C174.882 369.693 158.114 375.925 144 386.314L144.433 386.794C164.915 388.124 186.44 382.431 206.314 386.138Z" fill="#6D8869"/>
<path d="M170.79 395.624C176.608 394.607 182.157 391.607 187.79 389.259C194.041 386.652 200.514 384.839 207 384.413C187.089 380.304 165.521 386.614 145 385.14L148.173 389.054C154.977 394.641 163.027 396.979 170.79 395.624Z" fill="#89AD91"/>
<path d="M160.005 416.76C154.766 419.831 148.948 420.51 143 421.466C152.976 425.862 163.859 423.665 174.247 421.407C179.932 420.169 185.743 418.879 190.806 415.212C194.913 412.237 198.318 407.85 202 404C188.277 404.087 174.24 408.719 160.005 416.76Z" fill="#6D8869"/>
<path d="M158.777 417.413C173.369 409.575 187.758 405.06 201.826 404.975C203.134 403.672 204.473 402.432 205.889 401.338C209.568 398.489 213.725 396.647 218 395.964C196.401 392.157 174.141 399.91 155.473 414.219L141 421.864L141.346 422C147.443 421.069 153.407 420.406 158.777 417.413Z" fill="#596E57"/>
<path d="M214 422C202.779 433.207 189.229 440.638 175.1 443.334C169.108 444.477 162.925 444.814 157.291 447.639C153.674 449.449 150.414 452.23 147.189 454.986C146.791 455.326 146.398 455.663 146 456C168.003 453.092 189.387 448.728 207.45 435.725C209.914 431.376 212.087 426.731 214 422Z" fill="#5C7258"/>
<path d="M151.947 462.505C164.962 463.345 178.643 464.02 190.314 456.51C197.503 451.886 203.289 444.507 208 436C189.901 449.32 168.474 453.79 146.426 456.769C144.286 458.642 142.143 460.512 140 462.383L151.947 462.505Z" fill="#6D8869"/>
<path d="M222.561 488.063C220.591 488.307 219.044 489.144 217.328 489.872L217 490C219.333 489.339 221.667 488.672 224 488.002C223.514 487.994 223.031 488.006 222.561 488.063Z" fill="#6D8869"/>
<path d="M155.021 518.835C172.682 510.675 190.346 502.515 208 494C202.701 495.667 197.284 495.39 191.951 496.489C182.924 498.347 175.19 503.635 167.067 509.017C161.313 512.828 155.616 516.81 150 521C151.655 520.284 153.326 519.563 155.021 518.835Z" fill="#89AD91"/>
<path d="M149.191 521.297C146.117 523.453 143.062 525.648 140.049 527.94L140 527.977C147.331 528.102 154.667 527.718 161.966 526.829C169.421 525.925 176.878 524.479 184.016 521.522C192.168 518.146 199.835 512.799 206.528 505.848C213.281 498.83 220.832 491.955 229 488C227.401 488.67 225.63 488.271 223.915 488.225C221.244 489.468 218.572 490.707 215.901 491.934C213.811 493.31 211.585 494.306 209.31 495.015L208.977 495.103C190.779 503.364 172.572 511.28 154.367 519.196C152.619 519.902 150.897 520.603 149.191 521.297Z" fill="#6D8869"/>
<path d="M222 546.674C214.248 542.826 206.36 539.577 198.206 537.991C189.718 536.341 180.902 536.623 172.619 539.82C166.486 542.188 160.95 546.709 155.92 551.957C151.109 556.975 146.757 564.094 140.515 565.667L140 566.1C140.212 566.394 140.605 566.702 141.165 567C166.714 552.399 195.846 539.817 222 546.674Z" fill="#6D8869"/>
<path d="M190.525 557.441C194.726 555.024 198.851 552.271 203.263 550.664C213.596 546.899 224.551 549.873 235 553.011C230.506 550.573 225.993 548.128 221.43 545.891C195.407 539.149 166.421 551.521 141 565.878C146.377 568.723 167.203 570.85 190.525 557.441Z" fill="#596E57"/>
<path d="M175.273 592.282C166.635 601.549 154.867 602.86 145 609C148.034 607.999 151.066 606.994 154.1 605.993C163.007 603.051 172.25 600.948 180.693 595.926C188.428 591.326 195.27 584.883 202 578C195.326 579.176 188.819 581.401 182.836 585.868C180.67 587.483 177.439 590.664 175.273 592.282Z" fill="#6D8869"/>
<path d="M174.892 592.625C177.061 591.088 180.296 588.066 182.465 586.532C188.456 582.289 194.972 580.175 201.654 579.058C202.272 578.457 202.89 577.859 203.506 577.254C208.929 571.922 215.033 565.068 222 564C213.452 564.724 204.819 565.691 196.619 569.075C187.69 572.763 179.993 580.095 171.431 584.909C163.971 589.103 157.462 594.472 151.043 600.922C148.362 603.615 145.681 606.306 143 609C143.526 608.837 144.053 608.672 144.579 608.506C154.459 602.674 166.243 601.428 174.892 592.625Z" fill="#89AD91"/>
<path d="M148.129 636.997C147.081 638.112 146.038 639.232 145 640.353C145 640.353 172.093 648.773 196.197 627.537C202.773 621.746 208.203 614.055 214 607C204.05 614.387 193.313 619.95 182.561 625.078C171.095 629.826 158.922 631.386 148.129 636.997Z" fill="#5D715C"/>
<path d="M181.733 623.941C192.89 618.753 204.033 613.124 214.358 605.651C217.986 601.346 221.753 597.274 226 594C211.254 605.92 192.109 604.39 175.676 612.099C164.607 617.29 155.128 626.501 146 636C157.201 630.323 169.833 628.745 181.733 623.941Z" fill="#4F5E4D"/>
<path d="M216.597 661.737C221.503 658.952 226.564 656.722 232 656.324C225.047 654.846 218.096 653.37 211.144 651.892C206.772 650.963 202.05 649.623 197.613 650.1C192.861 650.613 188.124 651.533 183.455 652.722C173.626 655.223 164.222 659.239 155.029 664.199C152.099 665.78 148.792 666.915 146 668.746C149.16 669.615 152.324 670.342 155.496 671C176.185 666.824 196.5 661.797 216.597 661.737Z" fill="#89AD91"/>
<path d="M188.043 675.686C193.415 674.995 198.639 673.131 203.863 669.88C207.885 667.375 211.888 664.477 216 662C196.265 662.063 176.317 667.3 156 671.65C162.212 673.014 168.451 674.064 174.713 675.208C179.303 676.045 183.722 676.243 188.043 675.686Z" fill="#5C7258"/>
<path d="M199.012 698.455C183.321 705.915 169.168 718.7 153.476 725.512C152.127 726.854 151.019 727.963 151 727.96C154.265 728.27 174.961 726.963 191.874 716.957C201.245 711.415 210.016 704.23 217.683 695.373L218 695C211.646 695.23 205.309 696.012 199.012 698.455Z" fill="#607B5C"/>
<path d="M199.508 697.029C205.801 694.595 212.134 693.816 218.484 693.586C221.575 690.001 224.555 686.228 227.983 683.186C231.044 680.474 234.437 678.377 238 677C227.199 678.353 216.302 679.737 205.973 683.996C188.339 691.272 173.55 706.272 158.524 719.602C157.743 720.294 155.684 722.327 154 724C169.682 717.21 183.826 704.466 199.508 697.029Z" fill="#6D8869"/>
<path d="M211.576 723.592C193.26 736.104 175.868 750.883 155.109 751.601L153 752.755C170.974 758.155 189.788 753.019 207.388 745.764C214.403 742.87 221.378 739.619 227.818 734.928C234.687 729.923 240.836 723.359 247.479 717.839C251.11 714.821 254.969 712.095 259 710.192C242.997 708.876 226.317 714.433 211.576 723.592Z" fill="#607B5C"/>
<path d="M211.346 724.391C226.056 715.69 242.7 710.41 258.669 711.661C262.005 710.159 265.457 709.195 269 709.062C247.203 707.505 224.533 706.127 204.39 716.758C198.754 719.731 193.443 723.592 188.148 727.441C177.979 734.836 167.811 742.23 157.642 749.625L155 751C175.715 750.318 193.069 736.278 211.346 724.391Z" fill="#4F5E4D"/>
<path d="M193.566 474.182C175.924 480.539 160.243 487.663 143.505 493.725L140 496.158C159.36 498.98 179.29 494.668 196.946 483.836C203.339 479.912 209.581 475.11 216 471.221C208.656 470.569 201.219 471.302 193.566 474.182Z" fill="#6D8869"/>
<path d="M193.139 474.466C200.804 471.439 208.252 470.67 215.608 471.355C221.501 467.607 227.543 464.662 234 464C226.849 464.228 219.699 464.453 212.548 464.678C207.905 464.825 203.253 464.975 198.636 465.699C193.087 466.567 187.624 468.266 182.224 470.236C178.06 471.756 173.926 473.442 169.869 475.438L143 495C159.764 488.63 175.469 481.145 193.139 474.466Z" fill="#5C7258"/>
<path d="M141.342 349.682C120.872 366.587 95.7995 373.364 72 368.422C88.5908 363.687 102.552 347.581 119.315 344.093C123.055 343.312 126.85 343.185 130.633 343.061C135.911 342.887 141.539 342.831 146 346.593L141.342 349.682Z" fill="#596E57"/>
</svg>
