<svg width="369" height="413" viewBox="0 0 369 413" fill="none" xmlns="http://www.w3.org/2000/svg">
<path d="M179.036 241.278C163.423 241.278 148.277 238.22 134.018 232.189C120.246 226.364 107.879 218.026 97.258 207.405C86.6376 196.785 78.2991 184.417 72.4743 170.646C66.443 156.387 63.3851 141.24 63.3851 125.629C63.3851 110.016 66.443 94.8711 72.4743 80.6123C78.2991 66.84 86.6376 54.4733 97.258 43.8528C107.879 33.2323 120.246 24.8931 134.018 19.0682C148.277 13.0359 163.423 9.97884 179.036 9.97884C194.646 9.97884 209.791 13.0359 224.05 19.0682C237.822 24.8931 250.192 33.2323 260.812 43.8528C271.433 54.4733 279.769 66.84 285.594 80.6123C291.626 94.8711 294.683 110.016 294.683 125.629C294.683 141.24 291.626 156.387 285.594 170.646C279.769 184.417 271.433 196.785 260.812 207.405C250.192 218.026 237.822 226.364 224.05 232.189C209.791 238.22 194.646 241.278 179.036 241.278ZM179.036 13.5736C163.906 13.5736 149.232 16.536 135.418 22.3788C122.075 28.0219 110.091 36.1025 99.7997 46.3927C89.5083 56.6855 81.4284 68.6681 75.7848 82.0128C69.9423 95.8261 66.9797 110.5 66.9797 125.629C66.9797 140.756 69.9423 155.432 75.7848 169.245C81.4284 182.588 89.5083 194.572 99.7997 204.863C110.091 215.155 122.075 223.235 135.418 228.878C149.232 234.721 163.906 237.683 179.036 237.683C194.163 237.683 208.836 234.721 222.652 228.878C235.994 223.235 247.977 215.155 258.27 204.863C268.56 194.572 276.64 182.588 282.283 169.245C288.126 155.432 291.089 140.756 291.089 125.629C291.089 110.5 288.126 95.8261 282.283 82.0128C276.64 68.6681 268.56 56.6855 258.27 46.3927C247.977 36.1025 235.994 28.0219 222.652 22.3788C208.836 16.536 194.163 13.5736 179.036 13.5736Z" fill="#4D793E"/>
<path d="M179.036 241.278C163.423 241.278 148.277 238.22 134.018 232.189C120.246 226.364 107.879 218.026 97.258 207.405C86.6376 196.785 78.2991 184.417 72.4743 170.646C66.443 156.387 63.3851 141.24 63.3851 125.629C63.3851 110.016 66.443 94.8711 72.4743 80.6123C78.2991 66.84 86.6376 54.4733 97.258 43.8528C107.879 33.2323 120.246 24.8931 134.018 19.0682C148.277 13.0359 163.423 9.97884 179.036 9.97884C194.646 9.97884 209.791 13.0359 224.05 19.0682C237.822 24.8931 250.192 33.2323 260.812 43.8528C271.433 54.4733 279.769 66.84 285.594 80.6123C291.626 94.8711 294.683 110.016 294.683 125.629C294.683 141.24 291.626 156.387 285.594 170.646C279.769 184.417 271.433 196.785 260.812 207.405C250.192 218.026 237.822 226.364 224.05 232.189C209.791 238.22 194.646 241.278 179.036 241.278ZM179.036 13.5736C163.906 13.5736 149.232 16.536 135.418 22.3788C122.075 28.0219 110.091 36.1025 99.7997 46.3927C89.5083 56.6855 81.4284 68.6681 75.7848 82.0128C69.9423 95.8261 66.9797 110.5 66.9797 125.629C66.9797 140.756 69.9423 155.432 75.7848 169.245C81.4284 182.588 89.5083 194.572 99.7997 204.863C110.091 215.155 122.075 223.235 135.418 228.878C149.232 234.721 163.906 237.683 179.036 237.683C194.163 237.683 208.836 234.721 222.652 228.878C235.994 223.235 247.977 215.155 258.27 204.863C268.56 194.572 276.64 182.588 282.283 169.245C288.126 155.432 291.089 140.756 291.089 125.629C291.089 110.5 288.126 95.8261 282.283 82.0128C276.64 68.6681 268.56 56.6855 258.27 46.3927C247.977 36.1025 235.994 28.0219 222.652 22.3788C208.836 16.536 194.163 13.5736 179.036 13.5736Z" fill="#4D793E"/>
<path d="M179.036 251.256C162.077 251.256 145.625 247.934 130.135 241.383C122.691 238.234 115.511 234.337 108.795 229.799C102.143 225.305 95.8882 220.145 90.2035 214.46C84.519 208.776 79.3581 202.521 74.8645 195.869C70.327 189.153 66.4299 181.973 63.2811 174.528C56.7297 159.04 53.4079 142.587 53.4079 125.627C53.4079 108.668 56.7297 92.2177 63.2811 76.7266C66.4299 69.2839 70.327 62.1033 74.8645 55.3867C79.3581 48.7357 84.519 42.4805 90.2035 36.7943C95.8882 31.1106 102.143 25.9513 108.795 21.4553C115.511 16.9199 122.691 13.0215 130.135 9.87297C145.625 3.32156 162.077 0 179.036 0C195.995 0 212.449 3.32156 227.937 9.87297C235.38 13.0215 242.56 16.9199 249.277 21.4553C255.928 25.9513 262.183 31.1106 267.869 36.7943C273.553 42.4805 278.715 48.7357 283.208 55.3867C287.744 62.1033 291.642 69.2839 294.791 76.7266C301.342 92.2177 304.664 108.668 304.664 125.627C304.664 142.587 301.342 159.04 294.791 174.528C291.642 181.973 287.744 189.153 283.208 195.869C278.715 202.521 273.553 208.776 267.869 214.46C262.183 220.145 255.928 225.305 249.277 229.799C242.56 234.337 235.38 238.234 227.937 241.383C212.449 247.934 195.995 251.256 179.036 251.256ZM179.036 3.59421C162.561 3.59421 146.579 6.82144 131.536 13.1841C124.305 16.2409 117.331 20.0265 110.807 24.436C104.345 28.801 98.2681 33.8135 92.7454 39.3372C87.2227 44.861 82.2089 50.9379 77.8429 57.4001C73.4357 63.9227 69.6501 70.8961 66.592 78.1265C60.2291 93.172 57.0026 109.153 57.0026 125.627C57.0026 142.104 60.2291 158.086 66.592 173.128C69.6501 180.359 73.4357 187.333 77.8429 193.857C82.2089 200.319 87.2227 206.396 92.7454 211.919C98.2681 217.441 104.345 222.455 110.807 226.821C117.331 231.228 124.305 235.014 131.536 238.072C146.579 244.435 162.561 247.661 179.036 247.661C195.51 247.661 211.492 244.435 226.537 238.072C233.767 235.014 240.741 231.228 247.263 226.821C253.726 222.455 259.803 217.441 265.326 211.919C270.85 206.396 275.863 200.319 280.23 193.857C284.637 187.333 288.423 180.359 291.48 173.128C297.842 158.086 301.069 142.104 301.069 125.627C301.069 109.153 297.842 93.172 291.48 78.1265C288.423 70.8961 284.637 63.9227 280.23 57.4001C275.863 50.9379 270.85 44.861 265.326 39.3372C259.803 33.8135 253.726 28.801 247.263 24.436C240.741 20.0265 233.767 16.2409 226.537 13.1841C211.492 6.82144 195.51 3.59421 179.036 3.59421Z" fill="#596E57"/>
<path d="M179.036 251.256C162.077 251.256 145.625 247.934 130.135 241.383C122.691 238.234 115.511 234.337 108.795 229.799C102.143 225.305 95.8882 220.145 90.2035 214.46C84.519 208.776 79.3581 202.521 74.8645 195.869C70.327 189.153 66.4299 181.973 63.2811 174.528C56.7297 159.04 53.4079 142.587 53.4079 125.627C53.4079 108.668 56.7297 92.2177 63.2811 76.7266C66.4299 69.2839 70.327 62.1033 74.8645 55.3867C79.3581 48.7357 84.519 42.4805 90.2035 36.7943C95.8882 31.1106 102.143 25.9513 108.795 21.4553C115.511 16.9199 122.691 13.0215 130.135 9.87297C145.625 3.32156 162.077 0 179.036 0C195.995 0 212.449 3.32156 227.937 9.87297C235.38 13.0215 242.56 16.9199 249.277 21.4553C255.928 25.9513 262.183 31.1106 267.869 36.7943C273.553 42.4805 278.715 48.7357 283.208 55.3867C287.744 62.1033 291.642 69.2839 294.791 76.7266C301.342 92.2177 304.664 108.668 304.664 125.627C304.664 142.587 301.342 159.04 294.791 174.528C291.642 181.973 287.744 189.153 283.208 195.869C278.715 202.521 273.553 208.776 267.869 214.46C262.183 220.145 255.928 225.305 249.277 229.799C242.56 234.337 235.38 238.234 227.937 241.383C212.449 247.934 195.995 251.256 179.036 251.256ZM179.036 3.59421C162.561 3.59421 146.579 6.82144 131.536 13.1841C124.305 16.2409 117.331 20.0265 110.807 24.436C104.345 28.801 98.2681 33.8135 92.7454 39.3372C87.2227 44.861 82.2089 50.9379 77.8429 57.4001C73.4357 63.9227 69.6501 70.8961 66.592 78.1265C60.2291 93.172 57.0026 109.153 57.0026 125.627C57.0026 142.104 60.2291 158.086 66.592 173.128C69.6501 180.359 73.4357 187.333 77.8429 193.857C82.2089 200.319 87.2227 206.396 92.7454 211.919C98.2681 217.441 104.345 222.455 110.807 226.821C117.331 231.228 124.305 235.014 131.536 238.072C146.579 244.435 162.561 247.661 179.036 247.661C195.51 247.661 211.492 244.435 226.537 238.072C233.767 235.014 240.741 231.228 247.263 226.821C253.726 222.455 259.803 217.441 265.326 211.919C270.85 206.396 275.863 200.319 280.23 193.857C284.637 187.333 288.423 180.359 291.48 173.128C297.842 158.086 301.069 142.104 301.069 125.627C301.069 109.153 297.842 93.172 291.48 78.1265C288.423 70.8961 284.637 63.9227 280.23 57.4001C275.863 50.9379 270.85 44.861 265.326 39.3372C259.803 33.8135 253.726 28.801 247.263 24.436C240.741 20.0265 233.767 16.2409 226.537 13.1841C211.492 6.82144 195.51 3.59421 179.036 3.59421Z" fill="#596E57"/>
<path d="M233.626 111.427C233.291 111.427 232.95 111.332 232.647 111.136C231.815 110.595 231.579 109.481 232.12 108.649C239.199 97.7709 242.079 86.5103 240.685 75.18C239.239 63.4249 233.529 54.3632 228.992 48.8322C222.984 41.5023 214.506 35.4794 204.476 31.4169C195.709 27.8663 185.977 25.9108 177.074 25.9108C173.578 25.9108 170.052 26.0922 166.599 26.4525C165.61 26.5568 164.725 25.8387 164.623 24.8523C164.521 23.8659 165.237 22.9813 166.224 22.8795C169.804 22.5043 173.454 22.3154 177.074 22.3154C186.429 22.3154 196.639 24.3653 205.825 28.0849C216.412 32.3735 225.384 38.7592 231.772 46.5537C236.61 52.4524 242.7 62.1304 244.253 74.7402C244.964 80.5122 244.633 86.3512 243.272 92.0934C241.786 98.3648 239.048 104.594 235.134 110.609C234.789 111.139 234.212 111.427 233.626 111.427Z" fill="#4D793E"/>
<path d="M233.626 111.427C233.291 111.427 232.95 111.332 232.647 111.136C231.815 110.595 231.579 109.481 232.12 108.649C239.199 97.7709 242.079 86.5103 240.685 75.18C239.239 63.4249 233.529 54.3632 228.992 48.8322C222.984 41.5023 214.506 35.4794 204.476 31.4169C195.709 27.8663 185.977 25.9108 177.074 25.9108C173.578 25.9108 170.052 26.0922 166.599 26.4525C165.61 26.5568 164.725 25.8387 164.623 24.8523C164.521 23.8659 165.237 22.9813 166.224 22.8795C169.804 22.5043 173.454 22.3154 177.074 22.3154C186.429 22.3154 196.639 24.3653 205.825 28.0849C216.412 32.3735 225.384 38.7592 231.772 46.5537C236.61 52.4524 242.7 62.1304 244.253 74.7402C244.964 80.5122 244.633 86.3512 243.272 92.0934C241.786 98.3648 239.048 104.594 235.134 110.609C234.789 111.139 234.212 111.427 233.626 111.427Z" fill="#4D793E"/>
<path d="M177.072 228.941C174.791 228.941 172.483 228.865 170.214 228.717C169.222 228.652 168.473 227.796 168.538 226.806C168.602 225.815 169.46 225.068 170.447 225.13C172.639 225.273 174.869 225.346 177.072 225.346C190.536 225.346 203.595 222.71 215.887 217.51C227.76 212.488 238.426 205.298 247.583 196.14C256.742 186.98 263.932 176.316 268.954 164.441C274.154 152.149 276.79 139.09 276.79 125.628C276.79 117.742 275.867 109.893 274.047 102.297C272.277 94.917 269.65 87.7315 266.241 80.9398C265.796 80.0536 266.154 78.9729 267.04 78.5263C267.928 78.0821 269.007 78.4393 269.453 79.3278C272.987 86.3645 275.709 93.8111 277.543 101.459C279.428 109.329 280.385 117.461 280.385 125.628C280.385 139.574 277.653 153.104 272.265 165.843C267.063 178.146 259.614 189.194 250.125 198.681C240.638 208.169 229.589 215.618 217.286 220.821C204.55 226.209 191.019 228.941 177.072 228.941Z" fill="#4D793E"/>
<path d="M177.072 228.941C174.791 228.941 172.483 228.865 170.214 228.717C169.222 228.652 168.473 227.796 168.538 226.806C168.602 225.815 169.46 225.068 170.447 225.13C172.639 225.273 174.869 225.346 177.072 225.346C190.536 225.346 203.595 222.71 215.887 217.51C227.76 212.488 238.426 205.298 247.583 196.14C256.742 186.98 263.932 176.316 268.954 164.441C274.154 152.149 276.79 139.09 276.79 125.628C276.79 117.742 275.867 109.893 274.047 102.297C272.277 94.917 269.65 87.7315 266.241 80.9398C265.796 80.0536 266.154 78.9729 267.04 78.5263C267.928 78.0821 269.007 78.4393 269.453 79.3278C272.987 86.3645 275.709 93.8111 277.543 101.459C279.428 109.329 280.385 117.461 280.385 125.628C280.385 139.574 277.653 153.104 272.265 165.843C267.063 178.146 259.614 189.194 250.125 198.681C240.638 208.169 229.589 215.618 217.286 220.821C204.55 226.209 191.019 228.941 177.072 228.941Z" fill="#4D793E"/>
<path d="M122.811 174.631C118.094 174.631 112.275 173.077 106.462 170.189C98.015 165.99 90.7663 159.58 86.0519 152.14C83.5907 148.254 81.8088 144.088 80.7556 139.758C79.6028 135.021 79.3159 130.045 79.9029 124.973C81.2222 113.569 86.9267 101.574 96.8575 89.3255C97.4829 88.5546 98.6146 88.4362 99.3856 89.0616C100.157 89.687 100.275 90.8194 99.6497 91.5902C90.1557 103.298 84.7135 114.67 83.4737 125.387C82.4373 134.346 84.3264 142.698 89.0886 150.216C97.7415 163.873 113.639 171.037 122.832 171.037C123.972 171.037 125.011 170.927 125.919 170.704C129.613 169.798 132.913 168.219 135.458 166.131C137.785 164.222 139.462 161.922 140.304 159.48C141.513 155.977 140.925 152.453 138.648 149.561C136.323 146.605 133.43 145.811 131.415 145.668C128.288 145.441 124.955 146.625 122.72 148.755C120.706 150.673 119.794 153.551 120.341 156.266C120.796 158.516 122.127 160.216 123.997 160.926C124.926 161.278 125.394 162.317 125.04 163.245C124.687 164.172 123.648 164.639 122.722 164.286C119.717 163.146 117.511 160.411 116.817 156.977C116.017 153.002 117.297 148.957 120.241 146.152C123.231 143.305 127.505 141.782 131.673 142.081C135.602 142.364 138.99 144.182 141.473 147.338C143.011 149.293 143.977 151.471 144.347 153.812C144.704 156.075 144.488 158.375 143.703 160.652C141.486 167.081 135.157 172.144 126.773 174.195C125.576 174.488 124.245 174.631 122.811 174.631Z" fill="#4D793E"/>
<path d="M122.811 174.631C118.094 174.631 112.275 173.077 106.462 170.189C98.015 165.99 90.7663 159.58 86.0519 152.14C83.5907 148.254 81.8088 144.088 80.7556 139.758C79.6028 135.021 79.3159 130.045 79.9029 124.973C81.2222 113.569 86.9267 101.574 96.8575 89.3255C97.4829 88.5546 98.6146 88.4362 99.3856 89.0616C100.157 89.687 100.275 90.8194 99.6497 91.5902C90.1557 103.298 84.7135 114.67 83.4737 125.387C82.4373 134.346 84.3264 142.698 89.0886 150.216C97.7415 163.873 113.639 171.037 122.832 171.037C123.972 171.037 125.011 170.927 125.919 170.704C129.613 169.798 132.913 168.219 135.458 166.131C137.785 164.222 139.462 161.922 140.304 159.48C141.513 155.977 140.925 152.453 138.648 149.561C136.323 146.605 133.43 145.811 131.415 145.668C128.288 145.441 124.955 146.625 122.72 148.755C120.706 150.673 119.794 153.551 120.341 156.266C120.796 158.516 122.127 160.216 123.997 160.926C124.926 161.278 125.394 162.317 125.04 163.245C124.687 164.172 123.648 164.639 122.722 164.286C119.717 163.146 117.511 160.411 116.817 156.977C116.017 153.002 117.297 148.957 120.241 146.152C123.231 143.305 127.505 141.782 131.673 142.081C135.602 142.364 138.99 144.182 141.473 147.338C143.011 149.293 143.977 151.471 144.347 153.812C144.704 156.075 144.488 158.375 143.703 160.652C141.486 167.081 135.157 172.144 126.773 174.195C125.576 174.488 124.245 174.631 122.811 174.631Z" fill="#4D793E"/>
<path d="M81.1447 131.776C80.3115 131.776 79.5639 131.195 79.3872 130.347C76.9148 118.495 77.1317 106.54 80.032 94.8163C82.7435 83.852 87.7033 73.4152 94.7729 63.7967C101.568 54.5481 109.969 46.5023 119.742 39.8813C129.52 33.2579 140.098 28.4487 151.182 25.5869C152.143 25.3404 153.123 25.9171 153.371 26.8785C153.62 27.8398 153.041 28.8209 152.08 29.0674C130.65 34.5989 110.818 48.0331 97.6696 65.924C90.8797 75.1628 86.1196 85.1757 83.5214 95.679C80.7518 106.875 80.5447 118.293 82.9059 129.612C83.1086 130.583 82.4854 131.537 81.5135 131.739C81.3897 131.764 81.2662 131.776 81.1447 131.776Z" fill="#4D793E"/>
<path d="M81.1447 131.776C80.3115 131.776 79.5639 131.195 79.3872 130.347C76.9148 118.495 77.1317 106.54 80.032 94.8163C82.7435 83.852 87.7033 73.4152 94.7729 63.7967C101.568 54.5481 109.969 46.5023 119.742 39.8813C129.52 33.2579 140.098 28.4487 151.182 25.5869C152.143 25.3404 153.123 25.9171 153.371 26.8785C153.62 27.8398 153.041 28.8209 152.08 29.0674C130.65 34.5989 110.818 48.0331 97.6696 65.924C90.8797 75.1628 86.1196 85.1757 83.5214 95.679C80.7518 106.875 80.5447 118.293 82.9059 129.612C83.1086 130.583 82.4854 131.537 81.5135 131.739C81.3897 131.764 81.2662 131.776 81.1447 131.776Z" fill="#4D793E"/>
<path d="M125.859 133.113C123.74 133.113 121.405 132.756 119.001 131.765C110.842 128.398 105.257 118.997 105.023 118.601C104.738 118.115 104.697 117.525 104.912 117.005C105.127 116.486 105.572 116.096 106.116 115.953C106.563 115.834 117.15 113.109 125.311 116.474C133.728 119.948 136.076 128.364 136.172 128.72C136.383 129.506 136.042 130.335 135.338 130.743C135.11 130.875 131.164 133.113 125.859 133.113ZM109.556 118.919C111.567 121.703 115.528 126.442 120.373 128.442C125.295 130.473 129.96 129.155 132.182 128.262C131.228 126.059 128.831 121.816 123.94 119.799C119.081 117.793 112.94 118.363 109.556 118.919Z" fill="#4D793E"/>
<path d="M125.859 133.113C123.74 133.113 121.405 132.756 119.001 131.765C110.842 128.398 105.257 118.997 105.023 118.601C104.738 118.115 104.697 117.525 104.912 117.005C105.127 116.486 105.572 116.096 106.116 115.953C106.563 115.834 117.15 113.109 125.311 116.474C133.728 119.948 136.076 128.364 136.172 128.72C136.383 129.506 136.042 130.335 135.338 130.743C135.11 130.875 131.164 133.113 125.859 133.113ZM109.556 118.919C111.567 121.703 115.528 126.442 120.373 128.442C125.295 130.473 129.96 129.155 132.182 128.262C131.228 126.059 128.831 121.816 123.94 119.799C119.081 117.793 112.94 118.363 109.556 118.919Z" fill="#4D793E"/>
<path d="M141.397 204.162C137.245 204.162 133.041 203.213 129.018 201.346C124.798 199.389 122.255 197.114 122.147 197.018C121.544 196.473 121.382 195.591 121.751 194.867C121.816 194.74 123.38 191.707 126.622 188.37C130.927 183.94 136.203 181.046 141.879 179.997C147.543 178.952 154.197 179.545 161.658 181.763C167.164 183.399 171.002 185.317 171.163 185.398C171.665 185.652 172.02 186.125 172.122 186.678C172.225 187.231 172.062 187.8 171.683 188.214C171.561 188.348 168.663 191.511 164.104 195.005C157.927 199.741 151.923 202.673 146.259 203.718C144.657 204.014 143.031 204.162 141.397 204.162ZM125.702 195.249C126.737 196.007 128.439 197.125 130.641 198.137C135.601 200.413 140.635 201.102 145.607 200.184C149.101 199.538 154.758 197.628 161.862 192.194C164.139 190.453 165.999 188.777 167.253 187.577C165.653 186.904 163.318 186.003 160.569 185.189C155.835 183.787 148.863 182.363 142.531 183.532C137.56 184.451 133.104 186.892 129.285 190.79C127.589 192.519 126.399 194.171 125.702 195.249Z" fill="#4D793E"/>
<path d="M141.397 204.162C137.245 204.162 133.041 203.213 129.018 201.346C124.798 199.389 122.255 197.114 122.147 197.018C121.544 196.473 121.382 195.591 121.751 194.867C121.816 194.74 123.38 191.707 126.622 188.37C130.927 183.94 136.203 181.046 141.879 179.997C147.543 178.952 154.197 179.545 161.658 181.763C167.164 183.399 171.002 185.317 171.163 185.398C171.665 185.652 172.02 186.125 172.122 186.678C172.225 187.231 172.062 187.8 171.683 188.214C171.561 188.348 168.663 191.511 164.104 195.005C157.927 199.741 151.923 202.673 146.259 203.718C144.657 204.014 143.031 204.162 141.397 204.162ZM125.702 195.249C126.737 196.007 128.439 197.125 130.641 198.137C135.601 200.413 140.635 201.102 145.607 200.184C149.101 199.538 154.758 197.628 161.862 192.194C164.139 190.453 165.999 188.777 167.253 187.577C165.653 186.904 163.318 186.003 160.569 185.189C155.835 183.787 148.863 182.363 142.531 183.532C137.56 184.451 133.104 186.892 129.285 190.79C127.589 192.519 126.399 194.171 125.702 195.249Z" fill="#4D793E"/>
<path d="M147.531 89.9466C146.908 89.9466 146.318 89.6227 145.989 89.0713C145.929 88.9725 144.535 86.611 143.758 83.041C142.725 78.2903 143.262 73.5855 145.314 69.4367C150.097 59.7652 162.743 53.3398 163.278 53.071C163.765 52.8252 164.335 52.816 164.831 53.0411C165.325 53.2686 165.69 53.705 165.826 54.2334C165.964 54.7756 169.152 67.6264 164.342 77.3553C159.444 87.2565 148.387 89.8018 147.919 89.9052C147.79 89.9328 147.659 89.9466 147.531 89.9466ZM162.803 57.4519C159.15 59.6228 151.695 64.64 148.534 71.0309C146.844 74.4539 146.407 78.1961 147.243 82.1566C147.586 83.7784 148.084 85.1131 148.475 86.0068C149.495 85.6691 151.002 85.0902 152.658 84.1873C156.559 82.0601 159.407 79.2253 161.119 75.761C164.22 69.4918 163.446 61.3779 162.803 57.4519ZM162.729 76.5582H162.731H162.729Z" fill="#4D793E"/>
<path d="M147.531 89.9466C146.908 89.9466 146.318 89.6227 145.989 89.0713C145.929 88.9725 144.535 86.611 143.758 83.041C142.725 78.2903 143.262 73.5855 145.314 69.4367C150.097 59.7652 162.743 53.3398 163.278 53.071C163.765 52.8252 164.335 52.816 164.831 53.0411C165.325 53.2686 165.69 53.705 165.826 54.2334C165.964 54.7756 169.152 67.6264 164.342 77.3553C159.444 87.2565 148.387 89.8018 147.919 89.9052C147.79 89.9328 147.659 89.9466 147.531 89.9466ZM162.803 57.4519C159.15 59.6228 151.695 64.64 148.534 71.0309C146.844 74.4539 146.407 78.1961 147.243 82.1566C147.586 83.7784 148.084 85.1131 148.475 86.0068C149.495 85.6691 151.002 85.0902 152.658 84.1873C156.559 82.0601 159.407 79.2253 161.119 75.761C164.22 69.4918 163.446 61.3779 162.803 57.4519ZM162.729 76.5582H162.731H162.729Z" fill="#4D793E"/>
<path d="M251.368 83.3645C250.949 83.3645 250.534 83.2206 250.2 82.935C249.962 82.7339 244.403 77.8922 244.808 70.224C245.196 62.8323 251.059 55.8176 251.308 55.5229C251.669 55.0933 252.211 54.858 252.775 54.8877C253.337 54.9174 253.851 55.2098 254.167 55.6737C254.384 55.9936 259.474 63.5863 259.084 70.9757C258.679 78.6462 252.64 82.8733 252.384 83.0492C252.076 83.2617 251.722 83.3645 251.368 83.3645ZM252.51 59.9442C250.908 62.3273 248.607 66.4059 248.397 70.4136C248.182 74.4808 250.195 77.5631 251.491 79.1055C252.94 77.698 255.282 74.8258 255.494 70.7884L257.29 70.8821L255.494 70.7884C255.707 66.7669 253.851 62.4781 252.51 59.9442Z" fill="#4D793E"/>
<path d="M251.368 83.3645C250.949 83.3645 250.534 83.2206 250.2 82.935C249.962 82.7339 244.403 77.8922 244.808 70.224C245.196 62.8323 251.059 55.8176 251.308 55.5229C251.669 55.0933 252.211 54.858 252.775 54.8877C253.337 54.9174 253.851 55.2098 254.167 55.6737C254.384 55.9936 259.474 63.5863 259.084 70.9757C258.679 78.6462 252.64 82.8733 252.384 83.0492C252.076 83.2617 251.722 83.3645 251.368 83.3645ZM252.51 59.9442C250.908 62.3273 248.607 66.4059 248.397 70.4136C248.182 74.4808 250.195 77.5631 251.491 79.1055C252.94 77.698 255.282 74.8258 255.494 70.7884L257.29 70.8821L255.494 70.7884C255.707 66.7669 253.851 62.4781 252.51 59.9442Z" fill="#4D793E"/>
<path d="M214.432 83.16C209.226 83.16 202.658 82.1876 196.057 78.6298C189.348 75.0136 182.903 68.985 176.903 60.71C172.459 54.5856 169.988 49.5668 169.885 49.3564C169.63 48.8351 169.644 48.2227 169.918 47.7131C170.194 47.2035 170.696 46.8576 171.271 46.7828C171.505 46.7547 177.055 46.0581 184.614 46.3994C194.827 46.8646 203.406 48.931 210.112 52.5472C218.567 57.1031 223.448 63.9429 226.054 68.8775C228.878 74.2235 229.708 78.4896 229.743 78.6696C229.9 79.5041 229.453 80.3363 228.668 80.6612C228.5 80.7313 224.481 82.384 218.464 82.966C217.247 83.0829 215.893 83.16 214.432 83.16ZM174.366 50.1115C175.495 52.1218 177.363 55.2284 179.853 58.6553C186.917 68.3772 193.49 73.1623 197.761 75.4648C209.752 81.9258 221.763 79.1231 225.835 77.8491C225.379 76.2549 224.463 73.5339 222.819 70.446C219.367 63.9616 214.519 59.0059 208.408 55.7099C196.587 49.3401 180.598 49.6813 174.366 50.1115Z" fill="#4D793E"/>
<path d="M214.432 83.16C209.226 83.16 202.658 82.1876 196.057 78.6298C189.348 75.0136 182.903 68.985 176.903 60.71C172.459 54.5856 169.988 49.5668 169.885 49.3564C169.63 48.8351 169.644 48.2227 169.918 47.7131C170.194 47.2035 170.696 46.8576 171.271 46.7828C171.505 46.7547 177.055 46.0581 184.614 46.3994C194.827 46.8646 203.406 48.931 210.112 52.5472C218.567 57.1031 223.448 63.9429 226.054 68.8775C228.878 74.2235 229.708 78.4896 229.743 78.6696C229.9 79.5041 229.453 80.3363 228.668 80.6612C228.5 80.7313 224.481 82.384 218.464 82.966C217.247 83.0829 215.893 83.16 214.432 83.16ZM174.366 50.1115C175.495 52.1218 177.363 55.2284 179.853 58.6553C186.917 68.3772 193.49 73.1623 197.761 75.4648C209.752 81.9258 221.763 79.1231 225.835 77.8491C225.379 76.2549 224.463 73.5339 222.819 70.446C219.367 63.9616 214.519 59.0059 208.408 55.7099C196.587 49.3401 180.598 49.6813 174.366 50.1115Z" fill="#4D793E"/>
<path d="M139.731 166.282C139.372 166.282 139.009 166.175 138.692 165.953C137.884 165.378 137.691 164.257 138.266 163.447C142.205 157.885 142.611 151.792 142.259 147.659C141.778 141.997 139.71 137.52 137.938 135.22C132.968 128.775 127.834 127.474 122.396 126.095C122.027 126.001 121.659 125.908 121.29 125.812C120.328 125.565 119.75 124.585 119.999 123.625C120.246 122.663 121.226 122.084 122.186 122.331C122.551 122.427 122.916 122.519 123.279 122.61C129.069 124.079 135.056 125.595 140.785 133.025C145.71 139.414 149.247 154.161 141.198 165.524C140.848 166.018 140.294 166.282 139.731 166.282Z" fill="#4D793E"/>
<path d="M139.731 166.282C139.372 166.282 139.009 166.175 138.692 165.953C137.884 165.378 137.691 164.257 138.266 163.447C142.205 157.885 142.611 151.792 142.259 147.659C141.778 141.997 139.71 137.52 137.938 135.22C132.968 128.775 127.834 127.474 122.396 126.095C122.027 126.001 121.659 125.908 121.29 125.812C120.328 125.565 119.75 124.585 119.999 123.625C120.246 122.663 121.226 122.084 122.186 122.331C122.551 122.427 122.916 122.519 123.279 122.61C129.069 124.079 135.056 125.595 140.785 133.025C145.71 139.414 149.247 154.161 141.198 165.524C140.848 166.018 140.294 166.282 139.731 166.282Z" fill="#4D793E"/>
<path d="M81.1486 131.776C80.5883 131.776 80.0362 131.515 79.6854 131.025C79.1079 130.219 79.294 129.094 80.1013 128.518C80.1688 128.468 86.966 123.59 95.8117 115.946C103.953 108.914 115.546 98.0306 124.543 86.1296C133.847 73.8243 140.239 58.3934 143.962 47.614C148.006 35.9102 149.853 27.0535 149.871 26.9647C150.072 25.991 151.023 25.3674 151.995 25.567C152.967 25.7667 153.592 26.7182 153.392 27.6919C153.316 28.0592 151.479 36.8666 147.36 48.7873C144.94 55.7928 142.235 62.404 139.318 68.4358C135.659 76.0058 131.652 82.6884 127.41 88.2988C118.215 100.461 106.412 111.541 98.1302 118.695C89.1663 126.437 82.2613 131.392 82.1926 131.441C81.8758 131.668 81.5105 131.776 81.1486 131.776Z" fill="#4D793E"/>
<path d="M81.1486 131.776C80.5883 131.776 80.0362 131.515 79.6854 131.025C79.1079 130.219 79.294 129.094 80.1013 128.518C80.1688 128.468 86.966 123.59 95.8117 115.946C103.953 108.914 115.546 98.0306 124.543 86.1296C133.847 73.8243 140.239 58.3934 143.962 47.614C148.006 35.9102 149.853 27.0535 149.871 26.9647C150.072 25.991 151.023 25.3674 151.995 25.567C152.967 25.7667 153.592 26.7182 153.392 27.6919C153.316 28.0592 151.479 36.8666 147.36 48.7873C144.94 55.7928 142.235 62.404 139.318 68.4358C135.659 76.0058 131.652 82.6884 127.41 88.2988C118.215 100.461 106.412 111.541 98.1302 118.695C89.1663 126.437 82.2613 131.392 82.1926 131.441C81.8758 131.668 81.5105 131.776 81.1486 131.776Z" fill="#4D793E"/>
<path d="M258.991 186.928C258.609 186.928 258.222 186.808 257.897 186.556C250.282 180.698 244.406 173.759 240.43 165.926C236.68 158.538 234.781 150.712 234.781 142.661C234.781 135.402 236.467 127.516 239.796 119.222C242.434 112.644 246.108 105.789 250.716 98.8483C258.54 87.0589 266.244 79.1993 266.569 78.8701C267.265 78.1629 268.403 78.1562 269.111 78.8524C269.818 79.5485 269.825 80.6872 269.128 81.3944C269.051 81.4722 261.307 89.3763 253.672 100.892C249.21 107.622 245.659 114.252 243.116 120.595C239.969 128.45 238.375 135.874 238.375 142.661C238.375 150.14 240.145 157.422 243.637 164.298C247.369 171.649 252.902 178.178 260.088 183.707C260.875 184.312 261.022 185.44 260.417 186.227C260.063 186.687 259.53 186.928 258.991 186.928Z" fill="#4D793E"/>
<path d="M258.991 186.928C258.609 186.928 258.222 186.808 257.897 186.556C250.282 180.698 244.406 173.759 240.43 165.926C236.68 158.538 234.781 150.712 234.781 142.661C234.781 135.402 236.467 127.516 239.796 119.222C242.434 112.644 246.108 105.789 250.716 98.8483C258.54 87.0589 266.244 79.1993 266.569 78.8701C267.265 78.1629 268.403 78.1562 269.111 78.8524C269.818 79.5485 269.825 80.6872 269.128 81.3944C269.051 81.4722 261.307 89.3763 253.672 100.892C249.21 107.622 245.659 114.252 243.116 120.595C239.969 128.45 238.375 135.874 238.375 142.661C238.375 150.14 240.145 157.422 243.637 164.298C247.369 171.649 252.902 178.178 260.088 183.707C260.875 184.312 261.022 185.44 260.417 186.227C260.063 186.687 259.53 186.928 258.991 186.928Z" fill="#4D793E"/>
<path d="M258.99 186.929C258.754 186.929 258.511 186.882 258.28 186.782C257.369 186.388 256.948 185.33 257.342 184.419C260.52 177.057 263.135 167.459 264.7 157.389C266.722 144.388 267.079 130.757 265.756 116.876C265.662 115.89 266.386 115.012 267.375 114.916C268.361 114.823 269.241 115.549 269.334 116.535C270.684 130.714 270.321 144.644 268.252 157.941C266.64 168.303 263.939 178.213 260.643 185.844C260.349 186.524 259.687 186.929 258.99 186.929Z" fill="#4D793E"/>
<path d="M258.99 186.929C258.754 186.929 258.511 186.882 258.28 186.782C257.369 186.388 256.948 185.33 257.342 184.419C260.52 177.057 263.135 167.459 264.7 157.389C266.722 144.388 267.079 130.757 265.756 116.876C265.662 115.89 266.386 115.012 267.375 114.916C268.361 114.823 269.241 115.549 269.334 116.535C270.684 130.714 270.321 144.644 268.252 157.941C266.64 168.303 263.939 178.213 260.643 185.844C260.349 186.524 259.687 186.929 258.99 186.929Z" fill="#4D793E"/>
<path d="M170.333 228.721C169.856 228.721 169.381 228.533 169.028 228.158C168.345 227.439 168.376 226.3 169.095 225.619C170.207 224.566 171.369 223.192 172.601 221.735C177.444 216.009 184.079 208.164 198.078 206.937C203.578 206.454 209.578 207.749 215.43 210.686C219.818 212.886 222.584 215.222 222.701 215.32C223.457 215.964 223.548 217.097 222.904 217.854C222.26 218.61 221.127 218.702 220.371 218.058C220.348 218.038 217.76 215.864 213.733 213.856C210.088 212.038 204.466 209.984 198.393 210.517C185.867 211.615 180.032 218.513 175.344 224.057C174.048 225.59 172.824 227.039 171.569 228.228C171.221 228.556 170.775 228.721 170.333 228.721Z" fill="#4D793E"/>
<path d="M170.333 228.721C169.856 228.721 169.381 228.533 169.028 228.158C168.345 227.439 168.376 226.3 169.095 225.619C170.207 224.566 171.369 223.192 172.601 221.735C177.444 216.009 184.079 208.164 198.078 206.937C203.578 206.454 209.578 207.749 215.43 210.686C219.818 212.886 222.584 215.222 222.701 215.32C223.457 215.964 223.548 217.097 222.904 217.854C222.26 218.61 221.127 218.702 220.371 218.058C220.348 218.038 217.76 215.864 213.733 213.856C210.088 212.038 204.466 209.984 198.393 210.517C185.867 211.615 180.032 218.513 175.344 224.057C174.048 225.59 172.824 227.039 171.569 228.228C171.221 228.556 170.775 228.721 170.333 228.721Z" fill="#4D793E"/>
<path d="M223.613 207.11C222.652 207.11 221.706 207.064 220.775 206.975C214.487 206.375 208.74 203.48 204.594 198.826C200.476 194.205 198.209 188.167 198.209 181.821C198.209 171.116 206.918 162.407 217.622 162.407C226.386 162.407 233.515 169.536 233.515 178.297C233.515 185.507 227.65 191.369 220.441 191.369C214.477 191.369 209.623 186.518 209.623 180.554C209.623 179.56 210.428 178.755 211.422 178.755C212.413 178.755 213.218 179.56 213.218 180.554C213.218 184.535 216.46 187.776 220.441 187.776C225.667 187.776 229.92 183.524 229.92 178.297C229.92 171.517 224.403 166.002 217.622 166.002C208.901 166.002 201.804 173.099 201.804 181.821C201.804 187.284 203.748 192.474 207.278 196.433C210.821 200.41 215.735 202.881 221.118 203.398C227.642 204.023 235.155 202.146 242.271 198.115C248.763 194.439 254.298 189.365 257.459 184.194C257.975 183.346 259.082 183.079 259.93 183.598C260.776 184.116 261.043 185.221 260.527 186.069C257.057 191.745 251.05 197.275 244.044 201.243C237.286 205.071 230.139 207.11 223.613 207.11Z" fill="#4D793E"/>
<path d="M223.613 207.11C222.652 207.11 221.706 207.064 220.775 206.975C214.487 206.375 208.74 203.48 204.594 198.826C200.476 194.205 198.209 188.167 198.209 181.821C198.209 171.116 206.918 162.407 217.622 162.407C226.386 162.407 233.515 169.536 233.515 178.297C233.515 185.507 227.65 191.369 220.441 191.369C214.477 191.369 209.623 186.518 209.623 180.554C209.623 179.56 210.428 178.755 211.422 178.755C212.413 178.755 213.218 179.56 213.218 180.554C213.218 184.535 216.46 187.776 220.441 187.776C225.667 187.776 229.92 183.524 229.92 178.297C229.92 171.517 224.403 166.002 217.622 166.002C208.901 166.002 201.804 173.099 201.804 181.821C201.804 187.284 203.748 192.474 207.278 196.433C210.821 200.41 215.735 202.881 221.118 203.398C227.642 204.023 235.155 202.146 242.271 198.115C248.763 194.439 254.298 189.365 257.459 184.194C257.975 183.346 259.082 183.079 259.93 183.598C260.776 184.116 261.043 185.221 260.527 186.069C257.057 191.745 251.05 197.275 244.044 201.243C237.286 205.071 230.139 207.11 223.613 207.11Z" fill="#4D793E"/>
<path d="M144.653 217.011C139.965 217.011 135.417 216.282 131.287 214.847C124.861 212.62 118.624 209.316 112.746 205.024C108.061 201.604 103.591 197.551 99.4628 192.981C92.4314 185.197 88.858 178.667 88.7098 178.393C88.2375 177.521 88.5598 176.43 89.4338 175.957C90.306 175.483 91.3955 175.807 91.8695 176.68C91.904 176.743 95.4308 183.171 102.2 190.647C106.158 195.021 110.436 198.894 114.916 202.159C120.491 206.22 126.395 209.347 132.465 211.452C137.567 213.222 143.393 213.811 149.316 213.158C155.02 212.529 160.704 210.772 165.749 208.076C169.967 205.823 173.556 203.04 176.418 199.799C179.398 196.427 181.429 192.728 182.454 188.806C184.092 182.54 185.59 173.303 183.416 164.87C182.127 159.868 180.122 157.484 180.101 157.459L180.11 157.468L182.809 155.096C183.194 155.532 192.121 166.051 185.931 189.715C184.762 194.188 182.468 198.38 179.112 202.179C175.966 205.741 172.039 208.792 167.442 211.248C161.998 214.156 155.865 216.052 149.709 216.732C148.015 216.918 146.325 217.011 144.653 217.011Z" fill="#4D793E"/>
<path d="M144.653 217.011C139.965 217.011 135.417 216.282 131.287 214.847C124.861 212.62 118.624 209.316 112.746 205.024C108.061 201.604 103.591 197.551 99.4628 192.981C92.4314 185.197 88.858 178.667 88.7098 178.393C88.2375 177.521 88.5598 176.43 89.4338 175.957C90.306 175.483 91.3955 175.807 91.8695 176.68C91.904 176.743 95.4308 183.171 102.2 190.647C106.158 195.021 110.436 198.894 114.916 202.159C120.491 206.22 126.395 209.347 132.465 211.452C137.567 213.222 143.393 213.811 149.316 213.158C155.02 212.529 160.704 210.772 165.749 208.076C169.967 205.823 173.556 203.04 176.418 199.799C179.398 196.427 181.429 192.728 182.454 188.806C184.092 182.54 185.59 173.303 183.416 164.87C182.127 159.868 180.122 157.484 180.101 157.459L180.11 157.468L182.809 155.096C183.194 155.532 192.121 166.051 185.931 189.715C184.762 194.188 182.468 198.38 179.112 202.179C175.966 205.741 172.039 208.792 167.442 211.248C161.998 214.156 155.865 216.052 149.709 216.732C148.015 216.918 146.325 217.011 144.653 217.011Z" fill="#4D793E"/>
<path d="M187.175 37.8775C180.382 37.8775 175.188 36.5997 171.295 33.9719C168.243 31.9124 166.092 29.0688 164.722 25.2773C164.382 24.3443 164.866 23.3145 165.799 22.977C166.732 22.6396 167.764 23.121 168.101 24.054C169.221 27.1457 170.873 29.3516 173.307 30.9943C176.54 33.1754 181.205 34.2821 187.175 34.2821C195.128 34.2821 201.148 27.6494 201.207 27.5824C201.87 26.843 203.006 26.7785 203.746 27.441C204.485 28.101 204.55 29.2375 203.887 29.9794C203.599 30.302 196.716 37.8775 187.175 37.8775Z" fill="#4D793E"/>
<path d="M187.175 37.8775C180.382 37.8775 175.188 36.5997 171.295 33.9719C168.243 31.9124 166.092 29.0688 164.722 25.2773C164.382 24.3443 164.866 23.3145 165.799 22.977C166.732 22.6396 167.764 23.121 168.101 24.054C169.221 27.1457 170.873 29.3516 173.307 30.9943C176.54 33.1754 181.205 34.2821 187.175 34.2821C195.128 34.2821 201.148 27.6494 201.207 27.5824C201.87 26.843 203.006 26.7785 203.746 27.441C204.485 28.101 204.55 29.2375 203.887 29.9794C203.599 30.302 196.716 37.8775 187.175 37.8775Z" fill="#4D793E"/>
<path d="M233.63 111.427C233.557 111.427 233.483 111.422 233.409 111.413C232.425 111.293 231.723 110.396 231.844 109.41C232.81 101.483 232.524 94.7006 230.995 89.2571C229.651 84.4708 227.366 80.6122 224.013 77.4556C217.669 71.4867 208.313 68.936 199.266 66.4702C198.309 66.2087 197.743 65.2205 198.005 64.2637C198.264 63.3069 199.252 62.7413 200.211 63.0029C209.683 65.5849 219.477 68.2542 226.474 74.8378C230.32 78.4527 232.928 82.8522 234.455 88.2846C236.136 94.2714 236.449 101.324 235.412 109.846C235.3 110.758 234.525 111.427 233.63 111.427Z" fill="#4D793E"/>
<path d="M233.63 111.427C233.557 111.427 233.483 111.422 233.409 111.413C232.425 111.293 231.723 110.396 231.844 109.41C232.81 101.483 232.524 94.7006 230.995 89.2571C229.651 84.4708 227.366 80.6122 224.013 77.4556C217.669 71.4867 208.313 68.936 199.266 66.4702C198.309 66.2087 197.743 65.2205 198.005 64.2637C198.264 63.3069 199.252 62.7413 200.211 63.0029C209.683 65.5849 219.477 68.2542 226.474 74.8378C230.32 78.4527 232.928 82.8522 234.455 88.2846C236.136 94.2714 236.449 101.324 235.412 109.846C235.3 110.758 234.525 111.427 233.63 111.427Z" fill="#4D793E"/>
<path d="M145.616 99.7193C145.59 99.7193 145.563 99.7193 145.537 99.7171C144.545 99.6732 143.777 98.8347 143.821 97.8426C144.328 86.2572 151.543 74.3227 153.913 70.4002C154.427 69.5507 155.531 69.2785 156.381 69.7922C157.23 70.3058 157.502 71.4099 156.989 72.2594C154.737 75.9866 147.879 87.3327 147.412 98.0006C147.37 98.9642 146.573 99.7193 145.616 99.7193Z" fill="#4D793E"/>
<path d="M145.616 99.7193C145.59 99.7193 145.563 99.7193 145.537 99.7171C144.545 99.6732 143.777 98.8347 143.821 97.8426C144.328 86.2572 151.543 74.3227 153.913 70.4002C154.427 69.5507 155.531 69.2785 156.381 69.7922C157.23 70.3058 157.502 71.4099 156.989 72.2594C154.737 75.9866 147.879 87.3327 147.412 98.0006C147.37 98.9642 146.573 99.7193 145.616 99.7193Z" fill="#4D793E"/>
<path d="M127.297 197.378C124.11 197.378 120.904 197.182 117.729 196.708C111.829 195.826 106.525 194.02 101.966 191.339C96.7565 188.276 92.3205 183.961 88.7812 178.518C88.241 177.684 88.4772 176.571 89.3091 176.031C90.1411 175.489 91.2555 175.725 91.7957 176.557C97.9202 185.98 106.576 191.409 118.259 193.151C128.667 194.704 139.607 193.099 149.044 191.471C150.022 191.304 150.951 191.958 151.12 192.937C151.29 193.915 150.632 194.845 149.655 195.014C142.763 196.201 135.083 197.378 127.297 197.378Z" fill="#4D793E"/>
<path d="M127.297 197.378C124.11 197.378 120.904 197.182 117.729 196.708C111.829 195.826 106.525 194.02 101.966 191.339C96.7565 188.276 92.3205 183.961 88.7812 178.518C88.241 177.684 88.4772 176.571 89.3091 176.031C90.1411 175.489 91.2555 175.725 91.7957 176.557C97.9202 185.98 106.576 191.409 118.259 193.151C128.667 194.704 139.607 193.099 149.044 191.471C150.022 191.304 150.951 191.958 151.12 192.937C151.29 193.915 150.632 194.845 149.655 195.014C142.763 196.201 135.083 197.378 127.297 197.378Z" fill="#4D793E"/>
<path d="M197.083 222.445C191.339 222.445 188.417 221.574 188.187 221.501C187.24 221.206 186.712 220.197 187.009 219.251C187.304 218.304 188.309 217.776 189.254 218.069C189.312 218.085 191.909 218.845 197.061 218.847C197.069 218.847 197.077 218.847 197.085 218.847C201.886 218.847 209.934 218.172 221.036 214.964C221.99 214.686 222.985 215.237 223.261 216.189C223.538 217.144 222.987 218.141 222.035 218.416C210.954 221.619 202.679 222.445 197.083 222.445Z" fill="#4D793E"/>
<path d="M197.083 222.445C191.339 222.445 188.417 221.574 188.187 221.501C187.24 221.206 186.712 220.197 187.009 219.251C187.304 218.304 188.309 217.776 189.254 218.069C189.312 218.085 191.909 218.845 197.061 218.847C197.069 218.847 197.077 218.847 197.085 218.847C201.886 218.847 209.934 218.172 221.036 214.964C221.99 214.686 222.985 215.237 223.261 216.189C223.538 217.144 222.987 218.141 222.035 218.416C210.954 221.619 202.679 222.445 197.083 222.445Z" fill="#4D793E"/>
<path d="M233.628 111.427C233.16 111.427 232.692 111.243 232.339 110.881C231.648 110.169 231.663 109.031 232.375 108.34C243.819 97.2087 248.028 86.8239 249.543 80.0711C249.761 79.1022 250.723 78.4925 251.69 78.7107C252.659 78.9268 253.269 79.8893 253.051 80.8583C251.427 88.0859 246.959 99.1702 234.88 110.918C234.531 111.255 234.08 111.427 233.628 111.427Z" fill="#4D793E"/>
<path d="M233.628 111.427C233.16 111.427 232.692 111.243 232.339 110.881C231.648 110.169 231.663 109.031 232.375 108.34C243.819 97.2087 248.028 86.8239 249.543 80.0711C249.761 79.1022 250.723 78.4925 251.69 78.7107C252.659 78.9268 253.269 79.8893 253.051 80.8583C251.427 88.0859 246.959 99.1702 234.88 110.918C234.531 111.255 234.08 111.427 233.628 111.427Z" fill="#4D793E"/>
<path d="M181.46 158.081C181.436 158.081 181.41 158.079 181.384 158.079C180.391 158.037 179.621 157.2 179.663 156.207C179.784 153.325 179.748 145.593 176.803 136.067C174.115 127.376 169.759 119.973 164.208 114.66C159.707 110.356 154.274 107.56 148.911 106.788C144.404 106.14 140.303 106.973 137.941 109.017C137.189 109.666 136.055 109.584 135.406 108.834C134.756 108.084 134.837 106.948 135.589 106.299C138.727 103.583 143.899 102.435 149.425 103.231C155.522 104.108 161.655 107.244 166.691 112.064C169.897 115.128 172.72 118.797 175.088 122.964C177.166 126.621 178.899 130.673 180.238 135.007C182.427 142.089 183.527 149.871 183.255 156.358C183.215 157.325 182.419 158.079 181.46 158.081Z" fill="#4D793E"/>
<path d="M181.46 158.081C181.436 158.081 181.41 158.079 181.384 158.079C180.391 158.037 179.621 157.2 179.663 156.207C179.784 153.325 179.748 145.593 176.803 136.067C174.115 127.376 169.759 119.973 164.208 114.66C159.707 110.356 154.274 107.56 148.911 106.788C144.404 106.14 140.303 106.973 137.941 109.017C137.189 109.666 136.055 109.584 135.406 108.834C134.756 108.084 134.837 106.948 135.589 106.299C138.727 103.583 143.899 102.435 149.425 103.231C155.522 104.108 161.655 107.244 166.691 112.064C169.897 115.128 172.72 118.797 175.088 122.964C177.166 126.621 178.899 130.673 180.238 135.007C182.427 142.089 183.527 149.871 183.255 156.358C183.215 157.325 182.419 158.079 181.46 158.081Z" fill="#4D793E"/>
<path d="M177.505 158.994C174.086 158.994 169.794 157.884 164.734 155.691C158.543 153.007 154.05 148.913 151.003 143.176C148.388 138.253 147.185 132.751 146.124 127.897C145.712 126.006 145.321 124.217 144.868 122.519C142.809 114.804 139.989 110.505 136.247 109.378C135.297 109.092 134.758 108.091 135.044 107.14C135.33 106.189 136.332 105.651 137.283 105.937C142.316 107.452 145.933 112.573 148.341 121.592C148.814 123.369 149.214 125.197 149.637 127.13C150.698 131.984 151.794 137.003 154.177 141.489C156.827 146.479 160.75 150.045 166.163 152.394C176.957 157.072 180.318 154.892 180.351 154.869C180.296 154.906 180.272 154.932 180.272 154.932L182.645 157.634C182.324 157.916 181.053 158.847 178.198 158.979C177.971 158.989 177.74 158.994 177.505 158.994Z" fill="#4D793E"/>
<path d="M177.505 158.994C174.086 158.994 169.794 157.884 164.734 155.691C158.543 153.007 154.05 148.913 151.003 143.176C148.388 138.253 147.185 132.751 146.124 127.897C145.712 126.006 145.321 124.217 144.868 122.519C142.809 114.804 139.989 110.505 136.247 109.378C135.297 109.092 134.758 108.091 135.044 107.14C135.33 106.189 136.332 105.651 137.283 105.937C142.316 107.452 145.933 112.573 148.341 121.592C148.814 123.369 149.214 125.197 149.637 127.13C150.698 131.984 151.794 137.003 154.177 141.489C156.827 146.479 160.75 150.045 166.163 152.394C176.957 157.072 180.318 154.892 180.351 154.869C180.296 154.906 180.272 154.932 180.272 154.932L182.645 157.634C182.324 157.916 181.053 158.847 178.198 158.979C177.971 158.989 177.74 158.994 177.505 158.994Z" fill="#4D793E"/>
<path d="M181.458 158.081C181.233 158.081 181.007 158.038 180.786 157.949C167.193 152.45 162.825 140 159.315 129.999C158.09 126.505 156.931 123.204 155.529 120.599C149.627 109.641 141.376 108.905 136.984 109.442C135.997 109.562 135.101 108.862 134.981 107.875C134.861 106.89 135.561 105.995 136.548 105.874C140.591 105.379 144.612 106.089 148.179 107.928C152.411 110.11 155.951 113.8 158.693 118.895C160.23 121.748 161.434 125.177 162.708 128.807C166.148 138.613 170.048 149.728 182.133 154.617C183.055 154.99 183.499 156.037 183.126 156.957C182.844 157.657 182.169 158.081 181.458 158.081Z" fill="#4D793E"/>
<path d="M181.458 158.081C181.233 158.081 181.007 158.038 180.786 157.949C167.193 152.45 162.825 140 159.315 129.999C158.09 126.505 156.931 123.204 155.529 120.599C149.627 109.641 141.376 108.905 136.984 109.442C135.997 109.562 135.101 108.862 134.981 107.875C134.861 106.89 135.561 105.995 136.548 105.874C140.591 105.379 144.612 106.089 148.179 107.928C152.411 110.11 155.951 113.8 158.693 118.895C160.23 121.748 161.434 125.177 162.708 128.807C166.148 138.613 170.048 149.728 182.133 154.617C183.055 154.99 183.499 156.037 183.126 156.957C182.844 157.657 182.169 158.081 181.458 158.081Z" fill="#4D793E"/>
<path d="M160.888 110.951C160.622 110.951 160.352 110.89 160.099 110.766C159.207 110.329 158.841 109.25 159.278 108.361C159.366 108.181 161.479 103.907 165.153 99.0368C170.164 92.3973 175.449 88.0568 180.857 86.1347C181.791 85.8018 182.819 86.2917 183.152 87.2256C183.485 88.1615 182.997 89.1896 182.061 89.5225C170.652 93.5761 162.584 109.782 162.505 109.946C162.191 110.58 161.552 110.951 160.888 110.951Z" fill="#4D793E"/>
<path d="M160.888 110.951C160.622 110.951 160.352 110.89 160.099 110.766C159.207 110.329 158.841 109.25 159.278 108.361C159.366 108.181 161.479 103.907 165.153 99.0368C170.164 92.3973 175.449 88.0568 180.857 86.1347C181.791 85.8018 182.819 86.2917 183.152 87.2256C183.485 88.1615 182.997 89.1896 182.061 89.5225C170.652 93.5761 162.584 109.782 162.505 109.946C162.191 110.58 161.552 110.951 160.888 110.951Z" fill="#4D793E"/>
<path d="M181.533 158.081C180.574 158.081 179.778 157.325 179.738 156.358C179.466 149.871 180.566 142.089 182.757 135.007C184.096 130.673 185.827 126.621 187.905 122.964C190.273 118.797 193.098 115.128 196.302 112.064C201.339 107.244 207.471 104.108 213.57 103.231C219.094 102.435 224.266 103.583 227.406 106.299C228.156 106.948 228.238 108.084 227.589 108.834C226.938 109.584 225.804 109.666 225.054 109.017C222.69 106.973 218.589 106.14 214.082 106.788C208.719 107.56 203.287 110.356 198.787 114.66C193.234 119.973 188.878 127.376 186.19 136.067C183.245 145.593 183.209 153.325 183.33 156.207C183.372 157.2 182.602 158.037 181.609 158.079C181.585 158.079 181.559 158.081 181.533 158.081Z" fill="#4D793E"/>
<path d="M181.533 158.081C180.574 158.081 179.778 157.325 179.738 156.358C179.466 149.871 180.566 142.089 182.757 135.007C184.096 130.673 185.827 126.621 187.905 122.964C190.273 118.797 193.098 115.128 196.302 112.064C201.339 107.244 207.471 104.108 213.57 103.231C219.094 102.435 224.266 103.583 227.406 106.299C228.156 106.948 228.238 108.084 227.589 108.834C226.938 109.584 225.804 109.666 225.054 109.017C222.69 106.973 218.589 106.14 214.082 106.788C208.719 107.56 203.287 110.356 198.787 114.66C193.234 119.973 188.878 127.376 186.19 136.067C183.245 145.593 183.209 153.325 183.33 156.207C183.372 157.2 182.602 158.037 181.609 158.079C181.585 158.079 181.559 158.081 181.533 158.081Z" fill="#4D793E"/>
<path d="M185.487 158.994C185.252 158.994 185.021 158.989 184.794 158.979C181.939 158.847 180.669 157.916 180.347 157.634L182.72 154.932C182.72 154.932 182.696 154.906 182.643 154.869C182.674 154.892 186.035 157.072 196.829 152.394C202.244 150.045 206.165 146.479 208.816 141.489C211.2 137.003 212.296 131.984 213.355 127.13C213.779 125.197 214.178 123.369 214.653 121.592C217.059 112.573 220.676 107.452 225.711 105.937C226.66 105.651 227.664 106.189 227.95 107.14C228.236 108.091 227.697 109.092 226.747 109.378C223.005 110.505 220.185 114.804 218.126 122.519C217.673 124.217 217.282 126.006 216.868 127.897C215.807 132.753 214.606 138.253 211.991 143.176C208.942 148.913 204.451 153.007 198.258 155.691C193.198 157.884 188.906 158.994 185.487 158.994Z" fill="#4D793E"/>
<path d="M185.487 158.994C185.252 158.994 185.021 158.989 184.794 158.979C181.939 158.847 180.669 157.916 180.347 157.634L182.72 154.932C182.72 154.932 182.696 154.906 182.643 154.869C182.674 154.892 186.035 157.072 196.829 152.394C202.244 150.045 206.165 146.479 208.816 141.489C211.2 137.003 212.296 131.984 213.355 127.13C213.779 125.197 214.178 123.369 214.653 121.592C217.059 112.573 220.676 107.452 225.711 105.937C226.66 105.651 227.664 106.189 227.95 107.14C228.236 108.091 227.697 109.092 226.747 109.378C223.005 110.505 220.185 114.804 218.126 122.519C217.673 124.217 217.282 126.006 216.868 127.897C215.807 132.753 214.606 138.253 211.991 143.176C208.942 148.913 204.451 153.007 198.258 155.691C193.198 157.884 188.906 158.994 185.487 158.994Z" fill="#4D793E"/>
<path d="M181.535 158.081C180.825 158.081 180.152 157.657 179.868 156.957C179.497 156.037 179.941 154.99 180.861 154.617C192.946 149.728 196.846 138.613 200.287 128.807C201.56 125.177 202.763 121.748 204.3 118.895C207.045 113.8 210.583 110.11 214.817 107.928C218.382 106.089 222.403 105.379 226.448 105.874C227.433 105.995 228.133 106.89 228.013 107.875C227.892 108.862 226.996 109.562 226.012 109.442C221.618 108.905 213.367 109.641 207.465 120.599C206.062 123.204 204.904 126.505 203.679 129.999C200.169 140 195.801 152.45 182.208 157.949C181.987 158.038 181.76 158.081 181.535 158.081Z" fill="#4D793E"/>
<path d="M181.535 158.081C180.825 158.081 180.152 157.657 179.868 156.957C179.497 156.037 179.941 154.99 180.861 154.617C192.946 149.728 196.846 138.613 200.287 128.807C201.56 125.177 202.763 121.748 204.3 118.895C207.045 113.8 210.583 110.11 214.817 107.928C218.382 106.089 222.403 105.379 226.448 105.874C227.433 105.995 228.133 106.89 228.013 107.875C227.892 108.862 226.996 109.562 226.012 109.442C221.618 108.905 213.367 109.641 207.465 120.599C206.062 123.204 204.904 126.505 203.679 129.999C200.169 140 195.801 152.45 182.208 157.949C181.987 158.038 181.76 158.081 181.535 158.081Z" fill="#4D793E"/>
<path d="M202.103 110.951C201.439 110.951 200.801 110.58 200.489 109.946C200.388 109.738 192.304 93.5636 180.933 89.5225C179.997 89.1896 179.509 88.1615 179.84 87.2256C180.172 86.2917 181.201 85.8018 182.136 86.1347C187.545 88.0568 192.828 92.3973 197.84 99.0368C201.513 103.907 203.627 108.181 203.715 108.361C204.153 109.25 203.787 110.329 202.895 110.766C202.639 110.89 202.369 110.951 202.103 110.951Z" fill="#4D793E"/>
<path d="M202.103 110.951C201.439 110.951 200.801 110.58 200.489 109.946C200.388 109.738 192.304 93.5636 180.933 89.5225C179.997 89.1896 179.509 88.1615 179.84 87.2256C180.172 86.2917 181.201 85.8018 182.136 86.1347C187.545 88.0568 192.828 92.3973 197.84 99.0368C201.513 103.907 203.627 108.181 203.715 108.361C204.153 109.25 203.787 110.329 202.895 110.766C202.639 110.89 202.369 110.951 202.103 110.951Z" fill="#4D793E"/>
<path d="M181.46 158.08C180.467 158.08 179.661 157.276 179.661 156.284V87.8263C179.661 86.8339 180.467 86.0299 181.46 86.0299C182.452 86.0299 183.256 86.8339 183.256 87.8263V156.284C183.256 157.276 182.452 158.08 181.46 158.08Z" fill="#4D793E"/>
<path d="M181.46 158.08C180.467 158.08 179.661 157.276 179.661 156.284V87.8263C179.661 86.8339 180.467 86.0299 181.46 86.0299C182.452 86.0299 183.256 86.8339 183.256 87.8263V156.284C183.256 157.276 182.452 158.08 181.46 158.08Z" fill="#4D793E"/>
<path d="M177.703 183.981C176.933 183.981 176.221 183.481 175.984 182.708C173.957 176.062 170.091 171.385 164.491 168.804C160.25 166.849 156.534 166.869 156.496 166.874C156.489 166.874 156.481 166.874 156.474 166.874C155.493 166.874 154.69 166.087 154.675 165.104C154.66 164.113 155.445 163.298 156.436 163.28C156.615 163.276 160.879 163.225 165.836 165.467C170.413 167.537 176.484 172.025 179.423 181.658C179.712 182.607 179.177 183.612 178.228 183.901C178.054 183.954 177.877 183.981 177.703 183.981Z" fill="#4D793E"/>
<path d="M177.703 183.981C176.933 183.981 176.221 183.481 175.984 182.708C173.957 176.062 170.091 171.385 164.491 168.804C160.25 166.849 156.534 166.869 156.496 166.874C156.489 166.874 156.481 166.874 156.474 166.874C155.493 166.874 154.69 166.087 154.675 165.104C154.66 164.113 155.445 163.298 156.436 163.28C156.615 163.276 160.879 163.225 165.836 165.467C170.413 167.537 176.484 172.025 179.423 181.658C179.712 182.607 179.177 183.612 178.228 183.901C178.054 183.954 177.877 183.981 177.703 183.981Z" fill="#4D793E"/>
<path d="M217.44 96.0521C215.076 96.0521 212.756 95.7323 210.567 95.0968C206.865 94.0224 203.709 92.1201 201.436 89.5971C200.772 88.8592 200.832 87.722 201.57 87.0573C202.308 86.3947 203.443 86.4532 204.108 87.1911C207.105 90.521 213.669 93.7632 222.311 91.9446C223.281 91.7397 224.234 92.3605 224.439 93.3325C224.643 94.3046 224.023 95.2578 223.051 95.4626C221.178 95.8556 219.294 96.0521 217.44 96.0521Z" fill="#4D793E"/>
<path d="M217.44 96.0521C215.076 96.0521 212.756 95.7323 210.567 95.0968C206.865 94.0224 203.709 92.1201 201.436 89.5971C200.772 88.8592 200.832 87.722 201.57 87.0573C202.308 86.3947 203.443 86.4532 204.108 87.1911C207.105 90.521 213.669 93.7632 222.311 91.9446C223.281 91.7397 224.234 92.3605 224.439 93.3325C224.643 94.3046 224.023 95.2578 223.051 95.4626C221.178 95.8556 219.294 96.0521 217.44 96.0521Z" fill="#4D793E"/>
<path d="M226.663 153.306C225.905 153.306 225.198 152.823 224.952 152.063C223.483 147.513 222.729 143.041 222.714 138.774C222.7 135.332 223.165 132.014 224.092 128.91C225.696 123.555 228.147 120.668 228.25 120.549C228.899 119.797 230.033 119.711 230.785 120.36C231.535 121.006 231.622 122.136 230.98 122.888C230.247 123.754 228.574 126.38 227.48 130.134C226.678 132.885 226.285 135.835 226.308 138.903C226.34 142.756 227.035 146.811 228.373 150.957C228.678 151.902 228.161 152.914 227.216 153.219C227.033 153.278 226.846 153.306 226.663 153.306Z" fill="#4D793E"/>
<path d="M226.663 153.306C225.905 153.306 225.198 152.823 224.952 152.063C223.483 147.513 222.729 143.041 222.714 138.774C222.7 135.332 223.165 132.014 224.092 128.91C225.696 123.555 228.147 120.668 228.25 120.549C228.899 119.797 230.033 119.711 230.785 120.36C231.535 121.006 231.622 122.136 230.98 122.888C230.247 123.754 228.574 126.38 227.48 130.134C226.678 132.885 226.285 135.835 226.308 138.903C226.34 142.756 227.035 146.811 228.373 150.957C228.678 151.902 228.161 152.914 227.216 153.219C227.033 153.278 226.846 153.306 226.663 153.306Z" fill="#4D793E"/>
<path d="M103.678 155.371C102.999 155.371 102.348 154.984 102.045 154.326C100.196 150.32 100.442 145.915 102.719 142.24C103.977 140.21 105.819 138.502 108.043 137.3C110.39 136.03 113.072 135.343 116.013 135.259C117.009 135.231 117.833 136.014 117.86 137.004C117.889 137.997 117.107 138.825 116.115 138.854C111.542 138.984 107.774 140.909 105.774 144.134C104.144 146.763 103.975 149.929 105.308 152.819C105.724 153.721 105.332 154.788 104.43 155.204C104.187 155.317 103.93 155.371 103.678 155.371Z" fill="#4D793E"/>
<path d="M103.678 155.371C102.999 155.371 102.348 154.984 102.045 154.326C100.196 150.32 100.442 145.915 102.719 142.24C103.977 140.21 105.819 138.502 108.043 137.3C110.39 136.03 113.072 135.343 116.013 135.259C117.009 135.231 117.833 136.014 117.86 137.004C117.889 137.997 117.107 138.825 116.115 138.854C111.542 138.984 107.774 140.909 105.774 144.134C104.144 146.763 103.975 149.929 105.308 152.819C105.724 153.721 105.332 154.788 104.43 155.204C104.187 155.317 103.93 155.371 103.678 155.371Z" fill="#4D793E"/>
<path d="M130.516 113.786C130.054 113.786 129.594 113.611 129.244 113.258C127.055 111.071 125.655 107.573 125.403 103.66C125.144 99.6323 126.094 95.561 128.083 92.1968C128.588 91.3434 129.689 91.0589 130.545 91.564C131.398 92.069 131.683 93.1719 131.178 94.0273C128.351 98.8077 127.906 106.839 131.786 110.716C132.489 111.419 132.489 112.557 131.786 113.258C131.435 113.611 130.975 113.786 130.516 113.786Z" fill="#4D793E"/>
<path d="M130.516 113.786C130.054 113.786 129.594 113.611 129.244 113.258C127.055 111.071 125.655 107.573 125.403 103.66C125.144 99.6323 126.094 95.561 128.083 92.1968C128.588 91.3434 129.689 91.0589 130.545 91.564C131.398 92.069 131.683 93.1719 131.178 94.0273C128.351 98.8077 127.906 106.839 131.786 110.716C132.489 111.419 132.489 112.557 131.786 113.258C131.435 113.611 130.975 113.786 130.516 113.786Z" fill="#4D793E"/>
<line x1="48.5526" y1="353.934" x2="301.026" y2="353.934" stroke="#4D793E"/>
<path d="M110.504 314.95C111.128 314.95 111.728 314.614 112.304 313.942L112.844 314.374C112.772 314.47 112.676 314.59 112.556 314.734C112.436 314.878 112.136 315.07 111.656 315.31C111.2 315.55 110.696 315.67 110.144 315.67C107.456 315.67 106.112 314.506 106.112 312.178C106.112 311.458 106.196 310.39 106.364 308.974C105.212 309.334 104.18 309.514 103.268 309.514C101.66 309.514 100.052 309.022 98.4437 308.038C97.5077 309.646 96.6317 311.026 95.8157 312.178C94.9997 313.306 94.0517 314.41 92.9717 315.49C90.7397 317.674 88.0397 318.766 84.8717 318.766C81.7277 318.766 79.2197 317.758 77.3477 315.742C75.6917 313.894 74.8637 311.65 74.8637 309.01C74.8637 306.346 75.7157 303.982 77.4197 301.918C79.1237 299.854 81.3317 298.822 84.0437 298.822C86.7557 298.822 88.8197 299.626 90.2357 301.234C90.5717 301.666 90.8117 301.99 90.9557 302.206C92.2517 302.758 93.7277 303.67 95.3837 304.942C96.6317 305.95 97.5557 306.646 98.1557 307.03C98.4917 306.406 98.9477 305.566 99.5237 304.51C100.124 303.454 100.58 302.65 100.892 302.098C101.204 301.546 101.672 300.766 102.296 299.758C102.92 298.75 103.424 297.994 103.808 297.49C104.216 296.962 104.744 296.314 105.392 295.546C106.064 294.754 106.676 294.166 107.228 293.782C108.884 292.606 110.276 291.922 111.404 291.73C112.028 291.634 112.556 291.586 112.988 291.586C113.42 291.586 113.9 291.598 114.428 291.622C114.956 291.622 115.7 291.754 116.66 292.018L116.48 292.702C115.904 292.534 115.292 292.414 114.644 292.342C112.244 301.774 110.864 309.31 110.504 314.95ZM92.1077 306.382C92.1077 308.158 91.5917 309.73 90.5597 311.098C89.5517 312.466 88.1837 313.15 86.4557 313.15C85.3277 313.15 84.4037 312.814 83.6837 312.142C82.9877 311.47 82.6397 310.774 82.6397 310.054C82.6397 309.334 82.7477 308.746 82.9637 308.29C83.1797 307.81 83.4197 307.45 83.6837 307.21C83.9717 306.97 84.2837 306.778 84.6197 306.634C85.0757 306.394 85.4357 306.274 85.6997 306.274L85.7717 306.994C85.1717 306.994 84.6197 307.282 84.1157 307.858C83.6117 308.434 83.3597 309.082 83.3597 309.802C83.3597 310.522 83.6357 311.146 84.1877 311.674C84.7637 312.178 85.5197 312.43 86.4557 312.43C87.9917 312.43 89.2037 311.83 90.0917 310.63C90.9797 309.43 91.4237 308.098 91.4237 306.634C91.4237 305.17 91.1237 303.898 90.5237 302.818C89.2037 302.314 87.8957 302.062 86.5997 302.062C84.1037 302.062 82.3397 303.226 81.3077 305.554L80.6237 305.338C80.8877 304.738 81.3077 304.09 81.8837 303.394C83.0117 302.026 84.5837 301.342 86.5997 301.342C87.6797 301.342 88.7477 301.498 89.8037 301.81L89.7317 301.702C88.4117 300.262 86.5037 299.542 84.0077 299.542C81.5357 299.542 79.5077 300.502 77.9237 302.422C76.3637 304.342 75.5837 306.55 75.5837 309.046C75.5837 311.518 76.3517 313.582 77.8877 315.238C79.6157 317.11 82.0277 318.046 85.1237 318.046C87.9557 318.046 90.4277 316.978 92.5397 314.842C93.5957 313.81 94.5077 312.742 95.2757 311.638C96.0677 310.534 96.9197 309.202 97.8317 307.642C97.0157 307.114 96.0197 306.394 94.8437 305.482C93.6917 304.546 92.5757 303.802 91.4957 303.25C91.9037 304.258 92.1077 305.302 92.1077 306.382ZM98.8037 307.426C100.34 308.338 101.744 308.794 103.016 308.794C104.312 308.794 105.464 308.59 106.472 308.182C107.048 304.126 108.128 299.086 109.712 293.062C107.792 293.974 106.028 295.594 104.42 297.922C103.244 299.602 101.828 301.942 100.172 304.942L98.8037 307.426ZM118.691 300.19C118.115 300.19 117.515 300.526 116.891 301.198L116.351 300.766C116.519 300.43 116.891 300.13 117.467 299.866C118.043 299.602 118.679 299.47 119.375 299.47C121.559 299.47 122.651 300.454 122.651 302.422C122.651 303.262 122.435 304.762 122.003 306.922C121.571 309.082 121.355 310.498 121.355 311.17C121.355 312.202 121.847 312.718 122.831 312.718C123.527 312.718 124.199 312.31 124.847 311.494C125.519 310.678 126.095 309.55 126.575 308.11L128.087 299.794C129.863 299.794 131.159 299.722 131.975 299.578L132.443 299.47L130.031 313.078C130.751 313.006 131.351 312.67 131.831 312.07L132.371 312.502C131.651 313.366 130.751 313.798 129.671 313.798C128.591 313.798 127.751 313.534 127.151 313.006C126.551 312.478 126.239 311.734 126.215 310.774C125.207 312.79 123.719 313.798 121.751 313.798C120.335 313.798 119.231 313.402 118.439 312.61C117.647 311.794 117.251 310.678 117.251 309.262C117.251 308.518 117.479 307.09 117.935 304.978C118.391 302.842 118.643 301.246 118.691 300.19ZM149.288 313.762C148.184 313.762 147.308 313.51 146.66 313.006L145.58 318.802H141.296L144.68 299.938C143.96 300.01 143.36 300.346 142.88 300.946L142.34 300.514C143.06 299.65 143.948 299.218 145.004 299.218C146.084 299.218 146.924 299.482 147.524 300.01C148.124 300.514 148.448 301.234 148.496 302.17C149.552 300.37 150.896 299.47 152.528 299.47C154.16 299.47 155.408 299.938 156.272 300.874C157.136 301.786 157.568 303.046 157.568 304.654C157.568 307.486 156.8 309.718 155.264 311.35C153.728 312.958 151.736 313.762 149.288 313.762ZM146.912 311.566C147.32 312.478 148.088 312.934 149.216 312.934C150.368 312.934 151.364 311.974 152.204 310.054C153.068 308.134 153.5 305.842 153.5 303.178C153.5 302.074 153.38 301.318 153.14 300.91C152.924 300.502 152.516 300.298 151.916 300.298C151.316 300.298 150.692 300.658 150.044 301.378C149.42 302.098 148.964 302.782 148.676 303.43C148.388 304.054 148.244 304.414 148.244 304.51H148.208L146.912 311.566ZM167.09 299.47C170.138 299.47 171.662 300.682 171.662 303.106C171.662 304.618 170.942 305.77 169.502 306.562C168.086 307.33 166.058 307.726 163.418 307.75C163.37 308.614 163.346 309.298 163.346 309.802C163.346 310.882 163.586 311.686 164.066 312.214C164.57 312.718 165.194 312.97 165.938 312.97C166.682 312.97 167.354 312.826 167.954 312.538C168.578 312.25 169.07 311.914 169.43 311.53C169.79 311.122 170.102 310.702 170.366 310.27C170.846 309.478 171.086 308.974 171.086 308.758L171.734 309.046C171.662 309.43 171.446 309.946 171.086 310.594C170.726 311.218 170.33 311.734 169.898 312.142C169.466 312.55 168.83 312.934 167.99 313.294C167.15 313.63 166.214 313.798 165.182 313.798C163.238 313.798 161.762 313.342 160.754 312.43C159.77 311.494 159.278 310.222 159.278 308.614C159.278 305.758 159.986 303.526 161.402 301.918C162.818 300.286 164.714 299.47 167.09 299.47ZM170.762 303.106C170.762 302.314 170.522 301.666 170.042 301.162C169.586 300.634 168.89 300.37 167.954 300.37C167.042 300.37 166.142 300.922 165.254 302.026C164.39 303.13 163.814 304.762 163.526 306.922C168.35 306.898 170.762 305.626 170.762 303.106ZM175.855 299.794L176.827 294.466C178.603 294.466 179.923 294.394 180.787 294.25L181.255 294.142C180.919 295.822 180.547 297.706 180.139 299.794H184.603L184.531 300.442H180.031C178.831 306.634 178.231 310.366 178.231 311.638C178.231 312.406 178.639 312.79 179.455 312.79C180.271 312.79 181.015 312.274 181.687 311.242C182.359 310.21 182.839 309.094 183.127 307.894L183.775 308.11C182.887 311.902 181.051 313.798 178.267 313.798C177.115 313.798 176.155 313.486 175.387 312.862C174.619 312.214 174.235 311.326 174.235 310.198C174.235 309.046 174.727 305.794 175.711 300.442H173.947L174.019 299.794H175.855ZM191.884 312.502C191.164 313.366 190.264 313.798 189.184 313.798C188.104 313.798 187.252 313.522 186.628 312.97C186.028 312.418 185.728 311.698 185.728 310.81C185.728 310.498 185.92 309.19 186.304 306.886L187.492 300.442H185.98L186.052 299.794H187.6C189.376 299.794 190.684 299.722 191.524 299.578L192.028 299.47L189.544 313.078C190.264 313.006 190.864 312.67 191.344 312.07L191.884 312.502ZM188.716 296.014C188.212 295.51 187.96 294.898 187.96 294.178C187.96 293.458 188.212 292.846 188.716 292.342C189.22 291.814 189.832 291.55 190.552 291.55C191.272 291.55 191.884 291.814 192.388 292.342C192.916 292.846 193.18 293.458 193.18 294.178C193.18 294.898 192.916 295.51 192.388 296.014C191.884 296.518 191.272 296.77 190.552 296.77C189.832 296.77 189.22 296.518 188.716 296.014ZM196.175 299.794L197.147 294.466C198.923 294.466 200.243 294.394 201.107 294.25L201.575 294.142C201.239 295.822 200.867 297.706 200.459 299.794H204.923L204.851 300.442H200.351C199.151 306.634 198.551 310.366 198.551 311.638C198.551 312.406 198.959 312.79 199.775 312.79C200.591 312.79 201.335 312.274 202.007 311.242C202.679 310.21 203.159 309.094 203.447 307.894L204.095 308.11C203.207 311.902 201.371 313.798 198.587 313.798C197.435 313.798 196.475 313.486 195.707 312.862C194.939 312.214 194.555 311.326 194.555 310.198C194.555 309.046 195.047 305.794 196.031 300.442H194.267L194.339 299.794H196.175ZM216.593 312.862C218.969 312.862 220.157 311.11 220.157 307.606C220.157 306.742 220.025 305.722 219.761 304.546C219.521 303.37 219.377 302.638 219.329 302.35C217.865 303.862 216.221 304.774 214.397 305.086V304.222C216.125 303.838 217.745 302.854 219.257 301.27V301.126C219.257 300.55 219.341 299.986 219.509 299.434C219.677 298.882 219.845 298.474 220.013 298.21L220.265 297.814H221.129C221.129 298.87 221.297 299.842 221.633 300.73C221.969 301.594 222.341 302.302 222.749 302.854C223.157 303.382 223.529 304.09 223.865 304.978C224.201 305.842 224.369 306.802 224.369 307.858C224.369 309.562 223.721 310.978 222.425 312.106C221.153 313.234 219.617 313.798 217.817 313.798C216.017 313.798 214.649 313.39 213.713 312.574C212.801 311.758 212.345 310.822 212.345 309.766C212.345 308.686 212.609 307.918 213.137 307.462C213.665 306.982 214.289 306.742 215.009 306.742C215.729 306.742 216.317 306.982 216.773 307.462C217.253 307.918 217.493 308.518 217.493 309.262C217.493 309.982 217.265 310.594 216.809 311.098C216.353 311.602 215.765 311.854 215.045 311.854C214.733 311.854 214.409 311.806 214.073 311.71C214.601 312.478 215.441 312.862 216.593 312.862ZM232.115 313.798C230.267 313.798 228.863 313.342 227.903 312.43C226.943 311.494 226.463 310.33 226.463 308.938C226.463 307.522 226.583 306.322 226.823 305.338C227.087 304.33 227.507 303.37 228.083 302.458C228.659 301.522 229.523 300.79 230.675 300.262C231.851 299.734 233.303 299.47 235.031 299.47C236.783 299.47 238.139 299.938 239.099 300.874C240.083 301.786 240.575 303.046 240.575 304.654C240.575 307.39 239.843 309.598 238.379 311.278C236.939 312.958 234.851 313.798 232.115 313.798ZM230.531 310.09C230.531 312.01 231.083 312.97 232.187 312.97C233.315 312.97 234.311 312.01 235.175 310.09C236.063 308.146 236.507 305.842 236.507 303.178C236.507 301.162 235.955 300.154 234.851 300.154C233.771 300.154 232.775 301.078 231.863 302.926C230.975 304.75 230.531 307.138 230.531 310.09ZM249.013 312.502C248.293 313.366 247.393 313.798 246.313 313.798C245.233 313.798 244.381 313.522 243.757 312.97C243.157 312.418 242.857 311.698 242.857 310.81C242.857 310.498 243.049 309.19 243.433 306.886L244.621 300.442H243.109L243.181 299.794H244.729C246.505 299.794 247.813 299.722 248.653 299.578L249.157 299.47L246.673 313.078C247.393 313.006 247.993 312.67 248.473 312.07L249.013 312.502ZM245.845 296.014C245.341 295.51 245.089 294.898 245.089 294.178C245.089 293.458 245.341 292.846 245.845 292.342C246.349 291.814 246.961 291.55 247.681 291.55C248.401 291.55 249.013 291.814 249.517 292.342C250.045 292.846 250.309 293.458 250.309 294.178C250.309 294.898 250.045 295.51 249.517 296.014C249.013 296.518 248.401 296.77 247.681 296.77C246.961 296.77 246.349 296.518 245.845 296.014ZM265.004 313.078C265.58 313.078 266.18 312.742 266.804 312.07L267.344 312.502C267.176 312.838 266.804 313.138 266.228 313.402C265.652 313.666 265.016 313.798 264.32 313.798C262.136 313.798 261.044 312.814 261.044 310.846C261.044 310.006 261.26 308.506 261.692 306.346C262.124 304.186 262.34 302.77 262.34 302.098C262.34 301.066 261.848 300.55 260.864 300.55C260.072 300.55 259.304 301.066 258.56 302.098C257.84 303.13 257.24 304.546 256.76 306.346L255.536 313.078C256.28 313.006 256.892 312.67 257.372 312.07L257.912 312.502C257.192 313.366 256.292 313.798 255.212 313.798C254.132 313.798 253.28 313.522 252.656 312.97C252.056 312.418 251.756 311.698 251.756 310.81C251.756 310.474 251.948 309.154 252.332 306.85L253.52 300.19C252.8 300.262 252.2 300.598 251.72 301.198L251.18 300.766C251.9 299.902 252.8 299.47 253.88 299.47C254.984 299.47 255.836 299.746 256.436 300.298C257.036 300.85 257.336 301.63 257.336 302.638V302.854C258.32 300.598 259.856 299.47 261.944 299.47C263.36 299.47 264.464 299.878 265.256 300.694C266.048 301.486 266.444 302.59 266.444 304.006C266.444 304.75 266.216 306.19 265.76 308.326C265.304 310.438 265.052 312.022 265.004 313.078Z" fill="#618854"/>
<path d="M118.898 394.145H117.817V381.348H118.898V394.145ZM123.135 384.635L123.17 386.261C123.527 385.675 123.973 385.23 124.506 384.925C125.039 384.614 125.628 384.459 126.272 384.459C127.292 384.459 128.051 384.746 128.549 385.321C129.047 385.895 129.299 386.756 129.305 387.905V394.145H128.259V387.896C128.253 387.046 128.071 386.413 127.714 385.997C127.362 385.581 126.797 385.373 126.018 385.373C125.367 385.373 124.79 385.578 124.286 385.988C123.788 386.393 123.419 386.941 123.179 387.632V394.145H122.133V384.635H123.135ZM137.725 391.728C137.725 391.206 137.514 390.787 137.092 390.471C136.676 390.155 136.046 389.908 135.202 389.733C134.358 389.551 133.702 389.346 133.233 389.117C132.771 388.883 132.425 388.599 132.196 388.265C131.974 387.931 131.862 387.527 131.862 387.052C131.862 386.302 132.176 385.684 132.803 385.197C133.43 384.705 134.232 384.459 135.211 384.459C136.271 384.459 137.121 384.723 137.76 385.25C138.404 385.772 138.727 386.454 138.727 387.298H137.672C137.672 386.741 137.438 386.279 136.969 385.909C136.506 385.54 135.92 385.356 135.211 385.356C134.52 385.356 133.963 385.511 133.541 385.822C133.125 386.126 132.917 386.525 132.917 387.017C132.917 387.491 133.09 387.861 133.436 388.124C133.787 388.382 134.423 388.619 135.343 388.836C136.269 389.053 136.96 389.284 137.417 389.53C137.88 389.777 138.223 390.072 138.445 390.418C138.668 390.764 138.779 391.183 138.779 391.675C138.779 392.478 138.454 393.119 137.804 393.6C137.159 394.08 136.315 394.321 135.272 394.321C134.165 394.321 133.266 394.054 132.574 393.521C131.889 392.982 131.546 392.302 131.546 391.482H132.601C132.642 392.097 132.899 392.577 133.374 392.923C133.854 393.263 134.487 393.433 135.272 393.433C136.005 393.433 136.597 393.272 137.048 392.949C137.499 392.627 137.725 392.22 137.725 391.728ZM142.787 382.2V384.635H144.756V385.496H142.787V391.833C142.787 392.361 142.881 392.753 143.068 393.011C143.262 393.269 143.581 393.398 144.026 393.398C144.202 393.398 144.486 393.368 144.879 393.31L144.923 394.171C144.647 394.271 144.272 394.321 143.798 394.321C143.077 394.321 142.553 394.113 142.225 393.697C141.896 393.275 141.732 392.656 141.732 391.842V385.496H139.983V384.635H141.732V382.2H142.787ZM148.113 394.145H147.059V384.635H148.113V394.145ZM146.874 381.884C146.874 381.685 146.938 381.518 147.067 381.383C147.196 381.242 147.372 381.172 147.595 381.172C147.817 381.172 147.993 381.242 148.122 381.383C148.257 381.518 148.324 381.685 148.324 381.884C148.324 382.083 148.257 382.25 148.122 382.385C147.993 382.52 147.817 382.587 147.595 382.587C147.372 382.587 147.196 382.52 147.067 382.385C146.938 382.25 146.874 382.083 146.874 381.884ZM152.613 382.2V384.635H154.582V385.496H152.613V391.833C152.613 392.361 152.707 392.753 152.895 393.011C153.088 393.269 153.407 393.398 153.853 393.398C154.028 393.398 154.312 393.368 154.705 393.31L154.749 394.171C154.474 394.271 154.099 394.321 153.624 394.321C152.903 394.321 152.379 394.113 152.051 393.697C151.723 393.275 151.559 392.656 151.559 391.842V385.496H149.81V384.635H151.559V382.2H152.613ZM162.879 392.941C162.246 393.861 161.235 394.321 159.847 394.321C158.833 394.321 158.062 394.028 157.535 393.442C157.008 392.85 156.738 391.977 156.727 390.822V384.635H157.772V390.691C157.772 392.501 158.505 393.406 159.97 393.406C161.493 393.406 162.457 392.777 162.861 391.517V384.635H163.916V394.145H162.896L162.879 392.941ZM168.293 382.2V384.635H170.262V385.496H168.293V391.833C168.293 392.361 168.387 392.753 168.574 393.011C168.768 393.269 169.087 393.398 169.532 393.398C169.708 393.398 169.992 393.368 170.385 393.31L170.429 394.171C170.153 394.271 169.778 394.321 169.304 394.321C168.583 394.321 168.059 394.113 167.73 393.697C167.402 393.275 167.238 392.656 167.238 391.842V385.496H165.489V384.635H167.238V382.2H168.293ZM176.396 389.302C176.396 387.825 176.725 386.651 177.381 385.778C178.043 384.899 178.939 384.459 180.07 384.459C181.354 384.459 182.332 384.966 183.006 385.98V380.645H184.052V394.145H183.067L183.023 392.879C182.35 393.84 181.359 394.321 180.053 394.321C178.957 394.321 178.072 393.881 177.398 393.002C176.73 392.117 176.396 390.925 176.396 389.425V389.302ZM177.46 389.487C177.46 390.699 177.703 391.657 178.189 392.361C178.676 393.058 179.361 393.406 180.246 393.406C181.541 393.406 182.461 392.835 183.006 391.693V387.228C182.461 385.991 181.547 385.373 180.264 385.373C179.379 385.373 178.69 385.722 178.198 386.419C177.706 387.111 177.46 388.133 177.46 389.487ZM190.503 394.321C189.694 394.321 188.962 394.121 188.306 393.723C187.655 393.324 187.148 392.771 186.785 392.062C186.422 391.347 186.24 390.547 186.24 389.662V389.284C186.24 388.37 186.416 387.547 186.768 386.815C187.125 386.082 187.62 385.508 188.253 385.092C188.886 384.67 189.571 384.459 190.31 384.459C191.464 384.459 192.378 384.855 193.052 385.646C193.731 386.431 194.071 387.506 194.071 388.871V389.46H187.286V389.662C187.286 390.74 187.594 391.64 188.209 392.361C188.83 393.075 189.609 393.433 190.547 393.433C191.109 393.433 191.604 393.33 192.032 393.125C192.466 392.92 192.858 392.592 193.21 392.141L193.869 392.642C193.096 393.761 191.974 394.321 190.503 394.321ZM190.31 385.356C189.519 385.356 188.851 385.646 188.306 386.226C187.767 386.806 187.438 387.585 187.321 388.564H193.025V388.449C192.996 387.535 192.735 386.791 192.243 386.217C191.751 385.643 191.106 385.356 190.31 385.356ZM208.151 389.487C208.151 390.969 207.823 392.147 207.167 393.02C206.511 393.887 205.629 394.321 204.521 394.321C203.197 394.321 202.195 393.828 201.516 392.844L201.472 394.145H200.487V380.645H201.533V386.015C202.201 384.978 203.191 384.459 204.504 384.459C205.629 384.459 206.517 384.89 207.167 385.751C207.823 386.607 208.151 387.799 208.151 389.328V389.487ZM207.097 389.302C207.097 388.048 206.854 387.081 206.367 386.402C205.881 385.716 205.195 385.373 204.311 385.373C203.637 385.373 203.065 385.54 202.597 385.874C202.128 386.202 201.773 386.686 201.533 387.324V391.613C202.061 392.809 202.992 393.406 204.328 393.406C205.195 393.406 205.872 393.064 206.358 392.378C206.851 391.693 207.097 390.667 207.097 389.302ZM214.163 394.321C213.354 394.321 212.622 394.121 211.966 393.723C211.315 393.324 210.809 392.771 210.445 392.062C210.082 391.347 209.9 390.547 209.9 389.662V389.284C209.9 388.37 210.076 387.547 210.428 386.815C210.785 386.082 211.28 385.508 211.913 385.092C212.546 384.67 213.231 384.459 213.97 384.459C215.124 384.459 216.038 384.855 216.712 385.646C217.392 386.431 217.731 387.506 217.731 388.871V389.46H210.946V389.662C210.946 390.74 211.254 391.64 211.869 392.361C212.49 393.075 213.27 393.433 214.207 393.433C214.77 393.433 215.265 393.33 215.692 393.125C216.126 392.92 216.519 392.592 216.87 392.141L217.529 392.642C216.756 393.761 215.634 394.321 214.163 394.321ZM213.97 385.356C213.179 385.356 212.511 385.646 211.966 386.226C211.427 386.806 211.099 387.585 210.981 388.564H216.686V388.449C216.656 387.535 216.396 386.791 215.903 386.217C215.411 385.643 214.767 385.356 213.97 385.356ZM225.782 394.145C225.677 393.846 225.609 393.404 225.58 392.818C225.211 393.298 224.739 393.67 224.165 393.934C223.597 394.192 222.993 394.321 222.354 394.321C221.44 394.321 220.699 394.066 220.131 393.556C219.568 393.046 219.287 392.402 219.287 391.622C219.287 390.697 219.671 389.964 220.438 389.425C221.212 388.886 222.287 388.616 223.664 388.616H225.571V387.535C225.571 386.856 225.36 386.322 224.938 385.936C224.522 385.543 223.913 385.347 223.11 385.347C222.378 385.347 221.771 385.534 221.291 385.909C220.811 386.284 220.57 386.736 220.57 387.263L219.516 387.254C219.516 386.498 219.867 385.845 220.57 385.294C221.273 384.738 222.138 384.459 223.163 384.459C224.224 384.459 225.059 384.726 225.668 385.259C226.283 385.786 226.6 386.525 226.617 387.474V391.974C226.617 392.894 226.714 393.582 226.907 394.039V394.145H225.782ZM222.478 393.389C223.181 393.389 223.808 393.219 224.358 392.879C224.915 392.539 225.319 392.085 225.571 391.517V389.425H223.69C222.642 389.437 221.821 389.63 221.229 390.005C220.638 390.374 220.342 390.884 220.342 391.534C220.342 392.068 220.538 392.51 220.931 392.862C221.329 393.213 221.845 393.389 222.478 393.389ZM235.547 392.941C234.914 393.861 233.903 394.321 232.515 394.321C231.501 394.321 230.73 394.028 230.203 393.442C229.676 392.85 229.406 391.977 229.395 390.822V384.635H230.44V390.691C230.44 392.501 231.173 393.406 232.638 393.406C234.161 393.406 235.125 392.777 235.529 391.517V384.635H236.584V394.145H235.564L235.547 392.941ZM240.961 382.2V384.635H242.93V385.496H240.961V391.833C240.961 392.361 241.055 392.753 241.242 393.011C241.436 393.269 241.755 393.398 242.2 393.398C242.376 393.398 242.66 393.368 243.053 393.31L243.097 394.171C242.821 394.271 242.446 394.321 241.972 394.321C241.251 394.321 240.727 394.113 240.398 393.697C240.07 393.275 239.906 392.656 239.906 391.842V385.496H238.157V384.635H239.906V382.2H240.961ZM248.792 394.321C247.983 394.321 247.251 394.121 246.595 393.723C245.944 393.324 245.438 392.771 245.074 392.062C244.711 391.347 244.529 390.547 244.529 389.662V389.284C244.529 388.37 244.705 387.547 245.057 386.815C245.414 386.082 245.909 385.508 246.542 385.092C247.175 384.67 247.86 384.459 248.599 384.459C249.753 384.459 250.667 384.855 251.341 385.646C252.021 386.431 252.36 387.506 252.36 388.871V389.46H245.575V389.662C245.575 390.74 245.883 391.64 246.498 392.361C247.119 393.075 247.898 393.433 248.836 393.433C249.398 393.433 249.894 393.33 250.321 393.125C250.755 392.92 251.147 392.592 251.499 392.141L252.158 392.642C251.385 393.761 250.263 394.321 248.792 394.321ZM248.599 385.356C247.808 385.356 247.14 385.646 246.595 386.226C246.056 386.806 245.728 387.585 245.61 388.564H251.314V388.449C251.285 387.535 251.024 386.791 250.532 386.217C250.04 385.643 249.396 385.356 248.599 385.356ZM249.768 380.645H251.042L249.012 383.106H248.089L249.768 380.645Z" fill="#4D793E"/>
</svg>
