<svg width="252" height="252" viewBox="0 0 252 252" fill="none" xmlns="http://www.w3.org/2000/svg">
<path d="M126.036 241.278C110.423 241.278 95.2771 238.22 81.018 232.189C67.2465 226.364 54.8785 218.026 44.258 207.405C33.6376 196.785 25.2991 184.417 19.4743 170.646C13.443 156.387 10.3851 141.24 10.3851 125.629C10.3851 110.016 13.443 94.8711 19.4743 80.6123C25.2991 66.84 33.6376 54.4733 44.258 43.8528C54.8785 33.2323 67.2465 24.8931 81.018 19.0682C95.2771 13.0359 110.423 9.97884 126.036 9.97884C141.646 9.97884 156.791 13.0359 171.05 19.0682C184.822 24.8931 197.192 33.2323 207.812 43.8528C218.433 54.4733 226.769 66.84 232.594 80.6123C238.626 94.8711 241.683 110.016 241.683 125.629C241.683 141.24 238.626 156.387 232.594 170.646C226.769 184.417 218.433 196.785 207.812 207.405C197.192 218.026 184.822 226.364 171.05 232.189C156.791 238.22 141.646 241.278 126.036 241.278ZM126.036 13.5736C110.906 13.5736 96.2319 16.536 82.4183 22.3788C69.0751 28.0219 57.0915 36.1025 46.7997 46.3927C36.5083 56.6855 28.4284 68.6681 22.7848 82.0128C16.9423 95.8261 13.9797 110.5 13.9797 125.629C13.9797 140.756 16.9423 155.432 22.7848 169.245C28.4284 182.588 36.5083 194.572 46.7997 204.863C57.0915 215.155 69.0751 223.235 82.4183 228.878C96.2319 234.721 110.906 237.683 126.036 237.683C141.163 237.683 155.836 234.721 169.652 228.878C182.994 223.235 194.977 215.155 205.27 204.863C215.56 194.572 223.64 182.588 229.283 169.245C235.126 155.432 238.089 140.756 238.089 125.629C238.089 110.5 235.126 95.8261 229.283 82.0128C223.64 68.6681 215.56 56.6855 205.27 46.3927C194.977 36.1025 182.994 28.0219 169.652 22.3788C155.836 16.536 141.163 13.5736 126.036 13.5736Z" fill="#4D793E"/>
<path d="M126.036 241.278C110.423 241.278 95.2771 238.22 81.018 232.189C67.2465 226.364 54.8785 218.026 44.258 207.405C33.6376 196.785 25.2991 184.417 19.4743 170.646C13.443 156.387 10.3851 141.24 10.3851 125.629C10.3851 110.016 13.443 94.8711 19.4743 80.6123C25.2991 66.84 33.6376 54.4733 44.258 43.8528C54.8785 33.2323 67.2465 24.8931 81.018 19.0682C95.2771 13.0359 110.423 9.97884 126.036 9.97884C141.646 9.97884 156.791 13.0359 171.05 19.0682C184.822 24.8931 197.192 33.2323 207.812 43.8528C218.433 54.4733 226.769 66.84 232.594 80.6123C238.626 94.8711 241.683 110.016 241.683 125.629C241.683 141.24 238.626 156.387 232.594 170.646C226.769 184.417 218.433 196.785 207.812 207.405C197.192 218.026 184.822 226.364 171.05 232.189C156.791 238.22 141.646 241.278 126.036 241.278ZM126.036 13.5736C110.906 13.5736 96.2319 16.536 82.4183 22.3788C69.0751 28.0219 57.0915 36.1025 46.7997 46.3927C36.5083 56.6855 28.4284 68.6681 22.7848 82.0128C16.9423 95.8261 13.9797 110.5 13.9797 125.629C13.9797 140.756 16.9423 155.432 22.7848 169.245C28.4284 182.588 36.5083 194.572 46.7997 204.863C57.0915 215.155 69.0751 223.235 82.4183 228.878C96.2319 234.721 110.906 237.683 126.036 237.683C141.163 237.683 155.836 234.721 169.652 228.878C182.994 223.235 194.977 215.155 205.27 204.863C215.56 194.572 223.64 182.588 229.283 169.245C235.126 155.432 238.089 140.756 238.089 125.629C238.089 110.5 235.126 95.8261 229.283 82.0128C223.64 68.6681 215.56 56.6855 205.27 46.3927C194.977 36.1025 182.994 28.0219 169.652 22.3788C155.836 16.536 141.163 13.5736 126.036 13.5736Z" fill="#4D793E"/>
<path d="M126.036 251.256C109.077 251.256 92.6245 247.934 77.1353 241.383C69.691 238.234 62.5109 234.337 55.7949 229.799C49.1431 225.305 42.8882 220.145 37.2035 214.46C31.519 208.776 26.3581 202.521 21.8645 195.869C17.327 189.153 13.4299 181.973 10.2811 174.528C3.72973 159.04 0.407898 142.587 0.407898 125.627C0.407898 108.668 3.72973 92.2177 10.2811 76.7266C13.4299 69.2839 17.327 62.1033 21.8645 55.3867C26.3581 48.7357 31.519 42.4805 37.2035 36.7943C42.8882 31.1106 49.1431 25.9513 55.7949 21.4553C62.5109 16.9199 69.691 13.0215 77.1353 9.87297C92.6245 3.32156 109.077 0 126.036 0C142.995 0 159.449 3.32156 174.937 9.87297C182.38 13.0215 189.56 16.9199 196.277 21.4553C202.928 25.9513 209.183 31.1106 214.869 36.7943C220.553 42.4805 225.715 48.7357 230.208 55.3867C234.744 62.1033 238.642 69.2839 241.791 76.7266C248.342 92.2177 251.664 108.668 251.664 125.627C251.664 142.587 248.342 159.04 241.791 174.528C238.642 181.973 234.744 189.153 230.208 195.869C225.715 202.521 220.553 208.776 214.869 214.46C209.183 220.145 202.928 225.305 196.277 229.799C189.56 234.337 182.38 238.234 174.937 241.383C159.449 247.934 142.995 251.256 126.036 251.256ZM126.036 3.59421C109.561 3.59421 93.5793 6.82144 78.5357 13.1841C71.3051 16.2409 64.3311 20.0265 57.8072 24.436C51.345 28.801 45.2681 33.8135 39.7454 39.3372C34.2227 44.861 29.2089 50.9379 24.8429 57.4001C20.4357 63.9227 16.6501 70.8961 13.592 78.1265C7.22906 93.172 4.00265 109.153 4.00265 125.627C4.00265 142.104 7.22906 158.086 13.592 173.128C16.6501 180.359 20.4357 187.333 24.8429 193.857C29.2089 200.319 34.2227 206.396 39.7454 211.919C45.2681 217.441 51.345 222.455 57.8072 226.821C64.3311 231.228 71.3051 235.014 78.5357 238.072C93.5793 244.435 109.561 247.661 126.036 247.661C142.51 247.661 158.492 244.435 173.537 238.072C180.767 235.014 187.741 231.228 194.263 226.821C200.726 222.455 206.803 217.441 212.326 211.919C217.85 206.396 222.863 200.319 227.23 193.857C231.637 187.333 235.423 180.359 238.48 173.128C244.842 158.086 248.069 142.104 248.069 125.627C248.069 109.153 244.842 93.172 238.48 78.1265C235.423 70.8961 231.637 63.9227 227.23 57.4001C222.863 50.9379 217.85 44.861 212.326 39.3372C206.803 33.8135 200.726 28.801 194.263 24.436C187.741 20.0265 180.767 16.2409 173.537 13.1841C158.492 6.82144 142.51 3.59421 126.036 3.59421Z" fill="#596E57"/>
<path d="M126.036 251.256C109.077 251.256 92.6245 247.934 77.1353 241.383C69.691 238.234 62.5109 234.337 55.7949 229.799C49.1431 225.305 42.8882 220.145 37.2035 214.46C31.519 208.776 26.3581 202.521 21.8645 195.869C17.327 189.153 13.4299 181.973 10.2811 174.528C3.72973 159.04 0.407898 142.587 0.407898 125.627C0.407898 108.668 3.72973 92.2177 10.2811 76.7266C13.4299 69.2839 17.327 62.1033 21.8645 55.3867C26.3581 48.7357 31.519 42.4805 37.2035 36.7943C42.8882 31.1106 49.1431 25.9513 55.7949 21.4553C62.5109 16.9199 69.691 13.0215 77.1353 9.87297C92.6245 3.32156 109.077 0 126.036 0C142.995 0 159.449 3.32156 174.937 9.87297C182.38 13.0215 189.56 16.9199 196.277 21.4553C202.928 25.9513 209.183 31.1106 214.869 36.7943C220.553 42.4805 225.715 48.7357 230.208 55.3867C234.744 62.1033 238.642 69.2839 241.791 76.7266C248.342 92.2177 251.664 108.668 251.664 125.627C251.664 142.587 248.342 159.04 241.791 174.528C238.642 181.973 234.744 189.153 230.208 195.869C225.715 202.521 220.553 208.776 214.869 214.46C209.183 220.145 202.928 225.305 196.277 229.799C189.56 234.337 182.38 238.234 174.937 241.383C159.449 247.934 142.995 251.256 126.036 251.256ZM126.036 3.59421C109.561 3.59421 93.5793 6.82144 78.5357 13.1841C71.3051 16.2409 64.3311 20.0265 57.8072 24.436C51.345 28.801 45.2681 33.8135 39.7454 39.3372C34.2227 44.861 29.2089 50.9379 24.8429 57.4001C20.4357 63.9227 16.6501 70.8961 13.592 78.1265C7.22906 93.172 4.00265 109.153 4.00265 125.627C4.00265 142.104 7.22906 158.086 13.592 173.128C16.6501 180.359 20.4357 187.333 24.8429 193.857C29.2089 200.319 34.2227 206.396 39.7454 211.919C45.2681 217.441 51.345 222.455 57.8072 226.821C64.3311 231.228 71.3051 235.014 78.5357 238.072C93.5793 244.435 109.561 247.661 126.036 247.661C142.51 247.661 158.492 244.435 173.537 238.072C180.767 235.014 187.741 231.228 194.263 226.821C200.726 222.455 206.803 217.441 212.326 211.919C217.85 206.396 222.863 200.319 227.23 193.857C231.637 187.333 235.423 180.359 238.48 173.128C244.842 158.086 248.069 142.104 248.069 125.627C248.069 109.153 244.842 93.172 238.48 78.1265C235.423 70.8961 231.637 63.9227 227.23 57.4001C222.863 50.9379 217.85 44.861 212.326 39.3372C206.803 33.8135 200.726 28.801 194.263 24.436C187.741 20.0265 180.767 16.2409 173.537 13.1841C158.492 6.82144 142.51 3.59421 126.036 3.59421Z" fill="#596E57"/>
<path d="M180.626 111.427C180.291 111.427 179.95 111.332 179.647 111.136C178.815 110.595 178.579 109.481 179.12 108.649C186.199 97.7709 189.079 86.5103 187.685 75.18C186.239 63.4249 180.529 54.3632 175.992 48.8322C169.984 41.5023 161.506 35.4794 151.476 31.4169C142.709 27.8663 132.977 25.9108 124.074 25.9108C120.578 25.9108 117.052 26.0922 113.599 26.4525C112.61 26.5568 111.725 25.8387 111.623 24.8523C111.521 23.8659 112.237 22.9813 113.224 22.8795C116.804 22.5043 120.454 22.3154 124.074 22.3154C133.429 22.3154 143.639 24.3653 152.825 28.0849C163.412 32.3735 172.384 38.7592 178.772 46.5537C183.61 52.4524 189.7 62.1304 191.253 74.7402C191.964 80.5122 191.633 86.3512 190.272 92.0934C188.786 98.3648 186.048 104.594 182.134 110.609C181.789 111.139 181.212 111.427 180.626 111.427Z" fill="#4D793E"/>
<path d="M180.626 111.427C180.291 111.427 179.95 111.332 179.647 111.136C178.815 110.595 178.579 109.481 179.12 108.649C186.199 97.7709 189.079 86.5103 187.685 75.18C186.239 63.4249 180.529 54.3632 175.992 48.8322C169.984 41.5023 161.506 35.4794 151.476 31.4169C142.709 27.8663 132.977 25.9108 124.074 25.9108C120.578 25.9108 117.052 26.0922 113.599 26.4525C112.61 26.5568 111.725 25.8387 111.623 24.8523C111.521 23.8659 112.237 22.9813 113.224 22.8795C116.804 22.5043 120.454 22.3154 124.074 22.3154C133.429 22.3154 143.639 24.3653 152.825 28.0849C163.412 32.3735 172.384 38.7592 178.772 46.5537C183.61 52.4524 189.7 62.1304 191.253 74.7402C191.964 80.5122 191.633 86.3512 190.272 92.0934C188.786 98.3648 186.048 104.594 182.134 110.609C181.789 111.139 181.212 111.427 180.626 111.427Z" fill="#4D793E"/>
<path d="M124.072 228.941C121.791 228.941 119.483 228.865 117.214 228.717C116.222 228.652 115.473 227.796 115.538 226.806C115.602 225.815 116.46 225.068 117.447 225.13C119.639 225.273 121.869 225.346 124.072 225.346C137.536 225.346 150.595 222.71 162.887 217.51C174.76 212.488 185.426 205.298 194.583 196.14C203.742 186.98 210.932 176.316 215.954 164.441C221.154 152.149 223.79 139.09 223.79 125.628C223.79 117.742 222.867 109.893 221.047 102.297C219.277 94.917 216.65 87.7315 213.241 80.9398C212.796 80.0536 213.154 78.9729 214.04 78.5263C214.928 78.0821 216.007 78.4393 216.453 79.3278C219.987 86.3645 222.709 93.8111 224.543 101.459C226.428 109.329 227.385 117.461 227.385 125.628C227.385 139.574 224.653 153.104 219.265 165.843C214.063 178.146 206.614 189.194 197.125 198.681C187.638 208.169 176.589 215.618 164.286 220.821C151.55 226.209 138.019 228.941 124.072 228.941Z" fill="#4D793E"/>
<path d="M124.072 228.941C121.791 228.941 119.483 228.865 117.214 228.717C116.222 228.652 115.473 227.796 115.538 226.806C115.602 225.815 116.46 225.068 117.447 225.13C119.639 225.273 121.869 225.346 124.072 225.346C137.536 225.346 150.595 222.71 162.887 217.51C174.76 212.488 185.426 205.298 194.583 196.14C203.742 186.98 210.932 176.316 215.954 164.441C221.154 152.149 223.79 139.09 223.79 125.628C223.79 117.742 222.867 109.893 221.047 102.297C219.277 94.917 216.65 87.7315 213.241 80.9398C212.796 80.0536 213.154 78.9729 214.04 78.5263C214.928 78.0821 216.007 78.4393 216.453 79.3278C219.987 86.3645 222.709 93.8111 224.543 101.459C226.428 109.329 227.385 117.461 227.385 125.628C227.385 139.574 224.653 153.104 219.265 165.843C214.063 178.146 206.614 189.194 197.125 198.681C187.638 208.169 176.589 215.618 164.286 220.821C151.55 226.209 138.019 228.941 124.072 228.941Z" fill="#4D793E"/>
<path d="M69.811 174.631C65.0945 174.631 59.2747 173.077 53.4622 170.189C45.015 165.99 37.7663 159.58 33.0519 152.14C30.5907 148.254 28.8088 144.088 27.7556 139.758C26.6028 135.021 26.3159 130.045 26.9029 124.973C28.2222 113.569 33.9267 101.574 43.8575 89.3255C44.4829 88.5546 45.6146 88.4362 46.3856 89.0616C47.1567 89.687 47.2749 90.8194 46.6497 91.5902C37.1557 103.298 31.7135 114.67 30.4737 125.387C29.4373 134.346 31.3264 142.698 36.0886 150.216C44.7415 163.873 60.6388 171.037 69.8317 171.037C70.9724 171.037 72.0113 170.927 72.9193 170.704C76.6135 169.798 79.913 168.219 82.4582 166.131C84.7853 164.222 86.462 161.922 87.3035 159.48C88.5127 155.977 87.9247 152.453 85.6475 149.561C83.3225 146.605 80.4303 145.811 78.4149 145.668C75.2879 145.441 71.9552 146.625 69.7195 148.755C67.7062 150.673 66.7941 153.551 67.3405 156.266C67.7955 158.516 69.1274 160.216 70.9974 160.926C71.9261 161.278 72.3936 162.317 72.0404 163.245C71.6872 164.172 70.6483 164.639 69.7216 164.286C66.7172 163.146 64.5106 160.411 63.8167 156.977C63.0167 153.002 64.2966 148.957 67.2408 146.152C70.2307 143.305 74.5046 141.782 78.6725 142.081C82.6016 142.364 85.9904 144.182 88.4733 147.338C90.0108 149.293 90.9769 151.471 91.3468 153.812C91.7042 156.075 91.4881 158.375 90.7027 160.652C88.4857 167.081 82.1569 172.144 73.7732 174.195C72.5765 174.488 71.2446 174.631 69.811 174.631Z" fill="#4D793E"/>
<path d="M69.811 174.631C65.0945 174.631 59.2747 173.077 53.4622 170.189C45.015 165.99 37.7663 159.58 33.0519 152.14C30.5907 148.254 28.8088 144.088 27.7556 139.758C26.6028 135.021 26.3159 130.045 26.9029 124.973C28.2222 113.569 33.9267 101.574 43.8575 89.3255C44.4829 88.5546 45.6146 88.4362 46.3856 89.0616C47.1567 89.687 47.2749 90.8194 46.6497 91.5902C37.1557 103.298 31.7135 114.67 30.4737 125.387C29.4373 134.346 31.3264 142.698 36.0886 150.216C44.7415 163.873 60.6388 171.037 69.8317 171.037C70.9724 171.037 72.0113 170.927 72.9193 170.704C76.6135 169.798 79.913 168.219 82.4582 166.131C84.7853 164.222 86.462 161.922 87.3035 159.48C88.5127 155.977 87.9247 152.453 85.6475 149.561C83.3225 146.605 80.4303 145.811 78.4149 145.668C75.2879 145.441 71.9552 146.625 69.7195 148.755C67.7062 150.673 66.7941 153.551 67.3405 156.266C67.7955 158.516 69.1274 160.216 70.9974 160.926C71.9261 161.278 72.3936 162.317 72.0404 163.245C71.6872 164.172 70.6483 164.639 69.7216 164.286C66.7172 163.146 64.5106 160.411 63.8167 156.977C63.0167 153.002 64.2966 148.957 67.2408 146.152C70.2307 143.305 74.5046 141.782 78.6725 142.081C82.6016 142.364 85.9904 144.182 88.4733 147.338C90.0108 149.293 90.9769 151.471 91.3468 153.812C91.7042 156.075 91.4881 158.375 90.7027 160.652C88.4857 167.081 82.1569 172.144 73.7732 174.195C72.5765 174.488 71.2446 174.631 69.811 174.631Z" fill="#4D793E"/>
<path d="M28.1447 131.776C27.3115 131.776 26.5639 131.195 26.3871 130.347C23.9147 118.495 24.1316 106.54 27.032 94.8163C29.7435 83.852 34.7033 73.4152 41.7729 63.7967C48.5682 54.5481 56.9689 46.5023 66.7416 39.8813C76.52 33.2579 87.0981 28.4487 98.1819 25.5869C99.1433 25.3404 100.123 25.9171 100.371 26.8785C100.62 27.8398 100.041 28.8209 99.0802 29.0674C77.6497 34.5989 57.8178 48.0331 44.6695 65.924C37.8797 75.1628 33.1195 85.1757 30.5214 95.679C27.7517 106.875 27.5447 118.293 29.9059 129.612C30.1085 130.583 29.4854 131.537 28.5134 131.739C28.3897 131.764 28.2662 131.776 28.1447 131.776Z" fill="#4D793E"/>
<path d="M28.1447 131.776C27.3115 131.776 26.5639 131.195 26.3871 130.347C23.9147 118.495 24.1316 106.54 27.032 94.8163C29.7435 83.852 34.7033 73.4152 41.7729 63.7967C48.5682 54.5481 56.9689 46.5023 66.7416 39.8813C76.52 33.2579 87.0981 28.4487 98.1819 25.5869C99.1433 25.3404 100.123 25.9171 100.371 26.8785C100.62 27.8398 100.041 28.8209 99.0802 29.0674C77.6497 34.5989 57.8178 48.0331 44.6695 65.924C37.8797 75.1628 33.1195 85.1757 30.5214 95.679C27.7517 106.875 27.5447 118.293 29.9059 129.612C30.1085 130.583 29.4854 131.537 28.5134 131.739C28.3897 131.764 28.2662 131.776 28.1447 131.776Z" fill="#4D793E"/>
<path d="M72.859 133.113C70.7403 133.113 68.405 132.756 66.0007 131.765C57.8424 128.398 52.2572 118.997 52.0233 118.601C51.7376 118.115 51.6974 117.525 51.9121 117.005C52.1268 116.486 52.5717 116.096 53.1162 115.953C53.5629 115.834 64.1504 113.109 72.3106 116.474C80.7277 119.948 83.0764 128.364 83.1723 128.72C83.3832 129.506 83.0419 130.335 82.3382 130.743C82.1101 130.875 78.1642 133.113 72.859 133.113ZM56.5559 118.919C58.5672 121.703 62.5284 126.442 67.3735 128.442C72.2952 130.473 76.9601 129.155 79.1823 128.262C78.2275 126.059 75.8308 121.816 70.9397 119.799C66.0812 117.793 59.94 118.363 56.5559 118.919Z" fill="#4D793E"/>
<path d="M72.859 133.113C70.7403 133.113 68.405 132.756 66.0007 131.765C57.8424 128.398 52.2572 118.997 52.0233 118.601C51.7376 118.115 51.6974 117.525 51.9121 117.005C52.1268 116.486 52.5717 116.096 53.1162 115.953C53.5629 115.834 64.1504 113.109 72.3106 116.474C80.7277 119.948 83.0764 128.364 83.1723 128.72C83.3832 129.506 83.0419 130.335 82.3382 130.743C82.1101 130.875 78.1642 133.113 72.859 133.113ZM56.5559 118.919C58.5672 121.703 62.5284 126.442 67.3735 128.442C72.2952 130.473 76.9601 129.155 79.1823 128.262C78.2275 126.059 75.8308 121.816 70.9397 119.799C66.0812 117.793 59.94 118.363 56.5559 118.919Z" fill="#4D793E"/>
<path d="M88.3973 204.162C84.245 204.162 80.0405 203.213 76.0182 201.346C71.7976 199.389 69.2548 197.114 69.1475 197.018C68.5443 196.473 68.3817 195.591 68.7508 194.867C68.8158 194.74 70.3798 191.707 73.6218 188.37C77.927 183.94 83.2028 181.046 88.8786 179.997C94.543 178.952 101.197 179.545 108.658 181.763C114.164 183.399 118.002 185.317 118.163 185.398C118.665 185.652 119.02 186.125 119.122 186.678C119.225 187.231 119.062 187.8 118.683 188.214C118.561 188.348 115.663 191.511 111.104 195.005C104.927 199.741 98.923 202.673 93.2586 203.718C91.6571 204.014 90.0313 204.162 88.3973 204.162ZM72.7015 195.249C73.7372 196.007 75.4394 197.125 77.6408 198.137C82.6012 200.413 87.6348 201.102 92.6066 200.184C96.1005 199.538 101.758 197.628 108.862 192.194C111.139 190.453 112.999 188.777 114.253 187.577C112.653 186.904 110.318 186.003 107.569 185.189C102.835 183.787 95.8631 182.363 89.5305 183.532C84.5604 184.451 80.104 186.892 76.2849 190.79C74.5891 192.519 73.399 194.171 72.7015 195.249Z" fill="#4D793E"/>
<path d="M88.3973 204.162C84.245 204.162 80.0405 203.213 76.0182 201.346C71.7976 199.389 69.2548 197.114 69.1475 197.018C68.5443 196.473 68.3817 195.591 68.7508 194.867C68.8158 194.74 70.3798 191.707 73.6218 188.37C77.927 183.94 83.2028 181.046 88.8786 179.997C94.543 178.952 101.197 179.545 108.658 181.763C114.164 183.399 118.002 185.317 118.163 185.398C118.665 185.652 119.02 186.125 119.122 186.678C119.225 187.231 119.062 187.8 118.683 188.214C118.561 188.348 115.663 191.511 111.104 195.005C104.927 199.741 98.923 202.673 93.2586 203.718C91.6571 204.014 90.0313 204.162 88.3973 204.162ZM72.7015 195.249C73.7372 196.007 75.4394 197.125 77.6408 198.137C82.6012 200.413 87.6348 201.102 92.6066 200.184C96.1005 199.538 101.758 197.628 108.862 192.194C111.139 190.453 112.999 188.777 114.253 187.577C112.653 186.904 110.318 186.003 107.569 185.189C102.835 183.787 95.8631 182.363 89.5305 183.532C84.5604 184.451 80.104 186.892 76.2849 190.79C74.5891 192.519 73.399 194.171 72.7015 195.249Z" fill="#4D793E"/>
<path d="M94.5305 89.9466C93.908 89.9466 93.3176 89.6227 92.989 89.0713C92.9293 88.9725 91.5349 86.611 90.7584 83.041C89.7247 78.2903 90.2622 73.5855 92.3137 69.4367C97.0966 59.7652 109.743 53.3398 110.278 53.071C110.765 52.8252 111.335 52.816 111.831 53.0411C112.325 53.2686 112.69 53.705 112.826 54.2334C112.964 54.7756 116.152 67.6264 111.342 77.3553C106.444 87.2565 95.3874 89.8018 94.9187 89.9052C94.7901 89.9328 94.6592 89.9466 94.5305 89.9466ZM109.803 57.4519C106.15 59.6228 98.6955 64.64 95.5344 71.0309C93.8436 74.4539 93.4072 78.1961 94.2434 82.1566C94.5857 83.7784 95.0842 85.1131 95.4747 86.0068C96.4947 85.6691 98.0017 85.0902 99.658 84.1873C103.559 82.0601 106.407 79.2253 108.119 75.761C111.22 69.4918 110.446 61.3779 109.803 57.4519ZM109.729 76.5582H109.731H109.729Z" fill="#4D793E"/>
<path d="M94.5305 89.9466C93.908 89.9466 93.3176 89.6227 92.989 89.0713C92.9293 88.9725 91.5349 86.611 90.7584 83.041C89.7247 78.2903 90.2622 73.5855 92.3137 69.4367C97.0966 59.7652 109.743 53.3398 110.278 53.071C110.765 52.8252 111.335 52.816 111.831 53.0411C112.325 53.2686 112.69 53.705 112.826 54.2334C112.964 54.7756 116.152 67.6264 111.342 77.3553C106.444 87.2565 95.3874 89.8018 94.9187 89.9052C94.7901 89.9328 94.6592 89.9466 94.5305 89.9466ZM109.803 57.4519C106.15 59.6228 98.6955 64.64 95.5344 71.0309C93.8436 74.4539 93.4072 78.1961 94.2434 82.1566C94.5857 83.7784 95.0842 85.1131 95.4747 86.0068C96.4947 85.6691 98.0017 85.0902 99.658 84.1873C103.559 82.0601 106.407 79.2253 108.119 75.761C111.22 69.4918 110.446 61.3779 109.803 57.4519ZM109.729 76.5582H109.731H109.729Z" fill="#4D793E"/>
<path d="M198.368 83.3645C197.949 83.3645 197.534 83.2206 197.2 82.935C196.962 82.7339 191.403 77.8922 191.808 70.224C192.196 62.8323 198.059 55.8176 198.308 55.5229C198.669 55.0933 199.211 54.858 199.775 54.8877C200.337 54.9174 200.851 55.2098 201.167 55.6737C201.384 55.9936 206.474 63.5863 206.084 70.9757C205.679 78.6462 199.64 82.8733 199.384 83.0492C199.076 83.2617 198.722 83.3645 198.368 83.3645ZM199.51 59.9442C197.908 62.3273 195.607 66.4059 195.397 70.4136C195.182 74.4808 197.195 77.5631 198.491 79.1055C199.94 77.698 202.282 74.8258 202.494 70.7884L204.29 70.8821L202.494 70.7884C202.707 66.7669 200.851 62.4781 199.51 59.9442Z" fill="#4D793E"/>
<path d="M198.368 83.3645C197.949 83.3645 197.534 83.2206 197.2 82.935C196.962 82.7339 191.403 77.8922 191.808 70.224C192.196 62.8323 198.059 55.8176 198.308 55.5229C198.669 55.0933 199.211 54.858 199.775 54.8877C200.337 54.9174 200.851 55.2098 201.167 55.6737C201.384 55.9936 206.474 63.5863 206.084 70.9757C205.679 78.6462 199.64 82.8733 199.384 83.0492C199.076 83.2617 198.722 83.3645 198.368 83.3645ZM199.51 59.9442C197.908 62.3273 195.607 66.4059 195.397 70.4136C195.182 74.4808 197.195 77.5631 198.491 79.1055C199.94 77.698 202.282 74.8258 202.494 70.7884L204.29 70.8821L202.494 70.7884C202.707 66.7669 200.851 62.4781 199.51 59.9442Z" fill="#4D793E"/>
<path d="M161.432 83.16C156.226 83.16 149.658 82.1876 143.057 78.6298C136.348 75.0136 129.903 68.985 123.903 60.71C119.459 54.5856 116.988 49.5668 116.885 49.3564C116.63 48.8351 116.644 48.2227 116.918 47.7131C117.194 47.2035 117.696 46.8576 118.271 46.7828C118.505 46.7547 124.055 46.0581 131.614 46.3994C141.827 46.8646 150.406 48.931 157.112 52.5472C165.567 57.1031 170.448 63.9429 173.054 68.8775C175.878 74.2235 176.708 78.4896 176.743 78.6696C176.9 79.5041 176.453 80.3363 175.668 80.6612C175.5 80.7313 171.481 82.384 165.464 82.966C164.247 83.0829 162.893 83.16 161.432 83.16ZM121.366 50.1115C122.495 52.1218 124.363 55.2284 126.853 58.6553C133.917 68.3772 140.49 73.1623 144.761 75.4648C156.752 81.9258 168.763 79.1231 172.835 77.8491C172.379 76.2549 171.463 73.5339 169.819 70.446C166.367 63.9616 161.519 59.0059 155.408 55.7099C143.587 49.3401 127.598 49.6813 121.366 50.1115Z" fill="#4D793E"/>
<path d="M161.432 83.16C156.226 83.16 149.658 82.1876 143.057 78.6298C136.348 75.0136 129.903 68.985 123.903 60.71C119.459 54.5856 116.988 49.5668 116.885 49.3564C116.63 48.8351 116.644 48.2227 116.918 47.7131C117.194 47.2035 117.696 46.8576 118.271 46.7828C118.505 46.7547 124.055 46.0581 131.614 46.3994C141.827 46.8646 150.406 48.931 157.112 52.5472C165.567 57.1031 170.448 63.9429 173.054 68.8775C175.878 74.2235 176.708 78.4896 176.743 78.6696C176.9 79.5041 176.453 80.3363 175.668 80.6612C175.5 80.7313 171.481 82.384 165.464 82.966C164.247 83.0829 162.893 83.16 161.432 83.16ZM121.366 50.1115C122.495 52.1218 124.363 55.2284 126.853 58.6553C133.917 68.3772 140.49 73.1623 144.761 75.4648C156.752 81.9258 168.763 79.1231 172.835 77.8491C172.379 76.2549 171.463 73.5339 169.819 70.446C166.367 63.9616 161.519 59.0059 155.408 55.7099C143.587 49.3401 127.598 49.6813 121.366 50.1115Z" fill="#4D793E"/>
<path d="M86.731 166.282C86.3717 166.282 86.0087 166.175 85.6924 165.953C84.8839 165.378 84.6911 164.257 85.2657 163.447C89.2051 157.885 89.6112 151.792 89.2593 147.659C88.7784 141.997 86.7104 137.52 84.9382 135.22C79.9676 128.775 74.8343 127.474 69.3959 126.095C69.0272 126.001 68.6585 125.908 68.2898 125.812C67.3279 125.565 66.7496 124.585 66.9985 123.625C67.2456 122.663 68.2262 122.084 69.1863 122.331C69.5512 122.427 69.9161 122.519 70.2792 122.61C76.0694 124.079 82.0562 125.595 87.7847 133.025C92.7103 139.414 96.2473 154.161 88.1982 165.524C87.8483 166.018 87.2943 166.282 86.731 166.282Z" fill="#4D793E"/>
<path d="M86.731 166.282C86.3717 166.282 86.0087 166.175 85.6924 165.953C84.8839 165.378 84.6911 164.257 85.2657 163.447C89.2051 157.885 89.6112 151.792 89.2593 147.659C88.7784 141.997 86.7104 137.52 84.9382 135.22C79.9676 128.775 74.8343 127.474 69.3959 126.095C69.0272 126.001 68.6585 125.908 68.2898 125.812C67.3279 125.565 66.7496 124.585 66.9985 123.625C67.2456 122.663 68.2262 122.084 69.1863 122.331C69.5512 122.427 69.9161 122.519 70.2792 122.61C76.0694 124.079 82.0562 125.595 87.7847 133.025C92.7103 139.414 96.2473 154.161 88.1982 165.524C87.8483 166.018 87.2943 166.282 86.731 166.282Z" fill="#4D793E"/>
<path d="M28.1486 131.776C27.5883 131.776 27.0362 131.515 26.6854 131.025C26.1079 130.219 26.294 129.094 27.1013 128.518C27.1688 128.468 33.966 123.59 42.8117 115.946C50.9526 108.914 62.5457 98.0306 71.5431 86.1296C80.8468 73.8243 87.2387 58.3934 90.9624 47.614C95.0057 35.9102 96.8532 27.0535 96.8712 26.9647C97.0719 25.991 98.0226 25.3674 98.9948 25.567C99.967 25.7667 100.592 26.7182 100.392 27.6919C100.316 28.0592 98.4786 36.8666 94.3601 48.7873C91.9405 55.7928 89.2346 62.404 86.3178 68.4358C82.6585 76.0058 78.6524 82.6884 74.4104 88.2988C65.2147 100.461 53.4121 111.541 45.1302 118.695C36.1663 126.437 29.2613 131.392 29.1926 131.441C28.8758 131.668 28.5105 131.776 28.1486 131.776Z" fill="#4D793E"/>
<path d="M28.1486 131.776C27.5883 131.776 27.0362 131.515 26.6854 131.025C26.1079 130.219 26.294 129.094 27.1013 128.518C27.1688 128.468 33.966 123.59 42.8117 115.946C50.9526 108.914 62.5457 98.0306 71.5431 86.1296C80.8468 73.8243 87.2387 58.3934 90.9624 47.614C95.0057 35.9102 96.8532 27.0535 96.8712 26.9647C97.0719 25.991 98.0226 25.3674 98.9948 25.567C99.967 25.7667 100.592 26.7182 100.392 27.6919C100.316 28.0592 98.4786 36.8666 94.3601 48.7873C91.9405 55.7928 89.2346 62.404 86.3178 68.4358C82.6585 76.0058 78.6524 82.6884 74.4104 88.2988C65.2147 100.461 53.4121 111.541 45.1302 118.695C36.1663 126.437 29.2613 131.392 29.1926 131.441C28.8758 131.668 28.5105 131.776 28.1486 131.776Z" fill="#4D793E"/>
<path d="M205.991 186.928C205.609 186.928 205.222 186.808 204.897 186.556C197.282 180.698 191.406 173.759 187.43 165.926C183.68 158.538 181.781 150.712 181.781 142.661C181.781 135.402 183.467 127.516 186.796 119.222C189.434 112.644 193.108 105.789 197.716 98.8483C205.54 87.0589 213.244 79.1993 213.569 78.8701C214.265 78.1629 215.403 78.1562 216.111 78.8524C216.818 79.5485 216.825 80.6872 216.128 81.3944C216.051 81.4722 208.307 89.3763 200.672 100.892C196.21 107.622 192.659 114.252 190.116 120.595C186.969 128.45 185.375 135.874 185.375 142.661C185.375 150.14 187.145 157.422 190.637 164.298C194.369 171.649 199.902 178.178 207.088 183.707C207.875 184.312 208.022 185.44 207.417 186.227C207.063 186.687 206.53 186.928 205.991 186.928Z" fill="#4D793E"/>
<path d="M205.991 186.928C205.609 186.928 205.222 186.808 204.897 186.556C197.282 180.698 191.406 173.759 187.43 165.926C183.68 158.538 181.781 150.712 181.781 142.661C181.781 135.402 183.467 127.516 186.796 119.222C189.434 112.644 193.108 105.789 197.716 98.8483C205.54 87.0589 213.244 79.1993 213.569 78.8701C214.265 78.1629 215.403 78.1562 216.111 78.8524C216.818 79.5485 216.825 80.6872 216.128 81.3944C216.051 81.4722 208.307 89.3763 200.672 100.892C196.21 107.622 192.659 114.252 190.116 120.595C186.969 128.45 185.375 135.874 185.375 142.661C185.375 150.14 187.145 157.422 190.637 164.298C194.369 171.649 199.902 178.178 207.088 183.707C207.875 184.312 208.022 185.44 207.417 186.227C207.063 186.687 206.53 186.928 205.991 186.928Z" fill="#4D793E"/>
<path d="M205.99 186.929C205.754 186.929 205.511 186.882 205.28 186.782C204.369 186.388 203.948 185.33 204.342 184.419C207.52 177.057 210.135 167.459 211.7 157.389C213.722 144.388 214.079 130.757 212.756 116.876C212.662 115.89 213.386 115.012 214.375 114.916C215.361 114.823 216.241 115.549 216.334 116.535C217.684 130.714 217.321 144.644 215.252 157.941C213.64 168.303 210.939 178.213 207.643 185.844C207.349 186.524 206.687 186.929 205.99 186.929Z" fill="#4D793E"/>
<path d="M205.99 186.929C205.754 186.929 205.511 186.882 205.28 186.782C204.369 186.388 203.948 185.33 204.342 184.419C207.52 177.057 210.135 167.459 211.7 157.389C213.722 144.388 214.079 130.757 212.756 116.876C212.662 115.89 213.386 115.012 214.375 114.916C215.361 114.823 216.241 115.549 216.334 116.535C217.684 130.714 217.321 144.644 215.252 157.941C213.64 168.303 210.939 178.213 207.643 185.844C207.349 186.524 206.687 186.929 205.99 186.929Z" fill="#4D793E"/>
<path d="M117.333 228.721C116.856 228.721 116.381 228.533 116.028 228.158C115.345 227.439 115.376 226.3 116.095 225.619C117.207 224.566 118.369 223.192 119.601 221.735C124.444 216.009 131.079 208.164 145.078 206.937C150.578 206.454 156.578 207.749 162.43 210.686C166.818 212.886 169.584 215.222 169.701 215.32C170.457 215.964 170.548 217.097 169.904 217.854C169.26 218.61 168.127 218.702 167.371 218.058C167.348 218.038 164.76 215.864 160.733 213.856C157.088 212.038 151.466 209.984 145.393 210.517C132.867 211.615 127.032 218.513 122.344 224.057C121.048 225.59 119.824 227.039 118.569 228.228C118.221 228.556 117.775 228.721 117.333 228.721Z" fill="#4D793E"/>
<path d="M117.333 228.721C116.856 228.721 116.381 228.533 116.028 228.158C115.345 227.439 115.376 226.3 116.095 225.619C117.207 224.566 118.369 223.192 119.601 221.735C124.444 216.009 131.079 208.164 145.078 206.937C150.578 206.454 156.578 207.749 162.43 210.686C166.818 212.886 169.584 215.222 169.701 215.32C170.457 215.964 170.548 217.097 169.904 217.854C169.26 218.61 168.127 218.702 167.371 218.058C167.348 218.038 164.76 215.864 160.733 213.856C157.088 212.038 151.466 209.984 145.393 210.517C132.867 211.615 127.032 218.513 122.344 224.057C121.048 225.59 119.824 227.039 118.569 228.228C118.221 228.556 117.775 228.721 117.333 228.721Z" fill="#4D793E"/>
<path d="M170.613 207.11C169.652 207.11 168.706 207.064 167.775 206.975C161.487 206.375 155.74 203.48 151.594 198.826C147.476 194.205 145.209 188.167 145.209 181.821C145.209 171.116 153.918 162.407 164.622 162.407C173.386 162.407 180.515 169.536 180.515 178.297C180.515 185.507 174.65 191.369 167.441 191.369C161.477 191.369 156.623 186.518 156.623 180.554C156.623 179.56 157.428 178.755 158.422 178.755C159.413 178.755 160.218 179.56 160.218 180.554C160.218 184.535 163.46 187.776 167.441 187.776C172.667 187.776 176.92 183.524 176.92 178.297C176.92 171.517 171.403 166.002 164.622 166.002C155.901 166.002 148.804 173.099 148.804 181.821C148.804 187.284 150.748 192.474 154.278 196.433C157.821 200.41 162.735 202.881 168.118 203.398C174.642 204.023 182.155 202.146 189.271 198.115C195.763 194.439 201.298 189.365 204.459 184.194C204.975 183.346 206.082 183.079 206.93 183.598C207.776 184.116 208.043 185.221 207.527 186.069C204.057 191.745 198.05 197.275 191.044 201.243C184.286 205.071 177.139 207.11 170.613 207.11Z" fill="#4D793E"/>
<path d="M170.613 207.11C169.652 207.11 168.706 207.064 167.775 206.975C161.487 206.375 155.74 203.48 151.594 198.826C147.476 194.205 145.209 188.167 145.209 181.821C145.209 171.116 153.918 162.407 164.622 162.407C173.386 162.407 180.515 169.536 180.515 178.297C180.515 185.507 174.65 191.369 167.441 191.369C161.477 191.369 156.623 186.518 156.623 180.554C156.623 179.56 157.428 178.755 158.422 178.755C159.413 178.755 160.218 179.56 160.218 180.554C160.218 184.535 163.46 187.776 167.441 187.776C172.667 187.776 176.92 183.524 176.92 178.297C176.92 171.517 171.403 166.002 164.622 166.002C155.901 166.002 148.804 173.099 148.804 181.821C148.804 187.284 150.748 192.474 154.278 196.433C157.821 200.41 162.735 202.881 168.118 203.398C174.642 204.023 182.155 202.146 189.271 198.115C195.763 194.439 201.298 189.365 204.459 184.194C204.975 183.346 206.082 183.079 206.93 183.598C207.776 184.116 208.043 185.221 207.527 186.069C204.057 191.745 198.05 197.275 191.044 201.243C184.286 205.071 177.139 207.11 170.613 207.11Z" fill="#4D793E"/>
<path d="M91.6534 217.011C86.9647 217.011 82.4174 216.282 78.2872 214.847C71.8609 212.62 65.6243 209.316 59.7462 205.024C55.0609 201.604 50.5912 197.551 46.4627 192.981C39.4314 185.197 35.858 178.667 35.7098 178.393C35.2375 177.521 35.5598 176.43 36.4338 175.957C37.306 175.483 38.3954 175.807 38.8695 176.68C38.9039 176.743 42.4308 183.171 49.2001 190.647C53.1579 195.021 57.4363 198.894 61.9164 202.159C67.4911 206.22 73.3951 209.347 79.4645 211.452C84.5669 213.222 90.3933 213.811 96.3162 213.158C102.02 212.529 107.704 210.772 112.749 208.076C116.967 205.823 120.556 203.04 123.418 199.799C126.398 196.427 128.429 192.728 129.454 188.806C131.092 182.54 132.59 173.303 130.416 164.87C129.127 159.868 127.122 157.484 127.101 157.459L127.11 157.468L129.809 155.096C130.194 155.532 139.121 166.051 132.931 189.715C131.762 194.188 129.468 198.38 126.112 202.179C122.966 205.741 119.039 208.792 114.442 211.248C108.998 214.156 102.865 216.052 96.7093 216.732C95.0148 216.918 93.3255 217.011 91.6534 217.011Z" fill="#4D793E"/>
<path d="M91.6534 217.011C86.9647 217.011 82.4174 216.282 78.2872 214.847C71.8609 212.62 65.6243 209.316 59.7462 205.024C55.0609 201.604 50.5912 197.551 46.4627 192.981C39.4314 185.197 35.858 178.667 35.7098 178.393C35.2375 177.521 35.5598 176.43 36.4338 175.957C37.306 175.483 38.3954 175.807 38.8695 176.68C38.9039 176.743 42.4308 183.171 49.2001 190.647C53.1579 195.021 57.4363 198.894 61.9164 202.159C67.4911 206.22 73.3951 209.347 79.4645 211.452C84.5669 213.222 90.3933 213.811 96.3162 213.158C102.02 212.529 107.704 210.772 112.749 208.076C116.967 205.823 120.556 203.04 123.418 199.799C126.398 196.427 128.429 192.728 129.454 188.806C131.092 182.54 132.59 173.303 130.416 164.87C129.127 159.868 127.122 157.484 127.101 157.459L127.11 157.468L129.809 155.096C130.194 155.532 139.121 166.051 132.931 189.715C131.762 194.188 129.468 198.38 126.112 202.179C122.966 205.741 119.039 208.792 114.442 211.248C108.998 214.156 102.865 216.052 96.7093 216.732C95.0148 216.918 93.3255 217.011 91.6534 217.011Z" fill="#4D793E"/>
<path d="M134.175 37.8775C127.382 37.8775 122.188 36.5997 118.295 33.9719C115.243 31.9124 113.092 29.0688 111.722 25.2773C111.382 24.3443 111.866 23.3145 112.799 22.977C113.732 22.6396 114.764 23.121 115.101 24.054C116.221 27.1457 117.873 29.3516 120.307 30.9943C123.54 33.1754 128.205 34.2821 134.175 34.2821C142.128 34.2821 148.148 27.6494 148.207 27.5824C148.87 26.843 150.006 26.7785 150.746 27.441C151.485 28.101 151.55 29.2375 150.887 29.9794C150.599 30.302 143.716 37.8775 134.175 37.8775Z" fill="#4D793E"/>
<path d="M134.175 37.8775C127.382 37.8775 122.188 36.5997 118.295 33.9719C115.243 31.9124 113.092 29.0688 111.722 25.2773C111.382 24.3443 111.866 23.3145 112.799 22.977C113.732 22.6396 114.764 23.121 115.101 24.054C116.221 27.1457 117.873 29.3516 120.307 30.9943C123.54 33.1754 128.205 34.2821 134.175 34.2821C142.128 34.2821 148.148 27.6494 148.207 27.5824C148.87 26.843 150.006 26.7785 150.746 27.441C151.485 28.101 151.55 29.2375 150.887 29.9794C150.599 30.302 143.716 37.8775 134.175 37.8775Z" fill="#4D793E"/>
<path d="M180.63 111.427C180.557 111.427 180.483 111.422 180.409 111.413C179.425 111.293 178.723 110.396 178.844 109.41C179.81 101.483 179.524 94.7006 177.995 89.2571C176.651 84.4708 174.366 80.6122 171.013 77.4556C164.669 71.4867 155.313 68.936 146.266 66.4702C145.309 66.2087 144.743 65.2205 145.005 64.2637C145.264 63.3069 146.252 62.7413 147.211 63.0029C156.683 65.5849 166.477 68.2542 173.474 74.8378C177.32 78.4527 179.928 82.8522 181.455 88.2846C183.136 94.2714 183.449 101.324 182.412 109.846C182.3 110.758 181.525 111.427 180.63 111.427Z" fill="#4D793E"/>
<path d="M180.63 111.427C180.557 111.427 180.483 111.422 180.409 111.413C179.425 111.293 178.723 110.396 178.844 109.41C179.81 101.483 179.524 94.7006 177.995 89.2571C176.651 84.4708 174.366 80.6122 171.013 77.4556C164.669 71.4867 155.313 68.936 146.266 66.4702C145.309 66.2087 144.743 65.2205 145.005 64.2637C145.264 63.3069 146.252 62.7413 147.211 63.0029C156.683 65.5849 166.477 68.2542 173.474 74.8378C177.32 78.4527 179.928 82.8522 181.455 88.2846C183.136 94.2714 183.449 101.324 182.412 109.846C182.3 110.758 181.525 111.427 180.63 111.427Z" fill="#4D793E"/>
<path d="M92.6161 99.7193C92.5898 99.7193 92.5634 99.7193 92.5371 99.7171C91.5449 99.6732 90.7767 98.8347 90.8206 97.8426C91.3276 86.2572 98.5427 74.3227 100.913 70.4002C101.427 69.5507 102.531 69.2785 103.381 69.7922C104.23 70.3058 104.502 71.4099 103.989 72.2594C101.737 75.9866 94.8792 87.3327 94.4117 98.0006C94.3699 98.9642 93.5732 99.7193 92.6161 99.7193Z" fill="#4D793E"/>
<path d="M92.6161 99.7193C92.5898 99.7193 92.5634 99.7193 92.5371 99.7171C91.5449 99.6732 90.7767 98.8347 90.8206 97.8426C91.3276 86.2572 98.5427 74.3227 100.913 70.4002C101.427 69.5507 102.531 69.2785 103.381 69.7922C104.23 70.3058 104.502 71.4099 103.989 72.2594C101.737 75.9866 94.8792 87.3327 94.4117 98.0006C94.3699 98.9642 93.5732 99.7193 92.6161 99.7193Z" fill="#4D793E"/>
<path d="M74.2975 197.378C71.1102 197.378 67.9044 197.182 64.7294 196.708C58.8286 195.826 53.5252 194.02 48.9657 191.339C43.7565 188.276 39.3205 183.961 35.7812 178.518C35.241 177.684 35.4772 176.571 36.3091 176.031C37.1411 175.489 38.2555 175.725 38.7957 176.557C44.9202 185.98 53.5761 191.409 65.2588 193.151C75.6666 194.704 86.6068 193.099 96.0437 191.471C97.0223 191.304 97.9515 191.958 98.1197 192.937C98.2895 193.915 97.632 194.845 96.6549 195.014C89.7633 196.201 82.0829 197.378 74.2975 197.378Z" fill="#4D793E"/>
<path d="M74.2975 197.378C71.1102 197.378 67.9044 197.182 64.7294 196.708C58.8286 195.826 53.5252 194.02 48.9657 191.339C43.7565 188.276 39.3205 183.961 35.7812 178.518C35.241 177.684 35.4772 176.571 36.3091 176.031C37.1411 175.489 38.2555 175.725 38.7957 176.557C44.9202 185.98 53.5761 191.409 65.2588 193.151C75.6666 194.704 86.6068 193.099 96.0437 191.471C97.0223 191.304 97.9515 191.958 98.1197 192.937C98.2895 193.915 97.632 194.845 96.6549 195.014C89.7633 196.201 82.0829 197.378 74.2975 197.378Z" fill="#4D793E"/>
<path d="M144.083 222.445C138.339 222.445 135.417 221.574 135.187 221.501C134.24 221.206 133.712 220.197 134.009 219.251C134.304 218.304 135.309 217.776 136.254 218.069C136.312 218.085 138.909 218.845 144.061 218.847C144.069 218.847 144.077 218.847 144.085 218.847C148.886 218.847 156.934 218.172 168.036 214.964C168.99 214.686 169.985 215.237 170.261 216.189C170.538 217.144 169.987 218.141 169.035 218.416C157.954 221.619 149.679 222.445 144.083 222.445Z" fill="#4D793E"/>
<path d="M144.083 222.445C138.339 222.445 135.417 221.574 135.187 221.501C134.24 221.206 133.712 220.197 134.009 219.251C134.304 218.304 135.309 217.776 136.254 218.069C136.312 218.085 138.909 218.845 144.061 218.847C144.069 218.847 144.077 218.847 144.085 218.847C148.886 218.847 156.934 218.172 168.036 214.964C168.99 214.686 169.985 215.237 170.261 216.189C170.538 217.144 169.987 218.141 169.035 218.416C157.954 221.619 149.679 222.445 144.083 222.445Z" fill="#4D793E"/>
<path d="M180.628 111.427C180.16 111.427 179.692 111.243 179.339 110.881C178.648 110.169 178.663 109.031 179.375 108.34C190.819 97.2087 195.028 86.8239 196.543 80.0711C196.761 79.1022 197.723 78.4925 198.69 78.7107C199.659 78.9268 200.269 79.8893 200.051 80.8583C198.427 88.0859 193.959 99.1702 181.88 110.918C181.531 111.255 181.08 111.427 180.628 111.427Z" fill="#4D793E"/>
<path d="M180.628 111.427C180.16 111.427 179.692 111.243 179.339 110.881C178.648 110.169 178.663 109.031 179.375 108.34C190.819 97.2087 195.028 86.8239 196.543 80.0711C196.761 79.1022 197.723 78.4925 198.69 78.7107C199.659 78.9268 200.269 79.8893 200.051 80.8583C198.427 88.0859 193.959 99.1702 181.88 110.918C181.531 111.255 181.08 111.427 180.628 111.427Z" fill="#4D793E"/>
<path d="M128.46 158.081C128.436 158.081 128.41 158.079 128.384 158.079C127.391 158.037 126.621 157.2 126.663 156.207C126.784 153.325 126.748 145.593 123.803 136.067C121.115 127.376 116.759 119.973 111.208 114.66C106.707 110.356 101.274 107.56 95.9115 106.788C91.4044 106.14 87.3033 106.973 84.9414 109.017C84.1892 109.666 83.055 109.584 82.4063 108.834C81.7556 108.084 81.8372 106.948 82.5893 106.299C85.7274 103.583 90.899 102.435 96.4249 103.231C102.522 104.108 108.655 107.244 113.691 112.064C116.897 115.128 119.72 118.797 122.088 122.964C124.166 126.621 125.899 130.673 127.238 135.007C129.427 142.089 130.527 149.871 130.255 156.358C130.215 157.325 129.419 158.079 128.46 158.081Z" fill="#4D793E"/>
<path d="M128.46 158.081C128.436 158.081 128.41 158.079 128.384 158.079C127.391 158.037 126.621 157.2 126.663 156.207C126.784 153.325 126.748 145.593 123.803 136.067C121.115 127.376 116.759 119.973 111.208 114.66C106.707 110.356 101.274 107.56 95.9115 106.788C91.4044 106.14 87.3033 106.973 84.9414 109.017C84.1892 109.666 83.055 109.584 82.4063 108.834C81.7556 108.084 81.8372 106.948 82.5893 106.299C85.7274 103.583 90.899 102.435 96.4249 103.231C102.522 104.108 108.655 107.244 113.691 112.064C116.897 115.128 119.72 118.797 122.088 122.964C124.166 126.621 125.899 130.673 127.238 135.007C129.427 142.089 130.527 149.871 130.255 156.358C130.215 157.325 129.419 158.079 128.46 158.081Z" fill="#4D793E"/>
<path d="M124.505 158.994C121.086 158.994 116.794 157.884 111.734 155.691C105.543 153.007 101.05 148.913 98.0033 143.176C95.3881 138.253 94.1851 132.751 93.1241 127.897C92.7119 126.006 92.3214 124.217 91.8678 122.519C89.8088 114.804 86.9886 110.505 83.2474 109.378C82.2968 109.092 81.7584 108.091 82.0444 107.14C82.3303 106.189 83.3322 105.651 84.2828 105.937C89.3158 107.452 92.9328 112.573 95.3408 121.592C95.8141 123.369 96.2145 125.197 96.6365 127.13C97.6976 131.984 98.7941 137.003 101.177 141.489C103.827 146.479 107.75 150.045 113.163 152.394C123.957 157.072 127.318 154.892 127.351 154.869C127.296 154.906 127.272 154.932 127.272 154.932L129.645 157.634C129.324 157.916 128.053 158.847 125.198 158.979C124.971 158.989 124.74 158.994 124.505 158.994Z" fill="#4D793E"/>
<path d="M124.505 158.994C121.086 158.994 116.794 157.884 111.734 155.691C105.543 153.007 101.05 148.913 98.0033 143.176C95.3881 138.253 94.1851 132.751 93.1241 127.897C92.7119 126.006 92.3214 124.217 91.8678 122.519C89.8088 114.804 86.9886 110.505 83.2474 109.378C82.2968 109.092 81.7584 108.091 82.0444 107.14C82.3303 106.189 83.3322 105.651 84.2828 105.937C89.3158 107.452 92.9328 112.573 95.3408 121.592C95.8141 123.369 96.2145 125.197 96.6365 127.13C97.6976 131.984 98.7941 137.003 101.177 141.489C103.827 146.479 107.75 150.045 113.163 152.394C123.957 157.072 127.318 154.892 127.351 154.869C127.296 154.906 127.272 154.932 127.272 154.932L129.645 157.634C129.324 157.916 128.053 158.847 125.198 158.979C124.971 158.989 124.74 158.994 124.505 158.994Z" fill="#4D793E"/>
<path d="M128.458 158.081C128.233 158.081 128.007 158.038 127.786 157.949C114.193 152.45 109.825 140 106.315 129.999C105.09 126.505 103.931 123.204 102.529 120.599C96.6271 109.641 88.3758 108.905 83.9838 109.442C82.9972 109.562 82.1015 108.862 81.9811 107.875C81.8607 106.89 82.5612 105.995 83.5477 105.874C87.5905 105.379 91.6116 106.089 95.1789 107.928C99.4111 110.11 102.951 113.8 105.693 118.895C107.23 121.748 108.434 125.177 109.708 128.807C113.148 138.613 117.048 149.728 129.133 154.617C130.055 154.99 130.499 156.037 130.126 156.957C129.844 157.657 129.169 158.081 128.458 158.081Z" fill="#4D793E"/>
<path d="M128.458 158.081C128.233 158.081 128.007 158.038 127.786 157.949C114.193 152.45 109.825 140 106.315 129.999C105.09 126.505 103.931 123.204 102.529 120.599C96.6271 109.641 88.3758 108.905 83.9838 109.442C82.9972 109.562 82.1015 108.862 81.9811 107.875C81.8607 106.89 82.5612 105.995 83.5477 105.874C87.5905 105.379 91.6116 106.089 95.1789 107.928C99.4111 110.11 102.951 113.8 105.693 118.895C107.23 121.748 108.434 125.177 109.708 128.807C113.148 138.613 117.048 149.728 129.133 154.617C130.055 154.99 130.499 156.037 130.126 156.957C129.844 157.657 129.169 158.081 128.458 158.081Z" fill="#4D793E"/>
<path d="M107.888 110.951C107.622 110.951 107.352 110.89 107.099 110.766C106.207 110.329 105.841 109.25 106.278 108.361C106.366 108.181 108.479 103.907 112.153 99.0368C117.164 92.3973 122.449 88.0568 127.857 86.1347C128.791 85.8018 129.819 86.2917 130.152 87.2256C130.485 88.1615 129.997 89.1896 129.061 89.5225C117.652 93.5761 109.584 109.782 109.505 109.946C109.191 110.58 108.552 110.951 107.888 110.951Z" fill="#4D793E"/>
<path d="M107.888 110.951C107.622 110.951 107.352 110.89 107.099 110.766C106.207 110.329 105.841 109.25 106.278 108.361C106.366 108.181 108.479 103.907 112.153 99.0368C117.164 92.3973 122.449 88.0568 127.857 86.1347C128.791 85.8018 129.819 86.2917 130.152 87.2256C130.485 88.1615 129.997 89.1896 129.061 89.5225C117.652 93.5761 109.584 109.782 109.505 109.946C109.191 110.58 108.552 110.951 107.888 110.951Z" fill="#4D793E"/>
<path d="M128.533 158.081C127.574 158.081 126.778 157.325 126.738 156.358C126.466 149.871 127.566 142.089 129.757 135.007C131.096 130.673 132.827 126.621 134.905 122.964C137.273 118.797 140.098 115.128 143.302 112.064C148.339 107.244 154.471 104.108 160.57 103.231C166.094 102.435 171.266 103.583 174.406 106.299C175.156 106.948 175.238 108.084 174.589 108.834C173.938 109.584 172.804 109.666 172.054 109.017C169.69 106.973 165.589 106.14 161.082 106.788C155.719 107.56 150.287 110.356 145.787 114.66C140.234 119.973 135.878 127.376 133.19 136.067C130.245 145.593 130.209 153.325 130.33 156.207C130.372 157.2 129.602 158.037 128.609 158.079C128.585 158.079 128.559 158.081 128.533 158.081Z" fill="#4D793E"/>
<path d="M128.533 158.081C127.574 158.081 126.778 157.325 126.738 156.358C126.466 149.871 127.566 142.089 129.757 135.007C131.096 130.673 132.827 126.621 134.905 122.964C137.273 118.797 140.098 115.128 143.302 112.064C148.339 107.244 154.471 104.108 160.57 103.231C166.094 102.435 171.266 103.583 174.406 106.299C175.156 106.948 175.238 108.084 174.589 108.834C173.938 109.584 172.804 109.666 172.054 109.017C169.69 106.973 165.589 106.14 161.082 106.788C155.719 107.56 150.287 110.356 145.787 114.66C140.234 119.973 135.878 127.376 133.19 136.067C130.245 145.593 130.209 153.325 130.33 156.207C130.372 157.2 129.602 158.037 128.609 158.079C128.585 158.079 128.559 158.081 128.533 158.081Z" fill="#4D793E"/>
<path d="M132.487 158.994C132.252 158.994 132.021 158.989 131.794 158.979C128.939 158.847 127.669 157.916 127.347 157.634L129.72 154.932C129.72 154.932 129.696 154.906 129.643 154.869C129.674 154.892 133.035 157.072 143.829 152.394C149.244 150.045 153.165 146.479 155.816 141.489C158.2 137.003 159.296 131.984 160.355 127.13C160.779 125.197 161.178 123.369 161.653 121.592C164.059 112.573 167.676 107.452 172.711 105.937C173.66 105.651 174.664 106.189 174.95 107.14C175.236 108.091 174.697 109.092 173.747 109.378C170.005 110.505 167.185 114.804 165.126 122.519C164.673 124.217 164.282 126.006 163.868 127.897C162.807 132.753 161.606 138.253 158.991 143.176C155.942 148.913 151.451 153.007 145.258 155.691C140.198 157.884 135.906 158.994 132.487 158.994Z" fill="#4D793E"/>
<path d="M132.487 158.994C132.252 158.994 132.021 158.989 131.794 158.979C128.939 158.847 127.669 157.916 127.347 157.634L129.72 154.932C129.72 154.932 129.696 154.906 129.643 154.869C129.674 154.892 133.035 157.072 143.829 152.394C149.244 150.045 153.165 146.479 155.816 141.489C158.2 137.003 159.296 131.984 160.355 127.13C160.779 125.197 161.178 123.369 161.653 121.592C164.059 112.573 167.676 107.452 172.711 105.937C173.66 105.651 174.664 106.189 174.95 107.14C175.236 108.091 174.697 109.092 173.747 109.378C170.005 110.505 167.185 114.804 165.126 122.519C164.673 124.217 164.282 126.006 163.868 127.897C162.807 132.753 161.606 138.253 158.991 143.176C155.942 148.913 151.451 153.007 145.258 155.691C140.198 157.884 135.906 158.994 132.487 158.994Z" fill="#4D793E"/>
<path d="M128.535 158.081C127.825 158.081 127.152 157.657 126.868 156.957C126.497 156.037 126.941 154.99 127.861 154.617C139.946 149.728 143.846 138.613 147.287 128.807C148.56 125.177 149.763 121.748 151.3 118.895C154.045 113.8 157.583 110.11 161.817 107.928C165.382 106.089 169.403 105.379 173.448 105.874C174.433 105.995 175.133 106.89 175.013 107.875C174.892 108.862 173.996 109.562 173.012 109.442C168.618 108.905 160.367 109.641 154.465 120.599C153.062 123.204 151.904 126.505 150.679 129.999C147.169 140 142.801 152.45 129.208 157.949C128.987 158.038 128.76 158.081 128.535 158.081Z" fill="#4D793E"/>
<path d="M128.535 158.081C127.825 158.081 127.152 157.657 126.868 156.957C126.497 156.037 126.941 154.99 127.861 154.617C139.946 149.728 143.846 138.613 147.287 128.807C148.56 125.177 149.763 121.748 151.3 118.895C154.045 113.8 157.583 110.11 161.817 107.928C165.382 106.089 169.403 105.379 173.448 105.874C174.433 105.995 175.133 106.89 175.013 107.875C174.892 108.862 173.996 109.562 173.012 109.442C168.618 108.905 160.367 109.641 154.465 120.599C153.062 123.204 151.904 126.505 150.679 129.999C147.169 140 142.801 152.45 129.208 157.949C128.987 158.038 128.76 158.081 128.535 158.081Z" fill="#4D793E"/>
<path d="M149.103 110.951C148.439 110.951 147.801 110.58 147.489 109.946C147.388 109.738 139.304 93.5636 127.933 89.5225C126.997 89.1896 126.509 88.1615 126.84 87.2256C127.172 86.2917 128.201 85.8018 129.136 86.1347C134.545 88.0568 139.828 92.3973 144.84 99.0368C148.513 103.907 150.627 108.181 150.715 108.361C151.153 109.25 150.787 110.329 149.895 110.766C149.639 110.89 149.369 110.951 149.103 110.951Z" fill="#4D793E"/>
<path d="M149.103 110.951C148.439 110.951 147.801 110.58 147.489 109.946C147.388 109.738 139.304 93.5636 127.933 89.5225C126.997 89.1896 126.509 88.1615 126.84 87.2256C127.172 86.2917 128.201 85.8018 129.136 86.1347C134.545 88.0568 139.828 92.3973 144.84 99.0368C148.513 103.907 150.627 108.181 150.715 108.361C151.153 109.25 150.787 110.329 149.895 110.766C149.639 110.89 149.369 110.951 149.103 110.951Z" fill="#4D793E"/>
<path d="M128.46 158.08C127.467 158.08 126.661 157.276 126.661 156.284V87.8263C126.661 86.8339 127.467 86.0299 128.46 86.0299C129.452 86.0299 130.256 86.8339 130.256 87.8263V156.284C130.256 157.276 129.452 158.08 128.46 158.08Z" fill="#4D793E"/>
<path d="M128.46 158.08C127.467 158.08 126.661 157.276 126.661 156.284V87.8263C126.661 86.8339 127.467 86.0299 128.46 86.0299C129.452 86.0299 130.256 86.8339 130.256 87.8263V156.284C130.256 157.276 129.452 158.08 128.46 158.08Z" fill="#4D793E"/>
<path d="M124.703 183.981C123.933 183.981 123.221 183.481 122.984 182.708C120.957 176.062 117.091 171.385 111.491 168.804C107.25 166.849 103.534 166.869 103.496 166.874C103.489 166.874 103.481 166.874 103.474 166.874C102.493 166.874 101.69 166.087 101.675 165.104C101.66 164.113 102.445 163.298 103.436 163.28C103.615 163.276 107.879 163.225 112.836 165.467C117.413 167.537 123.484 172.025 126.423 181.658C126.712 182.607 126.177 183.612 125.228 183.901C125.054 183.954 124.877 183.981 124.703 183.981Z" fill="#4D793E"/>
<path d="M124.703 183.981C123.933 183.981 123.221 183.481 122.984 182.708C120.957 176.062 117.091 171.385 111.491 168.804C107.25 166.849 103.534 166.869 103.496 166.874C103.489 166.874 103.481 166.874 103.474 166.874C102.493 166.874 101.69 166.087 101.675 165.104C101.66 164.113 102.445 163.298 103.436 163.28C103.615 163.276 107.879 163.225 112.836 165.467C117.413 167.537 123.484 172.025 126.423 181.658C126.712 182.607 126.177 183.612 125.228 183.901C125.054 183.954 124.877 183.981 124.703 183.981Z" fill="#4D793E"/>
<path d="M164.44 96.0521C162.076 96.0521 159.756 95.7323 157.567 95.0968C153.865 94.0224 150.709 92.1201 148.436 89.5971C147.772 88.8592 147.832 87.722 148.57 87.0573C149.308 86.3947 150.443 86.4532 151.108 87.1911C154.105 90.521 160.669 93.7632 169.311 91.9446C170.281 91.7397 171.234 92.3605 171.439 93.3325C171.643 94.3046 171.023 95.2578 170.051 95.4626C168.178 95.8556 166.294 96.0521 164.44 96.0521Z" fill="#4D793E"/>
<path d="M164.44 96.0521C162.076 96.0521 159.756 95.7323 157.567 95.0968C153.865 94.0224 150.709 92.1201 148.436 89.5971C147.772 88.8592 147.832 87.722 148.57 87.0573C149.308 86.3947 150.443 86.4532 151.108 87.1911C154.105 90.521 160.669 93.7632 169.311 91.9446C170.281 91.7397 171.234 92.3605 171.439 93.3325C171.643 94.3046 171.023 95.2578 170.051 95.4626C168.178 95.8556 166.294 96.0521 164.44 96.0521Z" fill="#4D793E"/>
<path d="M173.663 153.306C172.905 153.306 172.198 152.823 171.952 152.063C170.483 147.513 169.729 143.041 169.714 138.774C169.7 135.332 170.165 132.014 171.092 128.91C172.696 123.555 175.147 120.668 175.25 120.549C175.899 119.797 177.033 119.711 177.785 120.36C178.535 121.006 178.622 122.136 177.98 122.888C177.247 123.754 175.574 126.38 174.48 130.134C173.678 132.885 173.285 135.835 173.308 138.903C173.34 142.756 174.035 146.811 175.373 150.957C175.678 151.902 175.161 152.914 174.216 153.219C174.033 153.278 173.846 153.306 173.663 153.306Z" fill="#4D793E"/>
<path d="M173.663 153.306C172.905 153.306 172.198 152.823 171.952 152.063C170.483 147.513 169.729 143.041 169.714 138.774C169.7 135.332 170.165 132.014 171.092 128.91C172.696 123.555 175.147 120.668 175.25 120.549C175.899 119.797 177.033 119.711 177.785 120.36C178.535 121.006 178.622 122.136 177.98 122.888C177.247 123.754 175.574 126.38 174.48 130.134C173.678 132.885 173.285 135.835 173.308 138.903C173.34 142.756 174.035 146.811 175.373 150.957C175.678 151.902 175.161 152.914 174.216 153.219C174.033 153.278 173.846 153.306 173.663 153.306Z" fill="#4D793E"/>
<path d="M50.6777 155.371C49.9986 155.371 49.3481 154.984 49.0453 154.326C47.1961 150.32 47.4416 145.915 49.719 142.24C50.9769 140.21 52.8189 138.502 55.0426 137.3C57.3899 136.03 60.0723 135.343 63.0127 135.259C64.0089 135.231 64.8332 136.014 64.8601 137.004C64.8888 137.997 64.1075 138.825 63.1148 138.854C58.542 138.984 54.7738 140.909 52.7741 144.134C51.1435 146.763 50.9751 149.929 52.3082 152.819C52.7239 153.721 52.3315 154.788 51.4302 155.204C51.1865 155.317 50.9303 155.371 50.6777 155.371Z" fill="#4D793E"/>
<path d="M50.6777 155.371C49.9986 155.371 49.3481 154.984 49.0453 154.326C47.1961 150.32 47.4416 145.915 49.719 142.24C50.9769 140.21 52.8189 138.502 55.0426 137.3C57.3899 136.03 60.0723 135.343 63.0127 135.259C64.0089 135.231 64.8332 136.014 64.8601 137.004C64.8888 137.997 64.1075 138.825 63.1148 138.854C58.542 138.984 54.7738 140.909 52.7741 144.134C51.1435 146.763 50.9751 149.929 52.3082 152.819C52.7239 153.721 52.3315 154.788 51.4302 155.204C51.1865 155.317 50.9303 155.371 50.6777 155.371Z" fill="#4D793E"/>
<path d="M77.5158 113.786C77.054 113.786 76.5944 113.611 76.2439 113.258C74.0547 111.071 72.655 107.573 72.4035 103.66C72.1437 99.6323 73.0941 95.561 75.0833 92.1968C75.5884 91.3434 76.6892 91.0589 77.5447 91.564C78.3981 92.069 78.6826 93.1719 78.1775 94.0273C75.3513 98.8077 74.9061 106.839 78.7856 110.716C79.4886 111.419 79.4886 112.557 78.7856 113.258C78.4352 113.611 77.9755 113.786 77.5158 113.786Z" fill="#4D793E"/>
<path d="M77.5158 113.786C77.054 113.786 76.5944 113.611 76.2439 113.258C74.0547 111.071 72.655 107.573 72.4035 103.66C72.1437 99.6323 73.0941 95.561 75.0833 92.1968C75.5884 91.3434 76.6892 91.0589 77.5447 91.564C78.3981 92.069 78.6826 93.1719 78.1775 94.0273C75.3513 98.8077 74.9061 106.839 78.7856 110.716C79.4886 111.419 79.4886 112.557 78.7856 113.258C78.4352 113.611 77.9755 113.786 77.5158 113.786Z" fill="#4D793E"/>
</svg>
